<svg width="73" height="74" viewBox="0 0 73 74" fill="none" xmlns="http://www.w3.org/2000/svg">
<path d="M46.1176 20.3905C45.8645 20.3905 45.6114 20.2642 45.4849 20.0115C43.4603 17.2321 40.55 15.0844 37.2601 13.9474C36.6274 13.6947 36.1212 13.5684 35.6151 13.442C35.2355 13.3157 34.9824 12.9367 34.9824 12.4314C34.9824 11.926 35.4886 11.7997 35.9947 11.7997C36.5008 11.926 37.1335 12.0524 37.7662 12.305C41.3092 13.5684 44.4726 15.8424 46.7502 18.8745C47.0033 19.2535 46.8768 19.7588 46.6237 20.0115C46.4972 20.2642 46.2441 20.3905 46.1176 20.3905Z" fill="#BA0C2F"/>
<path d="M14.8635 23.8015C14.7369 23.8015 14.6104 23.8015 14.6104 23.6752C14.2308 23.5489 13.9777 23.0435 14.2308 22.6645C17.2676 15.8424 23.974 11.4207 31.4396 11.4207H31.5662C33.0846 11.4207 34.603 11.6733 36.1214 11.926C36.501 12.0523 36.7541 12.4313 36.7541 12.9367C36.6276 13.3157 36.248 13.5684 35.7418 13.5684C34.3499 13.1893 32.9581 13.063 31.5662 13.063C31.5662 13.063 31.5662 13.063 31.4396 13.063C24.6067 13.063 18.4065 17.1057 15.6227 23.4225C15.3696 23.5489 15.1165 23.8015 14.8635 23.8015Z" fill="#BA0C2F"/>
<path d="M14.4842 36.8141C14.1046 36.8141 13.8515 36.5614 13.725 36.3088C12.3331 32.645 12.2065 28.7286 13.2188 24.9386C13.3454 24.1806 13.725 23.4226 13.978 22.6645C14.2311 22.2855 14.6107 22.1592 14.9903 22.2855C15.3699 22.5382 15.4965 22.9172 15.3699 23.2962C15.1169 23.9279 14.8638 24.5596 14.7373 25.1913C13.725 28.7286 13.8515 32.266 15.1169 35.6771C15.2434 36.0561 15.1169 36.5614 14.6107 36.6878C14.7373 36.6878 14.6107 36.8141 14.4842 36.8141Z" fill="#BA0C2F"/>
<path d="M20.305 44.5206C20.1785 44.5206 19.9254 44.5206 19.7989 44.3943C18.0274 43.0046 16.509 41.4885 15.3701 39.5935C14.7375 38.5828 14.2313 37.4458 13.7252 36.3088C13.5986 35.9298 13.7252 35.4244 14.1048 35.2981C14.4844 35.1718 14.9905 35.2981 15.1171 35.6771C15.4967 36.6878 16.0028 37.8248 16.6355 38.7092C17.6478 40.3515 19.0397 41.8675 20.6846 43.1309C21.0643 43.3836 21.0643 43.8889 20.8112 44.2679C20.8112 44.5206 20.5581 44.5206 20.305 44.5206Z" fill="#BA0C2F"/>
<path d="M23.4678 47.9316C23.3413 47.9316 23.2147 47.9316 23.0882 47.8052C22.7086 47.5525 22.582 47.0472 22.8351 46.6682C23.3413 45.9102 23.5943 45.0258 23.5943 44.1415C23.2147 42.6255 22.329 41.3621 21.1901 40.3514C20.1779 39.3407 19.1656 38.2037 18.4064 36.9404C17.6471 35.677 17.141 34.2873 16.8879 32.8976C16.7614 31.3816 16.6349 29.8656 16.7614 28.3496C16.7614 27.9706 17.141 27.5916 17.5206 27.5916C17.9002 27.5916 18.2798 27.9706 18.2798 28.3496C18.2798 29.7393 18.2798 31.2553 18.4064 32.645C18.6594 33.782 19.039 35.0453 19.6717 36.056C20.4309 37.193 21.3167 38.2037 22.2024 39.0881C23.5943 40.2251 24.6066 41.8675 25.1128 43.7625V43.8888C25.2393 45.1522 24.8597 46.4155 24.1005 47.5525C23.9739 47.8052 23.7209 47.9316 23.4678 47.9316Z" fill="#BA0C2F"/>
<path d="M17.3951 29.2341C17.2685 29.2341 17.2685 29.2341 17.3951 29.2341C16.8889 29.2341 16.5093 28.7288 16.6359 28.3498C16.8889 26.0757 17.6481 24.0544 18.787 22.1593C19.5462 20.896 20.4319 19.759 21.5707 18.7483C22.583 17.7376 23.8484 16.9796 25.1137 16.4743C25.4933 16.3479 25.9995 16.4743 26.126 16.8533C26.2526 17.2323 26.126 17.7376 25.7464 17.8639C24.6076 18.3693 23.5953 19.001 22.583 19.8853C21.5707 20.7697 20.685 21.7803 20.0523 22.9174C19.04 24.6861 18.2808 26.4548 18.0277 28.4761C18.0277 28.8551 17.7747 29.2341 17.3951 29.2341Z" fill="#BA0C2F"/>
<path d="M48.9028 30.8764C48.5232 30.8764 48.2702 30.6237 48.1436 30.371C48.0171 29.992 44.3476 21.1485 36.2493 17.7375C32.8328 16.3478 29.0367 16.3478 25.6203 17.8638C25.2407 17.9901 24.7345 17.8638 24.608 17.4848C24.4815 17.1058 24.608 16.6005 24.9876 16.4741C28.7837 14.8318 33.0859 14.7054 36.882 16.3478C45.6129 20.0115 49.6621 29.7393 49.6621 30.2447C49.6621 30.6237 49.409 30.8764 48.9028 30.8764Z" fill="#BA0C2F"/>
<path d="M25.3657 39.088C25.1127 39.088 24.9861 38.9617 24.7331 38.8353L22.582 36.435C19.7982 32.8976 19.4186 28.2232 21.5697 24.3068C24.8596 18.2427 30.9333 17.8637 35.2355 19.3797C35.7417 19.506 36.1213 19.7587 36.6274 20.0114C37.007 20.264 47.636 25.5701 48.9014 37.951C48.9014 38.33 48.6483 38.709 48.1422 38.8353C47.7626 38.8353 47.3829 38.5827 47.2564 38.0773C46.1176 26.5808 35.9947 21.4011 35.8682 21.4011C35.4886 21.1484 35.109 21.0221 34.7294 20.8957C31.0599 19.6324 25.8719 20.0114 23.0881 25.1911C21.1901 28.4758 21.5697 32.5186 23.9739 35.5506L26.125 37.951C26.378 38.33 26.378 38.8353 25.9984 39.088C25.7454 39.088 25.4923 39.088 25.3657 39.088Z" fill="#BA0C2F"/>
<path d="M27.0116 48.816C26.885 48.816 26.7585 48.816 26.632 48.6896C26.2524 48.437 26.1258 48.058 26.2524 47.679C27.7708 44.7732 27.1381 41.2358 24.7339 38.9618C24.3543 38.7091 24.3543 38.2038 24.7339 37.8248C24.987 37.4458 25.4931 37.4458 25.8727 37.8248C28.7831 40.4778 29.5423 44.8996 27.6442 48.437C27.5177 48.5633 27.2646 48.816 27.0116 48.816Z" fill="#BA0C2F"/>
<path d="M30.8071 49.5741C30.6806 49.5741 30.5541 49.5741 30.5541 49.5741C30.1745 49.4478 29.9214 48.9424 30.1745 48.5634C31.1867 46.163 31.3133 43.3837 30.4275 40.9833C29.7948 38.7092 28.5295 36.8142 26.758 35.2982C26.1253 34.6665 25.4926 34.0348 25.113 33.4032C23.7211 30.8765 23.8477 27.8444 25.3661 25.444C27.0111 23.2963 29.5418 22.2856 32.0725 22.791C32.5786 22.9173 43.2076 25.065 45.6118 42.752C45.6118 43.131 45.3587 43.6363 44.9791 43.6363C44.5995 43.6363 44.0934 43.3837 44.0934 43.0047C41.8157 26.5811 32.199 24.4333 31.8194 24.4333C29.7948 24.1807 27.8968 24.9387 26.6315 26.4547C25.3661 28.3497 25.2396 30.7501 26.3784 32.7715C26.758 33.2768 27.2641 33.9085 27.7703 34.2875C29.7948 35.9299 31.1867 38.2039 31.8194 40.7306C32.7052 43.51 32.5786 46.6684 31.4398 49.4478C31.4398 49.4478 31.0602 49.5741 30.8071 49.5741Z" fill="#BA0C2F"/>
<path d="M34.7309 49.3214C34.6043 49.3214 34.6043 49.3214 34.4778 49.3214C34.0982 49.1951 33.8451 48.8161 33.9717 48.3108C35.6166 42.4993 33.7186 36.3089 29.0368 32.5188C28.7837 32.2662 28.5306 32.0135 28.2776 31.7608C27.3918 30.2448 27.5183 28.4761 28.6572 27.3391C29.6695 26.0757 31.441 25.6967 32.9594 26.3284L33.0859 26.4547C36.1228 28.4761 38.4004 31.2555 39.9188 34.5402C41.4373 38.2039 42.07 42.2467 41.8169 46.1631C41.8169 46.5421 41.4373 46.9211 40.9311 46.9211C40.5515 46.9211 40.1719 46.5421 40.1719 46.0367C40.425 42.373 39.7923 38.5829 38.4004 35.1719C37.1351 32.2662 34.984 29.7394 32.3267 27.8444C31.441 27.4654 30.4287 27.8444 29.9225 28.4761C29.2898 29.1078 29.1633 30.1185 29.5429 30.8765C29.6695 31.0028 29.9225 31.2555 30.1756 31.3818C35.3636 35.5509 37.5147 42.373 35.6166 48.8161C35.3636 49.0688 34.984 49.3214 34.7309 49.3214Z" fill="#BA0C2F"/>
<path d="M38.3995 48.437C38.0199 48.437 37.6403 48.058 37.6403 47.679C37.6403 33.9084 30.9339 30.371 30.9339 30.371C30.5543 30.1184 30.4278 29.7393 30.5543 29.3603C30.6808 28.9813 31.187 28.855 31.5666 28.9813C31.8196 29.1077 39.1587 33.0241 39.1587 47.8053C39.1587 48.058 38.7791 48.437 38.3995 48.437Z" fill="#BA0C2F"/>
<path d="M56.8395 73.9999C48.4093 73.9999 41.5527 67.1542 41.5527 58.7374C41.5527 50.3206 48.4093 43.4749 56.8395 43.4749C65.2696 43.4749 72.1262 50.3206 72.1262 58.7374C72.1262 67.1542 65.2696 73.9999 56.8395 73.9999ZM56.8395 45.7193C49.6457 45.7193 43.8008 51.555 43.8008 58.7374C43.8008 65.9198 49.6457 71.7554 56.8395 71.7554C64.0332 71.7554 69.8781 65.9198 69.8781 58.7374C69.8781 51.555 64.0332 45.7193 56.8395 45.7193Z" fill="#3E4451"/>
<path d="M54.3671 67.0423L48.8594 61.5432L50.433 59.9721L54.1423 63.6755L64.0337 50.9941L65.8321 52.3408L54.3671 67.0423Z" fill="#BA0C2F"/>
<path d="M33.3462 61.7521H6.6032C2.97144 61.7521 0 58.7854 0 55.1594V6.59276C0 2.96674 2.97144 0 6.6032 0H55.1367C58.7685 0 61.74 2.96674 61.74 6.59276V35.9305H59.5389V6.59276C59.5389 4.17541 57.5579 2.19759 55.1367 2.19759H6.6032C4.18203 2.19759 2.20107 4.17541 2.20107 6.59276V55.1594C2.20107 57.5767 4.18203 59.5546 6.6032 59.5546H33.3462V61.7521Z" fill="#3E4451"/>
</svg>
