<svg width="97" height="98" viewBox="0 0 97 98" fill="none" xmlns="http://www.w3.org/2000/svg">
<path d="M57.75 85.2538L58.0518 84.6929" stroke="#FAFAFA" stroke-width="0.5"/>
<path d="M95.558 1H1V79.9971H95.558V1Z" stroke="#3E4451" stroke-width="1.7"/>
<path d="M1 14.1953H95.558" stroke="#3E4451" stroke-width="1.7"/>
<path d="M48.8789 24.0366H54.1905" stroke="#3E4451" stroke-width="1.7"/>
<path d="M58.6523 24.0366H86.7795" stroke="#3E4451" stroke-width="1.7"/>
<path d="M48.8789 30.6216H86.7842" stroke="#3E4451" stroke-width="1.7"/>
<path d="M48.8789 40.5H54.1905" stroke="#3E4451" stroke-width="1.7"/>
<path d="M71.7031 40.5H86.7928" stroke="#3E4451" stroke-width="1.7"/>
<path d="M27.0742 24.0366H10.7773V40.4995H27.0742V24.0366Z" stroke="#3E4451" stroke-width="1.7"/>
<path d="M14.4727 31.1217L18.8909 35.524L31.6025 24.5366" stroke="#BA0C2F" stroke-width="1.7"/>
<path d="M6.50391 7.57324H8.5561" stroke="#3E4451" stroke-width="1.7"/>
<path d="M13.0273 7.57324H15.0916" stroke="#3E4451" stroke-width="1.7"/>
<path d="M19.543 7.57324H21.5952" stroke="#3E4451" stroke-width="1.7"/>
<path d="M85.8284 86.5225H53.0898V96.5221H85.8284V86.5225Z" stroke="#3E4451" stroke-width="1.7"/>
<path d="M54.4891 78.1087C53.9096 76.8892 53.644 76.2185 52.9076 74.5844L48.2721 61.7434L47.8617 60.7556C46.9322 58.3899 46.6544 56.4265 48.6704 55.2193C50.6864 54.012 52.4731 54.8779 53.632 57.0119L56.7344 63.1093C57.7726 64.8775 59.2574 64.2556 59.4868 63.1824C59.6437 62.5361 59.4868 58.1582 59.4868 58.1582V40.1345C59.4868 37.5736 60.694 35.5005 62.9635 35.5005C65.2329 35.5005 66.3676 37.5736 66.3676 40.1345V52.3291C66.369 52.7362 66.5208 53.1281 66.7932 53.4281C67.0656 53.7281 67.439 53.9146 67.8403 53.951L79.0792 54.8412C80.9417 55.1105 82.6403 56.0644 83.8498 57.5203C85.0594 58.9761 85.6947 60.8316 85.6341 62.7312V71.6943C85.6341 74.5844 86.0929 75.1088 85.0788 77.7916L82.93 81.7793L82.8577 81.9622C82.6609 82.9448 82.5919 83.9492 82.6524 84.9499V86.5718H56.5291V85.9986C56.5321 84.741 56.4068 83.4865 56.155 82.2548L54.4891 78.1087Z" fill="white" stroke="#3E4451" stroke-width="1.7"/>
</svg>
