<svg width="84" height="100" viewBox="0 0 84 100" fill="none" xmlns="http://www.w3.org/2000/svg">
<path d="M52.4321 58.4643C52.4321 55.7101 51.3354 53.0687 49.3831 51.1212C47.4308 49.1737 44.783 48.0796 42.0221 48.0796C39.2611 48.0796 36.6133 49.1737 34.661 51.1212C32.7088 53.0687 31.612 55.7101 31.612 58.4643C31.5463 60.2572 31.9777 62.0334 32.8587 63.5975C33.7397 65.1615 35.0362 66.4529 36.6054 67.3293V70.5376H47.4387V67.3293C49.0048 66.4492 50.2986 65.1571 51.1791 63.5939C52.0597 62.0307 52.4931 60.2564 52.4321 58.4643Z" stroke="#BA0C2F" stroke-width="2.5" stroke-miterlimit="10"/>
<path d="M45.0873 59.8605C46.1107 59.8605 46.9403 59.0328 46.9403 58.0117C46.9403 56.9906 46.1107 56.1628 45.0873 56.1628C44.064 56.1628 43.2344 56.9906 43.2344 58.0117C43.2344 59.0328 44.064 59.8605 45.0873 59.8605Z" fill="#3E4451"/>
<path d="M38.9115 59.8605C39.9349 59.8605 40.7645 59.0328 40.7645 58.0117C40.7645 56.9906 39.9349 56.1628 38.9115 56.1628C37.8882 56.1628 37.0586 56.9906 37.0586 58.0117C37.0586 59.0328 37.8882 59.8605 38.9115 59.8605Z" fill="#3E4451"/>
<path d="M42.0205 97.7648C62.3068 97.7648 78.752 81.3596 78.752 61.1228C78.752 40.886 62.3068 24.4808 42.0205 24.4808C21.7343 24.4808 5.28906 40.886 5.28906 61.1228C5.28906 81.3596 21.7343 97.7648 42.0205 97.7648Z" stroke="#3E4451" stroke-width="2.5" stroke-miterlimit="10"/>
<path d="M29.5742 26.3263V17.7568H54.4145V26.3263" stroke="#3E4451" stroke-width="2.5" stroke-miterlimit="10"/>
<path d="M53.8352 7.75146H46.5989C45.4766 7.75146 44.4002 8.19623 43.6066 8.9879C42.813 9.77958 42.3672 10.8533 42.3672 11.9729V18.9805" stroke="#3E4451" stroke-width="2.5" stroke-miterlimit="10"/>
<path d="M59.2845 5.0915L55.9414 1.71436" stroke="#BA0C2F" stroke-width="2.5" stroke-miterlimit="10"/>
<path d="M66.862 12.6059L63.4766 9.271" stroke="#BA0C2F" stroke-width="2.5" stroke-miterlimit="10"/>
<path d="M63.4766 5.0915L66.862 1.71436" stroke="#BA0C2F" stroke-width="2.5" stroke-miterlimit="10"/>
<path d="M55.9414 12.6059L59.2845 9.271" stroke="#BA0C2F" stroke-width="2.5" stroke-miterlimit="10"/>
</svg>
