<svg width="87" height="87" viewBox="0 0 87 87" fill="none" xmlns="http://www.w3.org/2000/svg">
<path d="M20.338 50.3021C20.338 52.4196 19.4932 54.4503 17.9894 55.9476C16.4856 57.4448 14.446 58.286 12.3194 58.286C10.1927 58.286 8.15315 57.4448 6.64937 55.9476C5.14559 54.4503 4.30078 52.4196 4.30078 50.3021" stroke="#BA0C2F" stroke-width="2.5" stroke-miterlimit="10"/>
<path d="M28.1873 65.1044C28.5333 66.1776 28.4511 67.3422 27.9577 68.3566C27.4643 69.3711 26.5976 70.1574 25.5374 70.5526C25.0091 70.7333 24.4496 70.8062 23.8924 70.7672C23.3351 70.7282 22.7915 70.5779 22.2938 70.3253C21.796 70.0727 21.3545 69.723 20.9953 69.297C20.6361 68.871 20.3667 68.3774 20.2031 67.8456" stroke="#BA0C2F" stroke-width="2.5" stroke-miterlimit="10"/>
<path d="M36.9976 62.3293C36.6259 63.1192 36.0994 63.8272 35.449 64.4116C34.7986 64.996 34.0374 65.4451 33.2102 65.7324C32.383 66.0197 31.5064 66.1395 30.632 66.0847C29.7577 66.0298 28.9031 65.8015 28.1186 65.4132C26.539 64.586 25.3439 63.1803 24.7853 61.4926C24.2267 59.8049 24.3483 57.9672 25.1246 56.3671" stroke="#3E4451" stroke-width="2.5" stroke-miterlimit="10"/>
<path d="M28.1504 36.15C28.6637 36.4373 29.2296 36.6191 29.8147 36.6849C30.3998 36.7506 30.9921 36.6989 31.5568 36.5328C32.1215 36.3667 32.647 36.0895 33.1022 35.7177C33.5575 35.346 33.9333 34.8871 34.2074 34.3682C34.7716 33.3135 34.904 32.0823 34.5768 30.9325C34.2496 29.7828 33.4883 28.8037 32.4522 28.2004" stroke="#BA0C2F" stroke-width="2.5" stroke-miterlimit="10"/>
<path d="M43.496 26.0764C43.3762 24.9654 43.0367 23.889 42.4969 22.9093C41.9572 21.9296 41.228 21.066 40.3513 20.3684C39.4747 19.6707 38.468 19.1528 37.3893 18.8446C36.3106 18.5363 35.1812 18.4438 34.0664 18.5723" stroke="#3E4451" stroke-width="2.5" stroke-miterlimit="10"/>
<path d="M9.08594 33.1007C9.32619 34.0344 9.7498 34.9114 10.3323 35.6812C10.9148 36.451 11.6447 37.0982 12.4798 37.5857C13.3149 38.0731 14.2387 38.391 15.1979 38.521C16.157 38.6511 17.1325 38.5907 18.0681 38.3433" stroke="#3E4451" stroke-width="2.5" stroke-miterlimit="10"/>
<path d="M17.584 15.5908C19.0391 15.2362 20.5759 15.4649 21.8633 16.2276C23.1507 16.9903 24.0857 18.2259 24.4669 19.6684" stroke="#BA0C2F" stroke-width="2.5" stroke-miterlimit="10"/>
<path d="M23.5361 44.9216C25.336 44.3745 26.8471 43.1438 27.7423 41.4956C28.6376 39.8475 28.845 37.9147 28.3197 36.1154C28.0897 35.2215 27.6808 34.383 27.1174 33.6503C26.5541 32.9176 25.8479 32.3057 25.0412 31.8513C24.2346 31.3969 23.344 31.1094 22.4231 31.006C21.5021 30.9027 20.5697 30.9855 19.6816 31.2497" stroke="#3E4451" stroke-width="2.5" stroke-miterlimit="10"/>
<path d="M66.6621 50.3021C66.6621 52.4196 67.5069 54.4503 69.0107 55.9476C70.5145 57.4448 72.554 58.286 74.6807 58.286C76.8074 58.286 78.8469 57.4448 80.3507 55.9476C81.8545 54.4503 82.6993 52.4196 82.6993 50.3021" stroke="#BA0C2F" stroke-width="2.5" stroke-miterlimit="10"/>
<path d="M57.8512 64.4877C58.9367 64.2867 59.9017 63.6746 60.5434 62.78C61.1852 61.8855 61.4537 60.7781 61.2926 59.6905C61.2095 59.1472 61.0177 58.626 60.7288 58.1577C60.4399 57.6894 60.0596 57.2836 59.6104 56.9641C59.1612 56.6447 58.6523 56.4182 58.1137 56.2979C57.5751 56.1776 57.0178 56.1661 56.4746 56.264" stroke="#BA0C2F" stroke-width="2.5" stroke-miterlimit="10"/>
<path d="M59.367 73.4996C59.8858 72.8128 60.2613 72.0296 60.4715 71.1961C60.6816 70.3625 60.7221 69.4956 60.5907 68.6462C60.4592 67.7969 60.1583 66.9823 59.7059 66.2505C59.2534 65.5187 58.6584 64.8844 57.956 64.385C56.5005 63.4178 54.7297 63.0389 53.0036 63.3253C51.2775 63.6118 49.7258 64.542 48.6641 65.9269" stroke="#3E4451" stroke-width="2.5" stroke-miterlimit="10"/>
<path d="M57.0555 32.8609C56.5411 32.5783 55.9755 32.4003 55.3915 32.337C54.8075 32.2737 54.2166 32.3264 53.6533 32.4922C53.0899 32.6579 52.5651 32.9333 52.1094 33.3025C51.6537 33.6716 51.2761 34.1272 50.9985 34.6427C50.4343 35.6974 50.3019 36.9286 50.6291 38.0784C50.9563 39.2281 51.7176 40.2072 52.7537 40.8105" stroke="#3E4451" stroke-width="2.5" stroke-miterlimit="10"/>
<path d="M43.502 18.2629C43.8187 17.6251 44.261 17.0571 44.8026 16.5927C45.3441 16.1283 45.9738 15.777 46.6544 15.5597C47.3349 15.3424 48.0524 15.2634 48.7641 15.3275C49.4759 15.3916 50.1675 15.5975 50.7978 15.9329" stroke="#BA0C2F" stroke-width="2.5" stroke-miterlimit="10"/>
<path d="M43.502 55.6812C43.626 54.5687 43.9695 53.4916 44.5128 52.5117C45.0561 51.5318 45.7884 50.6684 46.6678 49.9711C47.5472 49.2738 48.5563 48.7564 49.6371 48.4485C50.718 48.1406 51.8492 48.0484 52.966 48.1771" stroke="#BA0C2F" stroke-width="2.5" stroke-miterlimit="10"/>
<path d="M43.5017 47.8685C43.1884 47.2318 42.7494 46.6645 42.211 46.2005C41.6726 45.7364 41.0458 45.3852 40.3681 45.1677C39.6903 44.9502 38.9755 44.871 38.2662 44.9347C37.557 44.9984 36.868 45.2037 36.2402 45.5385" stroke="#BA0C2F" stroke-width="2.5" stroke-miterlimit="10"/>
<path d="M77.9177 33.1007C77.6775 34.0344 77.2539 34.9114 76.6714 35.6812C76.0889 36.451 75.359 37.0982 74.5239 37.5857C73.6888 38.0731 72.765 38.391 71.8058 38.521C70.8467 38.6511 69.8711 38.5907 68.9355 38.3433" stroke="#3E4451" stroke-width="2.5" stroke-miterlimit="10"/>
<path d="M69.4181 15.5908C67.963 15.2362 66.4262 15.4649 65.1388 16.2276C63.8514 16.9903 62.9164 18.2259 62.5352 19.6684" stroke="#3E4451" stroke-width="2.5" stroke-miterlimit="10"/>
<path d="M61.6673 24.0881C59.8789 24.6499 58.3816 25.8849 57.4945 27.5299C56.6073 29.1748 56.4005 31.0997 56.9181 32.8944C57.1484 33.7845 57.5562 34.6193 58.1173 35.3493C58.6783 36.0792 59.3811 36.6893 60.1839 37.1433C60.9866 37.5973 61.8728 37.8858 62.7898 37.9918C63.7069 38.0977 64.6359 38.0189 65.5217 37.7601" stroke="#3E4451" stroke-width="2.5" stroke-miterlimit="10"/>
<path d="M40.5387 5.5849C39.6944 4.9653 38.7154 4.55245 37.6811 4.3798C36.6467 4.20716 35.586 4.27959 34.585 4.59122C31.5739 5.47955 28.6755 6.70977 25.9469 8.25762C25.4435 8.20533 24.936 8.20533 24.4327 8.25762C23.4868 8.26205 22.5512 8.45309 21.6799 8.8197C20.8086 9.18631 20.0189 9.72121 19.3565 10.3935C18.6941 11.0658 18.172 11.8621 17.8206 12.7365C17.4691 13.6109 17.2952 14.5459 17.3088 15.4876C17.3088 15.4876 17.3088 15.796 17.3088 15.9331C16.1803 16.4259 15.2261 17.2444 14.5697 18.2829C13.9132 19.3213 13.5847 20.5319 13.6265 21.7582C12.1511 22.6415 10.9274 23.8862 10.072 25.3737C9.21653 26.8612 8.75786 28.542 8.73962 30.256C8.73318 31.6752 9.03857 33.0786 9.6344 34.3679C9.42791 35.5329 9.22142 36.698 9.08377 37.7944C8.94611 38.8909 9.08377 39.8161 8.80845 40.9469C7.33717 41.9268 6.14878 43.2726 5.36117 44.851C4.57355 46.4293 4.21409 48.1853 4.31844 49.9447C4.42279 51.704 4.98733 53.4056 5.95605 54.8807C6.92477 56.3558 8.264 57.5531 9.84089 58.3537C11.2646 60.2495 12.8291 62.0363 14.5213 63.6991C13.8774 65.049 13.5368 66.5223 13.5232 68.0166C13.5096 69.3215 13.7543 70.6164 14.2433 71.8272C14.7323 73.038 15.456 74.1411 16.3732 75.0734C17.2904 76.0056 18.383 76.7489 19.5887 77.2608C20.7944 77.7726 22.0896 78.0429 23.4002 78.0564C24.5141 79.7161 26.0607 81.0428 27.8741 81.8941C29.3236 82.478 30.8769 82.7632 32.4402 82.7324C34.0035 82.7016 35.5443 82.3554 36.9694 81.7148C38.3945 81.0742 39.6743 80.1525 40.7314 79.0054C41.7885 77.8583 42.601 76.5097 43.1198 75.041C43.33 74.505 43.4464 73.9371 43.4639 73.362V11.3072C43.4827 10.1881 43.226 9.08139 42.716 8.08386C42.2061 7.08634 41.4585 6.22835 40.5387 5.5849V5.5849Z" stroke="#3E4451" stroke-width="2.5" stroke-miterlimit="10"/>
<path d="M49.3182 4.3798C48.2838 4.55245 47.3048 4.9653 46.4606 5.58491C45.5471 6.23216 44.8062 7.09181 44.3024 8.08911C43.7986 9.0864 43.5471 10.1911 43.5698 11.3072V73.362C43.5873 73.9371 43.7037 74.505 43.9139 75.041C44.4442 76.5092 45.2661 77.856 46.3306 79.001C47.3951 80.146 48.6803 81.0658 50.1096 81.7054C51.5389 82.345 53.083 82.6913 54.6497 82.7237C56.2164 82.7562 57.7736 82.474 59.2284 81.8941C61.0214 81.0397 62.545 79.7124 63.6335 78.0564C64.9441 78.0429 66.2392 77.7726 67.4449 77.2608C68.6506 76.7489 69.7433 76.0056 70.6605 75.0733C71.5776 74.1411 72.3014 73.038 72.7904 71.8272C73.2794 70.6164 73.5241 69.3215 73.5104 68.0166C73.4969 66.5223 73.1563 65.049 72.5124 63.6991C74.3447 62.2393 75.9256 60.4917 77.1928 58.525C78.7697 57.7244 80.1089 56.5271 81.0776 55.052C82.0463 53.577 82.6109 51.8753 82.7152 50.116C82.8196 48.3566 82.4601 46.6007 81.6725 45.0223C80.8849 43.444 79.6965 42.0981 78.2252 41.1182C78.122 39.9874 78.0876 39.0623 77.9499 37.9658C77.8123 36.8694 77.6058 35.7044 77.3993 34.5395L77.3993 34.5392C77.9951 33.25 78.3005 31.8465 78.2941 30.4274C78.3019 28.681 77.852 26.9628 76.989 25.4425C76.1259 23.9221 74.8795 22.6522 73.3728 21.7582C73.4146 20.5319 73.086 19.3213 72.4296 18.2829C71.7732 17.2444 71.1266 16.4926 69.998 15.9998C69.8057 13.0664 68.3052 11.0658 67.6428 10.3935C66.9804 9.72121 66.1907 9.18631 65.3194 8.8197C64.4481 8.45309 63.5125 8.26205 62.5666 8.25762C62.0632 8.20533 61.5557 8.20533 61.0524 8.25762C58.3237 6.70977 55.4253 5.47955 52.4143 4.59122C51.4133 4.27959 50.3526 4.20716 49.3182 4.3798Z" stroke="#3E4451" stroke-width="2.5" stroke-miterlimit="10"/>
</svg>
