<svg width="88" height="95" viewBox="0 0 88 95" fill="none" xmlns="http://www.w3.org/2000/svg">
<path d="M32.4449 11.2971C35.6108 10.7194 38.8237 10.4323 42.0429 10.4396C57.4748 10.4396 69.971 16.7033 69.971 24.4211C69.971 32.139 57.4748 38.44 42.0429 38.44C26.6109 38.44 14.1523 32.1762 14.1523 24.4211" stroke="#3E4451" stroke-width="2.5" stroke-miterlimit="10"/>
<path d="M69.971 39.8945C69.971 47.6123 57.4748 53.9134 42.0429 53.9134C26.6109 53.9134 14.1523 47.6123 14.1523 39.8945" stroke="#3E4451" stroke-width="2.5" stroke-miterlimit="10"/>
<path d="M69.971 57.3809C69.971 65.136 57.4748 71.3997 42.0429 71.3997C26.6109 71.3997 14.1523 65.136 14.1523 57.3809" stroke="#3E4451" stroke-width="2.5" stroke-miterlimit="10"/>
<path d="M49.9847 87.4684C47.3549 87.8479 44.7004 88.0349 42.0428 88.0276C26.6485 88.0276 14.1523 81.7639 14.1523 74.0088" stroke="#3E4451" stroke-width="2.5" stroke-miterlimit="10"/>
<path d="M14.1523 24.459V74.4943" stroke="#3E4451" stroke-width="2.5" stroke-miterlimit="10"/>
<path d="M69.9688 24.459V72.6674" stroke="#3E4451" stroke-width="2.5" stroke-miterlimit="10"/>
<path d="M48.5895 83.1809C48.5592 82.2507 48.7937 81.3308 49.2663 80.5264C49.7388 79.722 50.4304 79.0656 51.2619 78.6322C51.9345 78.3267 52.6675 78.1738 53.4073 78.1848C54.3663 78.193 55.3043 78.464 56.1173 78.9678C56.205 76.673 57.1874 74.5012 58.8579 72.909C60.5285 71.3167 62.7571 70.428 65.0754 70.4297C66.7907 70.4475 68.4641 70.957 69.8935 71.8965C71.3228 72.836 72.447 74.1654 73.1301 75.724C73.9629 75.2537 74.8883 74.9669 75.8432 74.8833C76.7981 74.7996 77.7599 74.9211 78.6631 75.2393C80.0549 75.7811 81.2453 76.7331 82.0733 77.9667C82.9012 79.2003 83.3269 80.6559 83.2927 82.1369V82.1369C83.2927 83.2319 83.0743 84.3161 82.6502 85.3273C82.226 86.3385 81.6044 87.2567 80.821 88.0293C80.0376 88.8018 79.1078 89.4135 78.0852 89.8291C77.0625 90.2447 75.967 90.4562 74.8615 90.4513H55.7033C54.7498 90.4517 53.8059 90.2623 52.9278 89.8943C52.0496 89.5263 51.2552 88.9871 50.5915 88.3089C49.9279 87.6307 49.4087 86.8272 49.0648 85.9463C48.7209 85.0653 48.5593 84.1249 48.5895 83.1809V83.1809Z" stroke="#BA0C2F" stroke-width="2.5" stroke-miterlimit="10"/>
<path d="M39.4092 17.449C39.4422 16.5134 39.2092 15.5873 38.7367 14.7765C38.2642 13.9657 37.5713 13.3027 36.7368 12.8631C36.0702 12.5318 35.337 12.3534 34.5914 12.3411C33.6261 12.3437 32.6832 12.6291 31.8813 13.1613C31.8032 10.86 30.825 8.67884 29.1535 7.07869C27.4819 5.47853 25.2478 4.58468 22.9233 4.58598C21.2368 4.58099 19.5837 5.05168 18.1574 5.94301C16.731 6.83434 15.5903 8.10948 14.8685 9.61934C14.0358 9.149 13.1104 8.8622 12.1555 8.77855C11.2006 8.6949 10.2387 8.81637 9.33558 9.13465C7.93757 9.67858 6.7429 10.6363 5.91442 11.8773C5.08594 13.1184 4.66395 14.5823 4.70599 16.0695C4.701 17.1676 4.91568 18.2559 5.33762 19.2714C5.75956 20.2869 6.3804 21.2095 7.1643 21.986C7.9482 22.7625 8.87962 23.3775 9.90478 23.7955C10.9299 24.2134 12.0285 24.4261 13.1371 24.4212H32.2954C33.2246 24.4261 34.1458 24.2496 35.0062 23.9019C35.8666 23.5542 36.6494 23.0419 37.31 22.3945C37.9706 21.7471 38.496 20.9771 38.8561 20.1286C39.2163 19.28 39.4042 18.3695 39.4092 17.449V17.449Z" stroke="#BA0C2F" stroke-width="2.5" stroke-miterlimit="10"/>
</svg>
