<svg width="102" height="68" viewBox="0 0 102 68" fill="none" xmlns="http://www.w3.org/2000/svg">
<path d="M100.003 46.1314V44.7634C99.552 39.8125 97.5436 35.1297 94.2638 31.3828C90.984 27.6359 86.6002 25.0162 81.7376 23.8974C82.0411 23.079 82.1933 22.2127 82.1868 21.3403C82.1905 19.8711 81.7606 18.4332 80.9504 17.2056C80.1402 15.9779 78.9854 15.0147 77.6298 14.4356C76.2743 13.8565 74.7777 13.6871 73.3263 13.9486C71.875 14.2102 70.5329 14.891 69.4669 15.9064C67.3056 11.1194 63.6025 7.18771 58.9442 4.73424C54.2859 2.28077 48.9389 1.44583 43.7504 2.36177C38.5619 3.27771 33.8285 5.89214 30.3004 9.79078C26.7723 13.6894 24.6511 18.6493 24.2729 23.8846C23.8237 23.8846 23.3745 23.8207 22.9124 23.8207C20.1487 23.8207 17.412 24.3632 14.8587 25.4171C12.3055 26.471 9.98587 28.0156 8.0322 29.9629C6.07853 31.9101 4.52918 34.2219 3.47271 36.7658C2.41623 39.3097 1.87332 42.0359 1.875 44.7889C1.875 45.2236 1.875 45.6711 1.875 46.0674L100.003 46.1314Z" stroke="#3E4451" stroke-width="2.5"/>
<path d="M66.2349 35.6553H35.2081C33.6672 35.6553 32.418 36.9206 32.418 38.4815V63.7481C32.418 65.309 33.6672 66.5744 35.2081 66.5744H66.2349C67.7759 66.5744 69.0251 65.309 69.0251 63.7481V38.4815C69.0251 36.9206 67.7759 35.6553 66.2349 35.6553Z" fill="white" stroke="#BA0C2F" stroke-width="2.5" stroke-miterlimit="10"/>
<path d="M37.0508 35.683V28.6739C37.0729 25.0131 38.5221 21.5095 41.0829 18.9262C43.6437 16.3429 47.1085 14.8892 50.7226 14.8818C54.3464 14.8893 57.8196 16.3507 60.382 18.9462C62.9443 21.5417 64.3871 25.0599 64.3945 28.7304V35.7395" stroke="#BA0C2F" stroke-width="2.5" stroke-miterlimit="10"/>
<path d="M54.2103 47.9205C54.2103 46.9835 53.8428 46.085 53.1887 45.4224C52.5347 44.7599 51.6476 44.3877 50.7225 44.3877C49.7975 44.3877 48.9104 44.7599 48.2564 45.4224C47.6023 46.085 47.2348 46.9835 47.2348 47.9205C47.2261 48.4646 47.3426 49.0032 47.5751 49.4938C47.8075 49.9843 48.1496 50.4133 48.5741 50.7467V55.6927H52.871V50.7467C53.2955 50.4133 53.6376 49.9843 53.87 49.4938C54.1025 49.0032 54.219 48.4646 54.2103 47.9205V47.9205Z" stroke="#3E4451" stroke-width="2.5" stroke-miterlimit="10"/>
</svg>
