<svg width="105" height="80" viewBox="0 0 105 80" fill="none" xmlns="http://www.w3.org/2000/svg">
<path d="M95.8291 58.268H8.62891V3.25975C8.62891 1.49405 10.123 0 11.8887 0H92.4335C94.1992 0 95.6933 1.49405 95.6933 3.25975V58.268H95.8291ZM11.3454 55.5515H92.9768V3.25975C92.9768 2.9881 92.7052 2.71645 92.4335 2.71645H11.8887C11.6171 2.71645 11.3454 2.9881 11.3454 3.25975V55.5515Z" fill="#3E4451"/>
<path d="M89 49H16V10.2937C16 9.05128 17.2508 8 18.729 8H86.1573C87.6355 8 88.8863 9.05128 88.8863 10.2937V49H89ZM18.2741 47.0886H86.6122V10.2937C86.6122 10.1026 86.3847 9.91142 86.1573 9.91142H18.729C18.5016 9.91142 18.2741 10.1026 18.2741 10.2937V47.0886Z" fill="#BA0C2F"/>
<path d="M99.4968 79.9997H4.96191C3.19617 79.9997 1.70209 79.1848 0.751307 77.6907C-0.199474 76.1967 -0.199474 74.431 0.479655 72.9369L9.03669 55.5516H95.1503L103.707 72.9369C104.522 74.431 104.386 76.1967 103.436 77.6907C102.757 79.1848 101.262 79.9997 99.4968 79.9997ZM10.9383 58.2681L3.06035 74.1593C2.65287 74.8385 2.7887 75.6534 3.19617 76.3325C3.60365 77.0116 4.28278 77.4191 5.09774 77.4191H99.6326C100.448 77.4191 101.127 77.0116 101.534 76.3325C101.942 75.6534 101.942 74.8385 101.67 74.1593L93.7921 58.2681H10.9383Z" fill="#3E4451"/>
<path d="M62.9575 71.9863H41.6328V74.7023H62.9575V71.9863Z" fill="#BA0C2F"/>
</svg>
