<svg width="59" height="74" viewBox="0 0 59 74" fill="none" xmlns="http://www.w3.org/2000/svg">
<path d="M7.08693 3.64459C6.17924 3.64456 5.30829 4.00304 4.66373 4.64196C4.01917 5.28089 3.6532 6.14852 3.64551 7.05593V66.944C3.6532 67.8515 4.01917 68.7191 4.66373 69.358C5.30829 69.9969 6.17924 70.3554 7.08693 70.3554H40.3929C40.8997 70.351 41.3995 70.2366 41.8577 70.0201C42.316 69.8037 42.7217 69.4903 43.0469 69.1016L48.5007 62.4539L54.5961 54.9897C55.098 54.382 55.376 53.6203 55.3835 52.8321V7.05593C55.3758 6.14852 55.0099 5.28089 54.3653 4.64196C53.7207 4.00304 52.8498 3.64456 51.9421 3.64459H7.08693V3.64459Z" stroke="#3E4451" stroke-width="2.5" stroke-miterlimit="10"/>
<path d="M41.998 69.3053V54.0272L54.9471 54.0563" stroke="#3E4451" stroke-width="2.5" stroke-miterlimit="10"/>
<path d="M29.5136 45.8348C35.586 45.8348 40.5087 40.9135 40.5087 34.8427C40.5087 28.7719 35.586 23.8506 29.5136 23.8506C23.4412 23.8506 18.5186 28.7719 18.5186 34.8427C18.5186 40.9135 23.4412 45.8348 29.5136 45.8348Z" stroke="#3E4451" stroke-width="2.5" stroke-miterlimit="10"/>
<path d="M45.1777 20.8766L29.5163 36.5046L17.3838 24.3754" stroke="#BA0C2F" stroke-width="2.5" stroke-miterlimit="10"/>
</svg>
