<svg width="77" height="73" viewBox="0 0 77 73" fill="none" xmlns="http://www.w3.org/2000/svg">
<path d="M38.5111 42.9633C41.763 42.9633 44.3992 40.307 44.3992 37.0304C44.3992 33.7538 41.763 31.0975 38.5111 31.0975C35.2592 31.0975 32.623 33.7538 32.623 37.0304C32.623 40.307 35.2592 42.9633 38.5111 42.9633Z" stroke="#E25D7A" stroke-width="2.5" stroke-miterlimit="10"/>
<path d="M10.123 42.562L19.7089 59.2428" stroke="#3E4451" stroke-width="2.5" stroke-miterlimit="10"/>
<path d="M20.1119 14.0729L10.1562 31.4703" stroke="#3E4451" stroke-width="2.5" stroke-miterlimit="10"/>
<path d="M48.0463 9.5152H28.9883" stroke="#3E4451" stroke-width="2.5" stroke-miterlimit="10"/>
<path d="M28.957 64.5732H48.0435" stroke="#3E4451" stroke-width="2.5" stroke-miterlimit="10"/>
<path d="M25.9434 15.1619L35.8137 31.4701" stroke="#3E4451" stroke-width="2.5" stroke-miterlimit="10"/>
<path d="M25.9434 58.8989L35.8706 42.562" stroke="#3E4451" stroke-width="2.5" stroke-miterlimit="10"/>
<path d="M14.6777 37.0301H32.6548" stroke="#3E4451" stroke-width="2.5" stroke-miterlimit="10"/>
<path d="M66.8749 42.562L57.2891 59.2428" stroke="#3E4451" stroke-width="2.5" stroke-miterlimit="10"/>
<path d="M56.8574 14.0729L66.8415 31.4703" stroke="#3E4451" stroke-width="2.5" stroke-miterlimit="10"/>
<path d="M51.0598 15.1619L41.1895 31.4701" stroke="#3E4451" stroke-width="2.5" stroke-miterlimit="10"/>
<path d="M51.06 58.8989L41.1328 42.562" stroke="#3E4451" stroke-width="2.5" stroke-miterlimit="10"/>
<path d="M62.3228 37.0301H44.3457" stroke="#3E4451" stroke-width="2.5" stroke-miterlimit="10"/>
<path d="M23.1224 15.4484C26.3743 15.4484 29.0105 12.7921 29.0105 9.5155C29.0105 6.23887 26.3743 3.58264 23.1224 3.58264C19.8706 3.58264 17.2344 6.23887 17.2344 9.5155C17.2344 12.7921 19.8706 15.4484 23.1224 15.4484Z" stroke="#BA0C2F" stroke-width="2.5" stroke-miterlimit="10"/>
<path d="M23.1224 69.4175C26.3743 69.4175 29.0105 66.7613 29.0105 63.4846C29.0105 60.208 26.3743 57.5518 23.1224 57.5518C19.8706 57.5518 17.2344 60.208 17.2344 63.4846C17.2344 66.7613 19.8706 69.4175 23.1224 69.4175Z" stroke="#BA0C2F" stroke-width="2.5" stroke-miterlimit="10"/>
<path d="M9.44276 42.9633C12.6946 42.9633 15.3308 40.307 15.3308 37.0304C15.3308 33.7538 12.6946 31.0975 9.44276 31.0975C6.19087 31.0975 3.55469 33.7538 3.55469 37.0304C3.55469 40.307 6.19087 42.9633 9.44276 42.9633Z" stroke="#BA0C2F" stroke-width="2.5" stroke-miterlimit="10"/>
<path d="M53.8763 15.4484C57.1282 15.4484 59.7644 12.7921 59.7644 9.5155C59.7644 6.23887 57.1282 3.58264 53.8763 3.58264C50.6245 3.58264 47.9883 6.23887 47.9883 9.5155C47.9883 12.7921 50.6245 15.4484 53.8763 15.4484Z" stroke="#BA0C2F" stroke-width="2.5" stroke-miterlimit="10"/>
<path d="M53.8763 69.4175C57.1282 69.4175 59.7644 66.7613 59.7644 63.4846C59.7644 60.208 57.1282 57.5518 53.8763 57.5518C50.6245 57.5518 47.9883 60.208 47.9883 63.4846C47.9883 66.7613 50.6245 69.4175 53.8763 69.4175Z" stroke="#BA0C2F" stroke-width="2.5" stroke-miterlimit="10"/>
<path d="M38.4877 42.9633C41.7396 42.9633 44.3757 40.307 44.3757 37.0304C44.3757 33.7538 41.7396 31.0975 38.4877 31.0975C35.2358 31.0975 32.5996 33.7538 32.5996 37.0304C32.5996 40.307 35.2358 42.9633 38.4877 42.9633Z" stroke="#BA0C2F" stroke-width="2.5" stroke-miterlimit="10"/>
<path d="M67.556 42.9633C70.8079 42.9633 73.4441 40.307 73.4441 37.0304C73.4441 33.7538 70.8079 31.0975 67.556 31.0975C64.3041 31.0975 61.668 33.7538 61.668 37.0304C61.668 40.307 64.3041 42.9633 67.556 42.9633Z" stroke="#BA0C2F" stroke-width="2.5" stroke-miterlimit="10"/>
</svg>
