<svg width="76" height="81" viewBox="0 0 76 81" fill="none" xmlns="http://www.w3.org/2000/svg">
<path d="M37.3947 33.1771C42.8141 33.1771 47.2073 28.777 47.2073 23.3492C47.2073 17.9214 42.8141 13.5213 37.3947 13.5213C31.9753 13.5213 27.582 17.9214 27.582 23.3492C27.582 28.777 31.9753 33.1771 37.3947 33.1771Z" stroke="#3E4451" stroke-width="2.5" stroke-miterlimit="10"/>
<path d="M40.3074 6.19891C40.4774 6.65117 40.7472 7.05916 41.0965 7.39249C41.4459 7.72583 41.8658 7.97589 42.3251 8.12407C42.7844 8.27226 43.2711 8.31473 43.749 8.24832C44.227 8.18191 44.6838 8.00835 45.0854 7.74054V7.74054C45.6208 7.4393 46.2312 7.29832 46.8442 7.33437C47.4572 7.37042 48.0469 7.58197 48.5434 7.9439C49.0398 8.30582 49.4221 8.8029 49.6447 9.37605C49.8674 9.94919 49.9211 10.5743 49.7994 11.1771C49.6683 11.6435 49.6443 12.1335 49.7291 12.6105C49.814 13.0874 50.0055 13.539 50.2892 13.9314C50.573 14.3237 50.9418 14.6467 51.3678 14.8761C51.7939 15.1055 52.2663 15.2354 52.7496 15.256C53.3622 15.3222 53.9429 15.5638 54.422 15.9518C54.9012 16.3399 55.2586 16.858 55.4514 17.4442C55.6442 18.0303 55.6643 18.6597 55.5093 19.2571C55.3543 19.8544 55.0308 20.3943 54.5774 20.8123C54.1971 21.1129 53.8897 21.496 53.6784 21.9326C53.467 22.3693 53.3572 22.8483 53.3572 23.3335C53.3572 23.8188 53.467 24.2978 53.6784 24.7344C53.8897 25.1711 54.1971 25.5541 54.5774 25.8547C55.0308 26.2727 55.3543 26.8127 55.5093 27.41C55.6643 28.0073 55.6442 28.6367 55.4514 29.2229C55.2586 29.8091 54.9012 30.3272 54.422 30.7152C53.9429 31.1033 53.3622 31.3449 52.7496 31.411C52.2663 31.4317 51.7939 31.5616 51.3678 31.791C50.9418 32.0204 50.573 32.3433 50.2892 32.7357C50.0055 33.128 49.814 33.5796 49.7291 34.0566C49.6443 34.5336 49.6683 35.0236 49.7994 35.4899V35.4899C49.9211 36.0927 49.8674 36.7179 49.6447 37.291C49.4221 37.8642 49.0398 38.3612 48.5434 38.7232C48.0469 39.0851 47.4572 39.2966 46.8442 39.3327C46.2312 39.3687 45.6208 39.2278 45.0854 38.9265C44.6838 38.6587 44.227 38.4851 43.749 38.4187C43.2711 38.3523 42.7844 38.3948 42.3251 38.543C41.8658 38.6912 41.4459 38.9412 41.0965 39.2746C40.7472 39.6079 40.4774 40.0159 40.3074 40.4681C40.0523 41.0289 39.6415 41.5043 39.1241 41.8376C38.6067 42.171 38.0045 42.3483 37.3892 42.3483C36.774 42.3483 36.1717 42.171 35.6543 41.8376C35.1369 41.5043 34.7262 41.0289 34.4711 40.4681V40.4681C34.301 40.0159 34.0313 39.6079 33.6819 39.2746C33.3326 38.9412 32.9126 38.6912 32.4533 38.543C31.9941 38.3948 31.5073 38.3523 31.0294 38.4187C30.5515 38.4851 30.0947 38.6587 29.693 38.9265V38.9265C29.1577 39.2278 28.5473 39.3687 27.9343 39.3327C27.3213 39.2966 26.7315 39.0851 26.2351 38.7232C25.7386 38.3612 25.3564 37.8642 25.1337 37.291C24.9111 36.7179 24.8574 36.0927 24.9791 35.4899V35.4899C25.1101 35.0236 25.1342 34.5336 25.0493 34.0566C24.9645 33.5796 24.773 33.128 24.4892 32.7357C24.2054 32.3433 23.8367 32.0204 23.4106 31.791C22.9846 31.5616 22.5122 31.4317 22.0289 31.411V31.411C21.4162 31.3449 20.8356 31.1033 20.3564 30.7152C19.8773 30.3272 19.5199 29.8091 19.3271 29.2229C19.1342 28.6367 19.1141 28.0073 19.2691 27.41C19.4241 26.8127 19.7477 26.2727 20.201 25.8547V25.8547C20.5814 25.5541 20.8888 25.1711 21.1001 24.7344C21.3114 24.2978 21.4212 23.8188 21.4212 23.3335C21.4212 22.8483 21.3114 22.3693 21.1001 21.9326C20.8888 21.496 20.5814 21.1129 20.201 20.8123V20.8123C19.7477 20.3943 19.4241 19.8544 19.2691 19.2571C19.1141 18.6597 19.1342 18.0303 19.3271 17.4442C19.5199 16.858 19.8773 16.3399 20.3564 15.9518C20.8356 15.5638 21.4162 15.3222 22.0289 15.256V15.256C22.5122 15.2354 22.9846 15.1055 23.4106 14.8761C23.8367 14.6467 24.2054 14.3237 24.4892 13.9314C24.773 13.539 24.9645 13.0874 25.0493 12.6105C25.1342 12.1335 25.1101 11.6435 24.9791 11.1771C24.8574 10.5743 24.9111 9.94919 25.1337 9.37605C25.3564 8.8029 25.7386 8.30582 26.2351 7.9439C26.7315 7.58197 27.3213 7.37042 27.9343 7.33437C28.5473 7.29832 29.1577 7.4393 29.693 7.74054V7.74054C30.0947 8.00835 30.5515 8.18191 31.0294 8.24832C31.5073 8.31473 31.9941 8.27226 32.4533 8.12407C32.9126 7.97589 33.3326 7.72583 33.6819 7.39249C34.0313 7.05916 34.301 6.65117 34.4711 6.19891V6.19891C34.7262 5.63818 35.1369 5.16277 35.6543 4.82941C36.1717 4.49604 36.774 4.31879 37.3892 4.31879C38.0045 4.31879 38.6067 4.49604 39.1241 4.82941C39.6415 5.16277 40.0523 5.63818 40.3074 6.19891Z" stroke="#3E4451" stroke-width="2.5" stroke-miterlimit="10"/>
<path d="M13.8809 53.3467C13.8809 53.3467 22.6994 48.2079 25.3931 47.1159C25.9388 46.8765 26.529 46.7561 27.1247 46.7627H48.6741C49.2928 46.7498 49.9078 46.8608 50.4831 47.0891C51.0584 47.3174 51.5824 47.6584 52.0244 48.0921C52.4664 48.5258 52.8175 49.0436 53.0572 49.615C53.2968 50.1863 53.4202 50.7999 53.4201 51.4197C53.4201 52.6548 52.9302 53.8393 52.0582 54.7127C51.1862 55.586 50.0035 56.0767 48.7703 56.0767H35.302" stroke="#BA0C2F" stroke-width="2.5" stroke-miterlimit="10"/>
<path d="M26.2305 65.2296H55.3798C55.8273 65.2285 56.2696 65.1336 56.6783 64.9511C57.087 64.7686 57.453 64.5024 57.7528 64.1697L70.7722 49.9417C74.6203 45.7343 68.5916 39.4393 64.3587 43.5182L52.141 54.3739" stroke="#BA0C2F" stroke-width="2.5" stroke-miterlimit="10"/>
<path d="M22.766 78.1087L30.7187 70.4969L10.7407 49.5564L2.75586 57.1682" stroke="#3E4451" stroke-width="2.5" stroke-miterlimit="10"/>
</svg>
