<svg width="77" height="74" viewBox="0 0 77 74" fill="none" xmlns="http://www.w3.org/2000/svg">
<path d="M38.7148 3.62891V52.6913" stroke="#3E4451" stroke-width="2.5" stroke-miterlimit="10"/>
<path d="M4.30859 29.1187H73.1196" stroke="#3E4451" stroke-width="2.5" stroke-miterlimit="10"/>
<path d="M62.153 22.7021C62.1673 21.6914 61.9285 20.6932 61.4585 19.799C61.3765 19.6289 61.2692 19.4722 61.1402 19.3345C60.5787 18.6964 59.8885 18.1853 59.1152 17.835C58.342 17.4846 57.5034 17.3031 56.655 17.3024H55.6422C54.7938 17.3031 53.9553 17.4846 53.182 17.835C52.4088 18.1853 51.7186 18.6964 51.1571 19.3345V19.3345C51.0281 19.4722 50.9207 19.6289 50.8388 19.799C50.359 20.6894 50.1196 21.6902 50.1443 22.7021" stroke="#BA0C2F" stroke-width="2.5" stroke-miterlimit="10"/>
<path d="M56.1358 16.9828C57.9097 16.9828 59.3477 15.5401 59.3477 13.7604C59.3477 11.9807 57.9097 10.538 56.1358 10.538C54.3619 10.538 52.9238 11.9807 52.9238 13.7604C52.9238 15.5401 54.3619 16.9828 56.1358 16.9828Z" stroke="#BA0C2F" stroke-width="2.5" stroke-miterlimit="10"/>
<path d="M62.153 47.089C62.1673 46.0782 61.9285 45.08 61.4585 44.1859C61.3765 44.0157 61.2692 43.8591 61.1402 43.7214C60.574 43.089 59.8829 42.5817 59.1107 42.2318C58.3385 41.882 57.5023 41.6972 56.655 41.6892H55.6422C54.795 41.6972 53.9587 41.882 53.1865 42.2318C52.4144 42.5817 51.7232 43.089 51.1571 43.7214C51.0281 43.8591 50.9207 44.0157 50.8388 44.1859C50.359 45.0763 50.1196 46.0771 50.1443 47.089" stroke="#BA0C2F" stroke-width="2.5" stroke-miterlimit="10"/>
<path d="M56.1358 41.3697C57.9097 41.3697 59.3477 39.927 59.3477 38.1472C59.3477 36.3675 57.9097 34.9248 56.1358 34.9248C54.3619 34.9248 52.9238 36.3675 52.9238 38.1472C52.9238 39.927 54.3619 41.3697 56.1358 41.3697Z" stroke="#BA0C2F" stroke-width="2.5" stroke-miterlimit="10"/>
<path d="M27.6045 22.7021C27.6188 21.6914 27.3801 20.6932 26.91 19.799C26.8176 19.6352 26.7111 19.4797 26.5917 19.3345V19.3345C26.0279 18.6993 25.3372 18.1901 24.5645 17.84C23.7918 17.4899 22.9544 17.3068 22.1066 17.3024H21.1227C20.2743 17.3031 19.4357 17.4846 18.6625 17.835C17.8893 18.1853 17.1991 18.6964 16.6376 19.3345V19.3345C16.5085 19.4722 16.4012 19.6289 16.3193 19.799C15.8395 20.6894 15.6001 21.6902 15.6248 22.7021" stroke="#BA0C2F" stroke-width="2.5" stroke-miterlimit="10"/>
<path d="M21.5889 16.9828C23.3628 16.9828 24.8009 15.5401 24.8009 13.7604C24.8009 11.9807 23.3628 10.538 21.5889 10.538C19.815 10.538 18.377 11.9807 18.377 13.7604C18.377 15.5401 19.815 16.9828 21.5889 16.9828Z" stroke="#BA0C2F" stroke-width="2.5" stroke-miterlimit="10"/>
<path d="M27.6045 47.089C27.6188 46.0782 27.3801 45.08 26.91 44.1859C26.8176 44.022 26.7111 43.8666 26.5917 43.7214V43.7214C26.0233 43.0917 25.3317 42.5863 24.5601 42.2367C23.7884 41.887 22.9532 41.7007 22.1066 41.6892H21.1227C20.2755 41.6972 19.4392 41.882 18.667 42.2318C17.8948 42.5817 17.2037 43.089 16.6376 43.7214V43.7214C16.5085 43.8591 16.4012 44.0157 16.3193 44.1859C15.8395 45.0763 15.6001 46.0771 15.6248 47.089" stroke="#BA0C2F" stroke-width="2.5" stroke-miterlimit="10"/>
<path d="M21.5889 41.3697C23.3628 41.3697 24.8009 39.927 24.8009 38.1472C24.8009 36.3675 23.3628 34.9248 21.5889 34.9248C19.815 34.9248 18.377 36.3675 18.377 38.1472C18.377 39.927 19.815 41.3697 21.5889 41.3697Z" stroke="#BA0C2F" stroke-width="2.5" stroke-miterlimit="10"/>
<path d="M70.4894 3.62891H6.51084C4.91272 3.62891 3.61719 4.92867 3.61719 6.53201V49.7011C3.61719 51.3044 4.91272 52.6042 6.51084 52.6042H70.4894C72.0875 52.6042 73.3831 51.3044 73.3831 49.7011V6.53201C73.3831 4.92867 72.0875 3.62891 70.4894 3.62891Z" stroke="#3E4451" stroke-width="2.5" stroke-miterlimit="10"/>
<path d="M45.0546 52.6044H32.8145V64.3909H45.0546V52.6044Z" stroke="#3E4451" stroke-width="2.5" stroke-miterlimit="10"/>
<path d="M20.255 64.5654H56.7439C57.5113 64.5654 58.2473 64.8713 58.79 65.4157C59.3327 65.9602 59.6375 66.6986 59.6375 67.4685V70.3716H17.3613V67.4685C17.3613 66.6986 17.6662 65.9602 18.2089 65.4157C18.7515 64.8713 19.4875 64.5654 20.255 64.5654Z" stroke="#3E4451" stroke-width="2.5" stroke-miterlimit="10"/>
</svg>
