<svg width="87" height="97" viewBox="0 0 87 97" fill="none" xmlns="http://www.w3.org/2000/svg">
<path d="M85.5365 10.0869H21.9425V95.8033H85.5365V10.0869Z" fill="white" stroke="#3E4451" stroke-width="1.7"/>
<path d="M1.5293 18.4888V87.1571H65.1354V1.44067H18.4901L1.5293 18.4888Z" fill="white" stroke="#3E4451" stroke-width="1.7"/>
<path d="M14.5198 24.3783H52.1474" stroke="#BA0C2F" stroke-width="1.7"/>
<path d="M14.5198 14.4409H52.1474" stroke="#BA0C2F" stroke-width="1.7"/>
<path d="M14.5198 34.2928H52.1474" stroke="#BA0C2F" stroke-width="1.7"/>
<path d="M14.5198 44.2073H52.1474" stroke="#BA0C2F" stroke-width="1.7"/>
<path d="M14.5198 54.1208H52.1474" stroke="#BA0C2F" stroke-width="1.7"/>
<path d="M14.5198 64.0485H52.1474" stroke="#BA0C2F" stroke-width="1.7"/>
<path d="M14.5198 73.962H52.1474" stroke="#BA0C2F" stroke-width="1.7"/>
<path d="M18.4923 1.98845V18.4879H2.07468C2.03082 18.486 1.98839 18.4713 1.95252 18.4457C1.91665 18.4201 1.88873 18.3848 1.87221 18.3437C1.85568 18.3026 1.85119 18.2575 1.85924 18.2139C1.86729 18.1703 1.88766 18.13 1.91774 18.0977L18.1059 1.82999C18.1379 1.7996 18.1779 1.7791 18.221 1.77096C18.2642 1.76283 18.3088 1.76737 18.3495 1.78406C18.3902 1.80076 18.4253 1.82888 18.4506 1.86512C18.4759 1.90135 18.4904 1.94414 18.4923 1.98845Z" fill="white" stroke="#3E4451" stroke-width="1.7"/>
</svg>
