<svg width="102" height="103" viewBox="0 0 102 103" fill="none" xmlns="http://www.w3.org/2000/svg">
<path d="M90.5974 41.9705C93.6839 38.8469 95.832 34.9044 96.7934 30.5992C97.7547 26.2939 97.49 21.8017 96.0297 17.6421L83.5959 30.227L72.9606 26.6661L69.484 16.008L81.8696 3.34987C77.8985 1.93055 73.6193 1.63307 69.4932 2.48946C65.3672 3.34584 61.5507 5.32368 58.4554 8.20966C55.36 11.0957 53.103 14.7803 51.9279 18.8665C50.7527 22.9528 50.7039 27.2855 51.7867 31.3977L5.06906 78.7009C3.15242 80.6438 2.07617 83.2749 2.07617 86.0177C2.07617 88.7606 3.15242 91.3917 5.06906 93.3346L7.03676 95.3223C8.96468 97.2496 11.5675 98.3306 14.2798 98.3306C16.9922 98.3306 19.595 97.2496 21.5229 95.3223L68.2405 48.019C72.1647 49.0821 76.2968 49.0828 80.2214 48.0211C84.1459 46.9593 87.7245 44.8725 90.5974 41.9705V41.9705Z" stroke="#3E4451" stroke-width="1.7"/>
<path d="M57.0709 74.3401L73.5623 57.6459L94.5828 78.8361C96.5137 80.7825 97.6001 83.4242 97.6029 86.1797C97.6058 88.9353 96.5249 91.5791 94.5981 93.5296L92.6284 95.5235C90.7016 97.4741 88.0866 98.5716 85.3588 98.5745C82.631 98.5774 80.0138 97.4854 78.083 95.5389L57.0624 74.3488L57.0709 74.3401Z" stroke="#3E4451" stroke-width="1.7"/>
<path d="M67.5659 63.5077L20.0877 15.6558L19.3996 7.74143L6.54322 1.92456L1.85938 6.6683L7.72626 19.5947L15.3918 20.4117L62.87 68.2637L67.5659 63.5077Z" fill="white" stroke="#3E4451" stroke-width="1.7"/>
<path d="M14.7153 89.3232C16.4687 89.3232 17.8901 87.8873 17.8901 86.116C17.8901 84.3447 16.4687 82.9088 14.7153 82.9088C12.9619 82.9088 11.5404 84.3447 11.5404 86.116C11.5404 87.8873 12.9619 89.3232 14.7153 89.3232Z" fill="white" stroke="#3E4451" stroke-width="1.7"/>
<path d="M81.4464 66.2659C82.5402 65.1611 82.5421 63.3717 81.4508 62.2692C80.3594 61.1667 78.588 61.1686 77.4942 62.2735L74.831 64.9639C73.7373 66.0687 73.7354 67.8582 74.8268 68.9607C75.9181 70.0632 77.6895 70.0612 78.7832 68.9563L81.4464 66.2659Z" fill="white" stroke="#BA0C2F" stroke-width="1.7"/>
<path d="M88.2139 73.1031C89.3076 71.9982 89.3095 70.2089 88.2182 69.1064C87.1268 68.0039 85.3554 68.0058 84.2617 69.1106L81.5985 71.801C80.5048 72.9058 80.5029 74.6953 81.5943 75.7978C82.6856 76.9003 84.4569 76.8983 85.5507 75.7934L88.2139 73.1031Z" fill="white" stroke="#BA0C2F" stroke-width="1.7"/>
<path d="M94.9768 79.941C96.0705 78.8362 96.0724 77.0467 94.981 75.9442C93.8897 74.8417 92.1184 74.8437 91.0247 75.9485L88.3614 78.6389C87.2677 79.7438 87.2658 81.5332 88.3571 82.6357C89.4485 83.7382 91.2199 83.7363 92.3136 82.6314L94.9768 79.941Z" fill="white" stroke="#BA0C2F" stroke-width="1.7"/>
</svg>
