<svg width="97" height="99" viewBox="0 0 97 99" fill="none" xmlns="http://www.w3.org/2000/svg">
<path d="M57.7485 85.9282L58.0503 85.3672" stroke="#FAFAFA" stroke-width="0.5"/>
<path d="M95.558 1.67413H1V80.6713H95.558V1.67413Z" stroke="#3E4451" stroke-width="1.7"/>
<path d="M1 14.8696H95.558" stroke="#3E4451" stroke-width="1.7"/>
<path d="M48.8774 24.7106H54.189" stroke="#3E4451" stroke-width="1.7"/>
<path d="M58.6541 24.7106H86.7812" stroke="#3E4451" stroke-width="1.7"/>
<path d="M48.8774 31.2957H86.7828" stroke="#3E4451" stroke-width="1.7"/>
<path d="M48.8774 41.1742H54.189" stroke="#3E4451" stroke-width="1.7"/>
<path d="M71.7036 41.1742H86.7933" stroke="#3E4451" stroke-width="1.7"/>
<path d="M27.075 24.7106H10.7781V41.1734H27.075V24.7106Z" stroke="#3E4451" stroke-width="1.7"/>
<path d="M14.4727 31.7959L18.8909 36.1982L31.6025 25.2108" stroke="#BA0C2F" stroke-width="1.7"/>
<path d="M6.50415 8.24744H8.55635" stroke="#3E4451" stroke-width="1.7"/>
<path d="M13.0259 8.24744H15.0901" stroke="#3E4451" stroke-width="1.7"/>
<path d="M19.5447 8.24744H21.5969" stroke="#3E4451" stroke-width="1.7"/>
<path d="M85.8294 87.1965H53.0908V97.1962H85.8294V87.1965Z" stroke="#3E4451" stroke-width="1.7"/>
<path d="M54.4895 78.783C53.9101 77.5635 53.6445 76.8928 52.9081 75.2587L48.2726 62.4177L47.8622 61.4299C46.9326 59.0642 46.6549 57.1009 48.6709 55.8936C50.6869 54.6863 52.4736 55.5522 53.6325 57.6862L56.7349 63.7836C57.773 65.5518 59.2579 64.9299 59.4873 63.8567C59.6442 63.2104 59.4873 58.8325 59.4873 58.8325V40.8088C59.4873 38.2479 60.6945 36.1748 62.9639 36.1748C65.2334 36.1748 66.3681 38.2479 66.3681 40.8088V53.0034C66.3695 53.4105 66.5213 53.8024 66.7937 54.1024C67.0661 54.4024 67.4395 54.5889 67.8408 54.6254L79.0797 55.5155C80.9422 55.7848 82.6408 56.7387 83.8503 58.1946C85.0599 59.6504 85.6952 61.5059 85.6346 63.4055V72.3686C85.6346 75.2587 86.0933 75.7831 85.0793 78.4659L82.9305 82.4536L82.8582 82.6365C82.6614 83.6191 82.5924 84.6235 82.6529 85.6242V87.2461H56.5296V86.6729C56.5326 85.4153 56.4073 84.1608 56.1555 82.9292L54.4895 78.783Z" fill="white" stroke="#3E4451" stroke-width="1.7"/>
</svg>
