<svg width="97" height="98" viewBox="0 0 97 98" fill="none" xmlns="http://www.w3.org/2000/svg">
<path d="M75.5095 30.092C79.9764 30.092 83.5975 26.4339 83.5975 21.9215C83.5975 17.4091 79.9764 13.7511 75.5095 13.7511C71.0425 13.7511 67.4214 17.4091 67.4214 21.9215C67.4214 26.4339 71.0425 30.092 75.5095 30.092Z" stroke="#3E4451" stroke-width="1.7"/>
<path d="M57.4881 62.5412L54.9651 67.6507L50.8607 63.5411L17.953 96.8204H1.39062V80.1625L9.61142 71.8578V67.6995H13.7761L17.8805 63.5655V59.3827H21.9971L26.1015 55.2122V51.1026H30.2299L34.3223 46.9563L30.218 42.8101L35.3243 40.2004C34.6787 37.6459 34.3501 35.0201 34.3464 32.3836C34.3512 25.88 36.3689 19.5408 40.1171 14.253C43.8652 8.96529 49.1564 4.99381 55.2498 2.89442C61.3432 0.795029 67.9339 0.672801 74.0994 2.54489C80.2649 4.41699 85.6967 8.1897 89.6344 13.3349C93.5722 18.4802 95.8187 24.7404 96.0598 31.2395C96.3008 37.7385 94.5242 44.151 90.9786 49.5794C87.4331 55.0079 82.2961 59.1805 76.2865 61.5135C70.277 63.8464 63.6957 64.2228 57.4639 62.5899L57.4881 62.5412Z" stroke="#3E4451" stroke-width="1.7" stroke-linecap="round"/>
<path d="M13.7881 84.3212L43.4001 54.3711" stroke="#BA0C2F" stroke-width="1.7"/>
</svg>
