<svg width="97" height="98" viewBox="0 0 97 98" fill="none" xmlns="http://www.w3.org/2000/svg">
<path d="M95.5229 1.67413H0.964844V12.7835H95.5229V1.67413Z" stroke="#3E4451" stroke-width="1.7"/>
<path d="M91.8762 12.7836H4.60938V76.3667H91.8762V12.7836Z" stroke="#3E4451" stroke-width="1.7"/>
<path d="M47.5728 30.3312V55.4888" stroke="#BA0C2F" stroke-width="1.7"/>
<path d="M22.5004 55.4905V43.6616H72.6584V55.4905" stroke="#BA0C2F" stroke-width="1.7"/>
<path d="M48.2493 76.3796V84.8915" stroke="#3E4451" stroke-width="1.7"/>
<path d="M48.249 96.9885C51.5558 96.9885 54.2366 94.2805 54.2366 90.94C54.2366 87.5995 51.5558 84.8914 48.249 84.8914C44.9421 84.8914 42.2614 87.5995 42.2614 90.94C42.2614 94.2805 44.9421 96.9885 48.249 96.9885Z" stroke="#3E4451" stroke-width="1.7"/>
<path d="M28.4636 55.4897H16.5247V67.6234H28.4636V55.4897Z" stroke="#3E4451" stroke-width="1.7"/>
<path d="M53.5497 55.4897H41.6107V67.6234H53.5497V55.4897Z" stroke="#3E4451" stroke-width="1.7"/>
<path d="M78.6206 55.4897H66.6816V67.6234H78.6206V55.4897Z" stroke="#3E4451" stroke-width="1.7"/>
<path d="M60.7319 21.4655H34.4155V30.3311H60.7319V21.4655Z" stroke="#3E4451" stroke-width="1.7"/>
</svg>
