<svg width="86" height="96" viewBox="0 0 86 96" fill="none" xmlns="http://www.w3.org/2000/svg">
<path d="M42.7193 77.5125C42.3112 77.5125 42.0391 77.2386 42.0391 76.8277V75.4582C42.0391 75.0474 42.3112 74.7735 42.7193 74.7735C43.1275 74.7735 43.3996 75.0474 43.3996 75.4582V76.8277C43.3996 77.2386 43.1275 77.5125 42.7193 77.5125ZM42.7193 72.0346C42.3112 72.0346 42.0391 71.7607 42.0391 71.3498V69.9804C42.0391 69.5695 42.3112 69.2956 42.7193 69.2956C43.1275 69.2956 43.3996 69.5695 43.3996 69.9804V71.3498C43.3996 71.7607 43.1275 72.0346 42.7193 72.0346ZM42.7193 66.5567C42.3112 66.5567 42.0391 66.2828 42.0391 65.8719V64.5025C42.0391 64.0916 42.3112 63.8177 42.7193 63.8177C43.1275 63.8177 43.3996 64.0916 43.3996 64.5025V65.8719C43.3996 66.2828 43.1275 66.5567 42.7193 66.5567ZM42.7193 61.0788C42.3112 61.0788 42.0391 60.8049 42.0391 60.3941V59.0246C42.0391 58.6137 42.3112 58.3398 42.7193 58.3398C43.1275 58.3398 43.3996 58.6137 43.3996 59.0246V60.3941C43.3996 60.8049 43.1275 61.0788 42.7193 61.0788Z" fill="#3E4451"/>
<path d="M41.9058 60.5307L40.0011 57.107C38.6406 56.97 37.144 56.6962 35.7835 56.4223L33.0625 58.8873L27.0763 56.1484V52.3138C25.8518 51.4922 24.7634 50.5335 23.8111 49.5749L20.0016 50.2596L16.1922 44.7817L18.0969 41.495C17.5527 40.1255 17.0085 38.893 16.6004 37.3866L12.927 36.1541L12.3828 29.5806L15.7841 27.6633C15.9201 26.2939 16.1922 24.7874 16.4643 23.418L14.1515 20.5421L16.8725 14.5164H20.6819C21.4982 13.2839 22.4506 12.1883 23.4029 11.2297L22.7227 7.39515L28.1647 3.56063L31.4299 5.47789C32.7904 4.9301 34.0148 4.38231 35.5114 3.97147L36.7359 0.273894L43.1302 0L45.0349 3.42368C46.3954 3.56063 47.892 3.83452 49.2525 4.10842L52.1096 1.64337L58.0958 4.38231V8.21683C59.3202 9.03852 60.4086 9.99715 61.361 10.9558L65.1704 10.271L68.9798 15.7489L67.0751 19.0357C67.6193 20.4051 68.1635 21.6377 68.5717 23.1441L72.245 24.3766L72.7893 30.9501L69.388 32.8673C69.2519 34.2368 68.9798 35.7432 68.7077 37.1127L71.1566 39.9886L68.4356 46.0143H64.6262C63.8099 47.2468 62.8576 48.3424 61.9052 49.301L62.5855 53.1355L57.1434 56.97L53.7422 54.7789C52.3817 55.3267 51.1572 55.8745 49.6607 56.2853L48.4362 59.9829L41.9058 60.5307ZM35.2393 53.2725L35.9196 53.5464C37.5522 53.9572 39.3208 54.368 40.9534 54.505H41.6337L43.4023 57.6548L46.3954 57.3809L47.4839 53.9572L48.1641 53.8203C49.7967 53.4094 51.4293 52.8616 53.0619 52.0399L53.7422 51.7661L56.7353 53.5464L59.1842 51.7661L58.5039 48.2054L59.0481 47.6576C60.2726 46.4251 61.361 45.0556 62.3134 43.6862L62.7215 43.0014H66.2588L67.4833 40.2625L65.1704 37.5235L65.4425 36.8388C65.9867 35.1954 66.2588 33.4151 66.3949 31.7718V31.087L69.524 29.3067L69.2519 26.2939L65.8507 25.1983L65.7146 24.5136C65.3065 22.8702 64.7623 21.2268 63.946 19.5835L63.6739 18.8987L65.4425 15.8859L63.946 13.2839L60.4087 13.9686L59.8645 13.4208C58.64 12.1883 57.2795 11.0927 55.919 10.1341L55.2387 9.72325V6.16263L52.5177 4.9301L49.7967 7.2582L49.1165 6.98431C47.4838 6.43652 45.7152 6.16263 44.0826 6.02568H43.4023L41.6337 2.87589L38.6406 3.14979L37.5522 6.57347L36.7359 6.71041C35.1033 7.12126 33.4706 7.66904 31.838 8.49073L31.2938 8.76462L28.3007 6.98431L25.8518 8.76462L26.396 12.3253L25.8518 12.7361C24.6274 13.9686 23.539 15.3381 22.5866 16.7076L22.1784 17.3923H18.6411L17.4167 20.1312L19.7295 22.8702L19.4574 23.5549C18.9132 25.1983 18.6411 26.9786 18.5051 28.622V29.3067L15.3759 31.087L15.648 34.0999L19.0493 35.1954L19.1853 35.8802C19.5935 37.5235 20.1377 39.1669 20.954 40.8103L21.2261 41.495L19.4574 44.5078L21.2261 46.9729L24.7634 46.2882L25.3076 46.836C26.5321 48.0685 27.8926 49.1641 29.2531 50.1227L29.9333 50.5335V54.0942L32.6543 55.3267L35.2393 53.2725Z" fill="#3E4451"/>
<path d="M42.5835 44.2336C34.8286 44.2336 28.5703 37.934 28.5703 30.128C28.5703 22.322 34.8286 16.0225 42.5835 16.0225C50.3384 16.0225 56.5967 22.322 56.5967 30.128C56.4607 37.934 50.2023 44.2336 42.5835 44.2336ZM42.5835 18.8984C36.3252 18.8984 31.2913 23.9654 31.2913 30.265C31.2913 36.5645 36.3252 41.6316 42.5835 41.6316C48.8418 41.6316 53.8757 36.5645 53.8757 30.265C53.8757 23.9654 48.7058 18.8984 42.5835 18.8984Z" fill="#3E4451"/>
<path d="M76.1874 79.2926C75.7793 79.2926 75.5072 79.0187 75.5072 78.6078V77.2384C75.5072 76.8275 75.7793 76.5536 76.1874 76.5536C76.5956 76.5536 76.8677 76.8275 76.8677 77.2384V78.6078C76.8677 79.0187 76.5956 79.2926 76.1874 79.2926ZM9.25057 79.2926C8.84241 79.2926 8.57031 79.0187 8.57031 78.6078V77.2384C8.57031 76.8275 8.84241 76.5536 9.25057 76.5536C9.65872 76.5536 9.93082 76.8275 9.93082 77.2384V78.6078C9.93082 79.0187 9.65872 79.2926 9.25057 79.2926ZM76.1874 73.9516C75.7793 73.9516 75.5072 73.6777 75.5072 73.2669V71.8974C75.5072 71.4866 75.7793 71.2127 76.1874 71.2127C76.5956 71.2127 76.8677 71.4866 76.8677 71.8974V73.2669C76.8677 73.5408 76.5956 73.9516 76.1874 73.9516ZM9.25057 73.8147C8.84241 73.8147 8.57031 73.5408 8.57031 73.1299V71.7605C8.57031 71.3496 8.84241 71.0757 9.25057 71.0757C9.65872 71.0757 9.93082 71.3496 9.93082 71.7605V73.1299C9.93082 73.5408 9.65872 73.8147 9.25057 73.8147ZM76.0514 68.6107H74.6909C74.2827 68.6107 74.0106 68.3368 74.0106 67.9259C74.0106 67.5151 74.2827 67.2412 74.6909 67.2412H76.0514C76.4595 67.2412 76.7316 67.5151 76.7316 67.9259C76.7316 68.3368 76.4595 68.6107 76.0514 68.6107ZM70.6094 68.6107H69.2489C68.8407 68.6107 68.5686 68.3368 68.5686 67.9259C68.5686 67.5151 68.8407 67.2412 69.2489 67.2412H70.6094C71.0175 67.2412 71.2896 67.5151 71.2896 67.9259C71.2896 68.3368 71.0175 68.6107 70.6094 68.6107ZM65.1673 68.6107H63.8068C63.3987 68.6107 63.1266 68.3368 63.1266 67.9259C63.1266 67.5151 63.3987 67.2412 63.8068 67.2412H65.1673C65.5755 67.2412 65.8476 67.5151 65.8476 67.9259C65.8476 68.3368 65.5755 68.6107 65.1673 68.6107ZM59.7253 68.6107H58.3648C57.9567 68.6107 57.6846 68.3368 57.6846 67.9259C57.6846 67.5151 57.9567 67.2412 58.3648 67.2412H59.7253C60.1335 67.2412 60.4056 67.5151 60.4056 67.9259C60.4056 68.3368 60.1335 68.6107 59.7253 68.6107ZM54.2833 68.6107H52.9228C52.5146 68.6107 52.2425 68.3368 52.2425 67.9259C52.2425 67.5151 52.5146 67.2412 52.9228 67.2412H54.2833C54.6914 67.2412 54.9635 67.5151 54.9635 67.9259C54.9635 68.3368 54.6914 68.6107 54.2833 68.6107ZM48.8413 68.6107H47.4808C47.0726 68.6107 46.8005 68.3368 46.8005 67.9259C46.8005 67.5151 47.0726 67.2412 47.4808 67.2412H48.8413C49.2494 67.2412 49.5215 67.5151 49.5215 67.9259C49.5215 68.3368 49.2494 68.6107 48.8413 68.6107ZM43.3992 68.6107H42.0387C41.6306 68.6107 41.3585 68.3368 41.3585 67.9259C41.3585 67.5151 41.6306 67.2412 42.0387 67.2412H43.3992C43.8074 67.2412 44.0795 67.5151 44.0795 67.9259C44.0795 68.3368 43.8074 68.6107 43.3992 68.6107ZM37.9572 68.6107H36.5967C36.1886 68.6107 35.9165 68.3368 35.9165 67.9259C35.9165 67.5151 36.1886 67.2412 36.5967 67.2412H37.9572C38.3654 67.2412 38.6375 67.5151 38.6375 67.9259C38.6375 68.3368 38.3654 68.6107 37.9572 68.6107ZM32.5152 68.6107H31.1547C30.7465 68.6107 30.4744 68.3368 30.4744 67.9259C30.4744 67.5151 30.7465 67.2412 31.1547 67.2412H32.5152C32.9234 67.2412 33.1955 67.5151 33.1955 67.9259C33.1955 68.3368 32.9234 68.6107 32.5152 68.6107ZM27.0732 68.6107H25.7127C25.3045 68.6107 25.0324 68.3368 25.0324 67.9259C25.0324 67.5151 25.3045 67.2412 25.7127 67.2412H27.0732C27.4813 67.2412 27.7534 67.5151 27.7534 67.9259C27.7534 68.3368 27.4813 68.6107 27.0732 68.6107ZM21.6312 68.6107H20.2707C19.8625 68.6107 19.5904 68.3368 19.5904 67.9259C19.5904 67.5151 19.8625 67.2412 20.2707 67.2412H21.6312C22.0393 67.2412 22.3114 67.5151 22.3114 67.9259C22.3114 68.3368 22.0393 68.6107 21.6312 68.6107ZM16.1891 68.6107H14.8286C14.4205 68.6107 14.1484 68.3368 14.1484 67.9259C14.1484 67.5151 14.4205 67.2412 14.8286 67.2412H16.1891C16.5973 67.2412 16.8694 67.5151 16.8694 67.9259C16.8694 68.3368 16.5973 68.6107 16.1891 68.6107ZM10.7471 68.6107H9.38662C8.97846 68.6107 8.70636 68.3368 8.70636 67.9259C8.70636 67.5151 8.97846 67.2412 9.38662 67.2412H10.7471C11.1553 67.2412 11.4274 67.5151 11.4274 67.9259C11.4274 68.3368 11.1553 68.6107 10.7471 68.6107Z" fill="#3E4451"/>
<path d="M76.1889 95.9998C71.019 95.9998 66.9375 91.7545 66.9375 86.6874C66.9375 81.6204 71.1551 77.375 76.1889 77.375C81.2228 77.375 85.4404 81.6204 85.4404 86.6874C85.4404 91.7545 81.3589 95.9998 76.1889 95.9998ZM76.1889 79.977C72.5156 79.977 69.6585 82.9898 69.6585 86.5505C69.6585 90.1111 72.6516 93.1239 76.1889 93.1239C79.7262 93.1239 82.7194 90.1111 82.7194 86.5505C82.7194 82.9898 79.8623 79.977 76.1889 79.977Z" fill="#BA0C2F"/>
<path d="M42.7202 95.9998C37.5503 95.9998 33.4688 91.7545 33.4688 86.6874C33.4688 81.6204 37.6863 77.375 42.7202 77.375C47.7541 77.375 51.9716 81.6204 51.9716 86.6874C51.9716 91.7545 47.8901 95.9998 42.7202 95.9998ZM42.7202 79.977C39.0468 79.977 36.1898 82.9898 36.1898 86.5505C36.1898 90.1111 39.1829 93.1239 42.7202 93.1239C46.3936 93.1239 49.2506 90.1111 49.2506 86.5505C49.2506 82.9898 46.3936 79.977 42.7202 79.977Z" fill="#BA0C2F"/>
<path d="M9.25144 96C4.21757 96 0 91.7547 0 86.5507C0 81.3467 4.21757 77.2383 9.25144 77.2383C14.2853 77.2383 18.5029 81.4836 18.5029 86.5507C18.5029 91.6177 14.4214 96 9.25144 96ZM9.25144 79.9772C5.57807 79.9772 2.72101 82.9901 2.72101 86.5507C2.72101 90.1113 5.71412 93.1242 9.25144 93.1242C12.7888 93.1242 15.7819 90.1113 15.7819 86.5507C15.7819 82.9901 12.9248 79.9772 9.25144 79.9772Z" fill="#BA0C2F"/>
</svg>
