<svg width="69" height="87" viewBox="0 0 69 87" fill="none" xmlns="http://www.w3.org/2000/svg">
<path d="M8.28839 4.28491C7.22685 4.28487 6.20828 4.70633 5.45448 5.4575C4.70067 6.20867 4.27267 7.22872 4.26367 8.29554V78.7045C4.27267 79.7714 4.70067 80.7914 5.45448 81.5426C6.20828 82.2938 7.22685 82.7152 8.28839 82.7152H47.2395C47.8321 82.71 48.4167 82.5755 48.9525 82.321C49.4884 82.0665 49.963 81.6981 50.3433 81.2412L56.7214 73.4256L63.8499 64.6502C64.437 63.9356 64.762 63.0401 64.7709 62.1135V8.29554C64.7619 7.22872 64.3338 6.20867 63.58 5.4575C62.8262 4.70633 61.8077 4.28487 60.7461 4.28491H8.28839V4.28491Z" stroke="#3E4451" stroke-width="2.5" stroke-miterlimit="10"/>
<path d="M49.1152 81.4807V63.5186L64.2591 63.5528" stroke="#3E4451" stroke-width="2.5" stroke-miterlimit="10"/>
<path d="M34.5168 53.8869C41.6185 53.8869 47.3755 48.101 47.3755 40.9637C47.3755 33.8264 41.6185 28.0405 34.5168 28.0405C27.4152 28.0405 21.6582 33.8264 21.6582 40.9637C21.6582 48.101 27.4152 53.8869 34.5168 53.8869Z" stroke="#3E4451" stroke-width="2.5" stroke-miterlimit="10"/>
<path d="M52.8348 24.5442L34.5189 42.9177L20.3301 28.6577" stroke="#BA0C2F" stroke-width="2.5" stroke-miterlimit="10"/>
</svg>
