<svg width="138" height="35" viewBox="0 0 138 35" fill="none" xmlns="http://www.w3.org/2000/svg">
<path d="M19.7669 33.7087V25.2383C19.7669 24.0447 19.4975 23.1399 18.9394 22.5239C18.4005 21.9079 17.6499 21.5998 16.7261 21.5998C15.7831 21.5998 14.9941 21.9849 14.359 22.7356C13.7239 23.4864 13.4159 24.526 13.4159 25.835V33.6894H10.3944V25.219C10.3944 24.0255 10.125 23.1207 9.56684 22.5046C9.02796 21.8886 8.27739 21.5806 7.35361 21.5806C6.41058 21.5806 5.62152 21.9656 4.98642 22.7164C4.35132 23.4672 4.02414 24.5067 4.02414 25.8158V33.6702H1.02185V19.1935H4.04339V20.695C4.15886 20.5603 4.33207 20.387 4.54377 20.1945C4.75547 20.002 5.19812 19.7325 5.87171 19.386C6.5453 19.0587 7.23814 18.8855 7.96946 18.8855C8.54683 18.8855 9.10495 18.9625 9.62457 19.1357C10.1442 19.2897 10.5676 19.5015 10.8948 19.7325C11.2027 19.9828 11.4914 20.2138 11.7223 20.464C11.9533 20.7143 12.1265 20.9068 12.2227 21.0608L12.3767 21.2918C12.4152 21.2341 12.4729 21.1571 12.5691 21.0416C12.6654 20.9261 12.8578 20.7336 13.1657 20.4448C13.4737 20.156 13.8008 19.9058 14.1665 19.694C14.5129 19.4822 14.9941 19.2897 15.5714 19.1165C16.1488 18.9432 16.7454 18.8662 17.3612 18.8662C19.0549 18.8662 20.3828 19.4052 21.3451 20.4833C22.3073 21.5613 22.8077 23.1399 22.8077 25.219V33.6894H19.7669V33.7087Z" fill="white" fill-opacity="0.5"/>
<path d="M38.6658 33.7082H35.6442V32.2066C35.6057 32.2451 35.5288 32.3029 35.4518 32.3991C35.3555 32.4954 35.1631 32.6301 34.8937 32.8419C34.605 33.0344 34.3163 33.2269 33.9891 33.3809C33.6619 33.5349 33.2578 33.6889 32.7574 33.8237C32.257 33.9584 31.7759 34.0162 31.2755 34.0162C29.7936 34.0162 28.5811 33.5927 27.5996 32.7264C26.6181 31.8601 26.137 30.8975 26.137 29.781C26.137 28.5874 26.5219 27.5864 27.2724 26.7778C28.023 25.9693 29.0623 25.4495 30.371 25.2378L35.6635 24.3137C35.6635 23.5437 35.3748 22.9084 34.8167 22.3886C34.2586 21.8689 33.5272 21.5994 32.6419 21.5994C31.8721 21.5994 31.1793 21.7534 30.5442 22.0806C29.9283 22.4079 29.4857 22.7159 29.2547 23.0432L28.8506 23.5629L26.8875 21.5994C26.9453 21.5223 27.0223 21.4261 27.1377 21.2913C27.234 21.1758 27.4649 20.9448 27.8306 20.6368C28.1962 20.3288 28.5619 20.04 28.966 19.809C29.3702 19.5588 29.9091 19.347 30.5634 19.1545C31.237 18.962 31.9106 18.8657 32.6227 18.8657C34.3933 18.8657 35.8367 19.3855 36.9722 20.4443C38.1077 21.4838 38.6658 22.7929 38.6658 24.3137V33.7082ZM31.7182 31.2826C32.9499 31.2826 33.9121 30.9168 34.605 30.1853C35.2978 29.4537 35.6442 28.4142 35.6442 27.0474V26.7586L30.9483 27.5094C30.4095 27.6056 29.9668 27.8366 29.6396 28.1832C29.3125 28.5297 29.1393 28.9532 29.1393 29.4922C29.1393 29.9735 29.3702 30.397 29.8321 30.7628C30.294 31.1093 30.9291 31.2826 31.7182 31.2826Z" fill="white" fill-opacity="0.5"/>
<path d="M49.0961 18.885C49.6349 18.885 50.1738 18.9428 50.6742 19.0775C51.1938 19.2123 51.6365 19.3663 51.9829 19.5588C52.3485 19.7513 52.6565 19.9438 52.9452 20.1556C53.2338 20.3481 53.4263 20.5214 53.5418 20.6369L53.7535 20.8679V12.5322H56.775V33.7082H53.7535V32.0334C53.6188 32.1682 53.4263 32.3607 53.1761 32.5724C52.9259 32.8035 52.387 33.0922 51.5787 33.458C50.7704 33.8238 49.9236 33.997 49.0768 33.997C47.1523 33.997 45.4971 33.2655 44.0922 31.7832C42.6873 30.3201 41.9752 28.5297 41.9752 26.4314C41.9752 24.333 42.6873 22.5427 44.0922 21.0796C45.4971 19.6166 47.1715 18.885 49.0961 18.885ZM46.3247 29.8773C47.21 30.8206 48.23 31.3019 49.3847 31.3019C50.5395 31.3019 51.5402 30.8206 52.4255 29.8773C53.3108 28.934 53.7535 27.7982 53.7535 26.4506C53.7535 25.1031 53.3108 23.9865 52.4255 23.024C51.5402 22.0807 50.5202 21.5994 49.3847 21.5994C48.2493 21.5994 47.2292 22.0807 46.3247 23.024C45.4202 23.9673 44.9968 25.1031 44.9968 26.4506C44.9968 27.7982 45.4394 28.9148 46.3247 29.8773Z" fill="white" fill-opacity="0.5"/>
<path d="M70.5543 20.8686L68.5913 22.8322C68.5143 22.7552 68.3988 22.6397 68.2449 22.5049C68.0909 22.3702 67.783 22.1777 67.3018 21.9659C66.8207 21.7349 66.3396 21.6386 65.8584 21.6386C65.2041 21.6386 64.7037 21.7926 64.3188 22.0814C63.9339 22.3894 63.7414 22.7359 63.7414 23.1402C63.7414 23.5637 63.9146 23.9102 64.2803 24.199C64.646 24.4878 65.1078 24.6995 65.6467 24.8535C66.2048 25.0075 66.7822 25.1808 67.4173 25.4118C68.0524 25.6428 68.649 25.8738 69.2071 26.1626C69.7653 26.4321 70.2272 26.8556 70.5928 27.4332C70.9585 28.0107 71.1317 28.6845 71.1317 29.493C71.1317 30.7443 70.6313 31.8031 69.6113 32.6887C68.6105 33.5742 67.2826 34.017 65.6852 34.017C64.9731 34.017 64.2995 33.9207 63.6644 33.7475C63.0293 33.5742 62.4904 33.3624 62.0863 33.1122C61.6821 32.8619 61.3165 32.6117 61.0085 32.3614C60.7006 32.1111 60.4697 31.8994 60.335 31.7261L60.104 31.4374L62.067 29.4738C62.1633 29.6085 62.3172 29.7818 62.5097 29.9935C62.7021 30.2053 63.1063 30.4748 63.7414 30.8021C64.3765 31.1293 65.0309 31.3026 65.7045 31.3026C66.5128 31.3026 67.1094 31.1293 67.5135 30.8021C67.9177 30.4748 68.1101 30.032 68.1101 29.4738C68.1101 29.0502 67.9369 28.7037 67.5713 28.415C67.2056 28.1262 66.7437 27.9144 66.2048 27.7604C65.6467 27.6064 65.0693 27.4139 64.4342 27.2021C63.7991 26.9711 63.2025 26.7401 62.6444 26.4706C62.0863 26.2011 61.6244 25.7776 61.2587 25.2C60.8931 24.6225 60.7199 23.9295 60.7199 23.1209C60.7199 22.0044 61.201 21.0226 62.1825 20.1756C63.164 19.3285 64.3765 18.8857 65.8584 18.8857C66.4358 18.8857 66.9939 18.9435 67.552 19.0783C68.0909 19.213 68.5528 19.367 68.88 19.5595C69.2264 19.752 69.5343 19.9445 69.7845 20.1563C70.0539 20.3488 70.2271 20.5221 70.3619 20.6376L70.5543 20.8686Z" fill="white" fill-opacity="0.5"/>
<path d="M87.9142 27.5102H76.5786C76.7326 28.5305 77.2329 29.416 78.099 30.1668C78.9458 30.9176 79.9658 31.2833 81.1398 31.2833C81.9866 31.2833 82.7756 31.0908 83.507 30.7058C84.2383 30.3208 84.7579 29.955 85.0658 29.5893L85.5277 29.031L87.4908 30.9946C87.433 31.0716 87.3368 31.1871 87.2213 31.3218C87.1059 31.4566 86.8364 31.7069 86.4323 32.0534C86.0281 32.3999 85.6047 32.6887 85.1428 32.9582C84.6809 33.2277 84.1036 33.4587 83.3722 33.6897C82.6409 33.9207 81.9096 34.017 81.1398 34.017C79.0805 34.017 77.3099 33.2662 75.8088 31.7454C74.3269 30.2438 73.5763 28.415 73.5763 26.2974C73.5763 24.2568 74.3076 22.5242 75.751 21.0611C77.1944 19.6173 78.9458 18.8857 80.9858 18.8857C83.0258 18.8857 84.7194 19.5595 86.0666 20.9071C87.4138 22.2547 88.0874 23.9487 88.0874 25.9893L87.9142 27.5102ZM80.9666 21.4654C79.8696 21.4654 78.965 21.7926 78.2145 22.4279C77.4639 23.0824 76.9635 23.9102 76.7133 24.9305H85.1043C84.9311 23.9102 84.4692 23.0632 83.7379 22.4279C82.9873 21.7926 82.0635 21.4654 80.9666 21.4654Z" fill="white" fill-opacity="0.5"/>
<path d="M98.4813 33.7095H95.4598L89.5514 19.1943H92.7269L96.9609 29.7823L101.195 19.1943H104.37L98.4813 33.7095Z" fill="white" fill-opacity="0.5"/>
<path d="M120.247 27.5102H108.911C109.065 28.5305 109.566 29.416 110.432 30.1668C111.279 30.9176 112.299 31.2833 113.473 31.2833C114.319 31.2833 115.109 31.0908 115.84 30.7058C116.571 30.3208 117.091 29.955 117.399 29.5893L117.861 29.031L119.824 30.9946C119.766 31.0716 119.67 31.1871 119.554 31.3218C119.439 31.4566 119.169 31.7069 118.765 32.0534C118.361 32.3999 117.938 32.6887 117.476 32.9582C117.014 33.2277 116.436 33.4587 115.705 33.6897C114.974 33.9207 114.242 34.017 113.473 34.017C111.413 34.017 109.643 33.2662 108.142 31.7454C106.66 30.2438 105.909 28.415 105.909 26.2974C105.909 24.2568 106.641 22.5242 108.084 21.0611C109.527 19.6173 111.279 18.8857 113.319 18.8857C115.359 18.8857 117.052 19.5595 118.399 20.9071C119.747 22.2547 120.42 23.9487 120.42 25.9893L120.247 27.5102ZM113.28 21.4654C112.183 21.4654 111.279 21.7926 110.528 22.4279C109.778 23.0824 109.277 23.9102 109.027 24.9305H117.418C117.245 23.9102 116.783 23.0632 116.052 22.4279C115.32 21.7926 114.396 21.4654 113.28 21.4654Z" fill="white" fill-opacity="0.5"/>
<path d="M126.733 19.1938V20.6953L126.925 20.5028C127.022 20.4066 127.195 20.2718 127.484 20.06C127.772 19.8675 128.08 19.675 128.388 19.521C128.715 19.367 129.119 19.213 129.62 19.0783C130.12 18.9435 130.621 18.8857 131.121 18.8857C132.872 18.8857 134.296 19.4633 135.374 20.6183C136.471 21.7734 137.01 23.3135 137.01 25.2578V33.7282H133.989V25.2578C133.989 24.2183 133.661 23.352 132.988 22.6589C132.314 21.9659 131.506 21.6194 130.524 21.6194C129.37 21.6194 128.446 21.9851 127.772 22.7359C127.079 23.4867 126.752 24.5263 126.752 25.8546V33.709H123.731V19.1938H126.733Z" fill="white" fill-opacity="0.5"/>
<path d="M29.8121 16.4978C30.7156 16.4978 31.448 15.7651 31.448 14.8614C31.448 13.9577 30.7156 13.2251 29.8121 13.2251C28.9087 13.2251 28.1763 13.9577 28.1763 14.8614C28.1763 15.7651 28.9087 16.4978 29.8121 16.4978Z" fill="white" fill-opacity="0.5"/>
<path d="M35.9504 16.4978C36.8539 16.4978 37.5863 15.7651 37.5863 14.8614C37.5863 13.9577 36.8539 13.2251 35.9504 13.2251C35.047 13.2251 34.3146 13.9577 34.3146 14.8614C34.3146 15.7651 35.047 16.4978 35.9504 16.4978Z" fill="white" fill-opacity="0.5"/>
<path d="M9.53326 9.66304V5.79361C9.53326 5.25458 9.41779 4.83106 9.1676 4.56155C8.91741 4.27278 8.59024 4.13803 8.16684 4.13803C7.74343 4.13803 7.37778 4.31129 7.08909 4.6578C6.80041 5.00432 6.64645 5.46634 6.64645 6.08237V9.66304H5.26078V5.79361C5.26078 5.25458 5.1453 4.83106 4.89511 4.56155C4.64492 4.27278 4.31775 4.13803 3.89435 4.13803C3.47095 4.13803 3.10528 4.31129 2.8166 4.6578C2.52792 5.00432 2.37396 5.46634 2.37396 6.08237V9.66304H0.988281V3.04073H2.37396V3.73376C2.43169 3.67601 2.50867 3.599 2.6049 3.50275C2.70113 3.40649 2.91283 3.29099 3.22076 3.13698C3.52868 2.98297 3.85586 2.90597 4.18303 2.90597C4.45247 2.90597 4.70265 2.94447 4.9336 3.02148C5.16455 3.09848 5.357 3.19473 5.51096 3.29099C5.64568 3.40649 5.7804 3.50275 5.87663 3.61825C5.97285 3.73376 6.04984 3.83001 6.10757 3.88777L6.18456 4.00327C6.2038 3.98402 6.24229 3.94552 6.28078 3.88777C6.31927 3.83001 6.4155 3.75301 6.55022 3.61825C6.68494 3.4835 6.8389 3.36799 7.01211 3.27174C7.16607 3.17548 7.37777 3.07923 7.64721 3.00222C7.91665 2.92522 8.18608 2.88672 8.47476 2.88672C9.24458 2.88672 9.86044 3.13698 10.3031 3.6375C10.7457 4.13803 10.9574 4.85031 10.9574 5.79361V9.66304H9.53326Z" fill="white" fill-opacity="0.5"/>
<path d="M18.1539 9.66277H16.7682V8.96973C16.7489 8.98898 16.7104 9.00823 16.6719 9.06599C16.6335 9.12374 16.5372 9.18149 16.4218 9.2585C16.287 9.35475 16.1523 9.43175 15.9984 9.50876C15.8444 9.58576 15.6712 9.64351 15.4402 9.70127C15.2093 9.75902 14.9976 9.79752 14.7666 9.79752C14.093 9.79752 13.5349 9.60501 13.0923 9.21999C12.6496 8.83498 12.4187 8.37295 12.4187 7.87243C12.4187 7.3334 12.5919 6.87138 12.9383 6.50561C13.2847 6.13985 13.7466 5.90883 14.3432 5.81258L16.7682 5.38906C16.7682 5.04254 16.6335 4.75378 16.3833 4.50352C16.1331 4.27251 15.7867 4.13775 15.3825 4.13775C15.0361 4.13775 14.7089 4.21475 14.4202 4.34951C14.1315 4.50352 13.9391 4.63827 13.8236 4.79228L13.6504 5.02329L12.7459 4.1185C12.7651 4.08 12.8036 4.04149 12.8613 3.98374C12.8998 3.92599 13.0153 3.82973 13.1693 3.69498C13.3425 3.56022 13.5157 3.42546 13.6889 3.30996C13.8814 3.19445 14.1123 3.0982 14.4202 3.00194C14.7282 2.90569 15.0361 2.86719 15.3633 2.86719C16.1716 2.86719 16.8259 3.0982 17.3455 3.57947C17.8652 4.06075 18.1154 4.63827 18.1154 5.35056V9.66277H18.1539ZM14.9783 8.56546C15.5365 8.56546 15.9791 8.3922 16.287 8.06494C16.595 7.73767 16.7682 7.2564 16.7682 6.64037V6.50561L14.6319 6.85213C14.3817 6.89063 14.1893 7.00614 14.0353 7.16014C13.8814 7.31415 13.8044 7.50666 13.8044 7.75692C13.8044 7.96868 13.9198 8.16119 14.1315 8.33445C14.3432 8.46921 14.6319 8.56546 14.9783 8.56546Z" fill="white" fill-opacity="0.5"/>
<path d="M22.9102 2.90689C23.1604 2.90689 23.3914 2.94539 23.6416 3.00314C23.8725 3.0609 24.0842 3.1379 24.2382 3.23416C24.4114 3.33041 24.5461 3.40741 24.6808 3.50367C24.8155 3.59992 24.9118 3.67693 24.9503 3.71543L25.0465 3.81168V0H26.4322V9.66396H25.0465V8.89393C24.9888 8.95168 24.8925 9.04793 24.777 9.14419C24.6616 9.24044 24.4114 9.3752 24.0457 9.54846C23.6801 9.72172 23.2952 9.79872 22.9102 9.79872C22.0442 9.79872 21.2744 9.47146 20.6393 8.79767C20.0042 8.12389 19.677 7.31535 19.677 6.35281C19.677 5.39026 20.0042 4.58172 20.6393 3.90794C21.2744 3.23416 22.0442 2.90689 22.9102 2.90689ZM21.6593 7.91213C22.0634 8.33565 22.5253 8.56666 23.045 8.56666C23.5646 8.56666 24.0265 8.3549 24.4306 7.91213C24.8348 7.48861 25.0272 6.96883 25.0272 6.35281C25.0272 5.73678 24.8348 5.217 24.4306 4.79348C24.0265 4.36996 23.5646 4.13895 23.045 4.13895C22.5253 4.13895 22.0634 4.35071 21.6593 4.79348C21.2551 5.217 21.0434 5.73678 21.0434 6.35281C21.0434 6.96883 21.2551 7.48861 21.6593 7.91213Z" fill="white" fill-opacity="0.5"/>
<path d="M34.629 6.83316H29.4519C29.5289 7.29518 29.7598 7.69945 30.1448 8.04597C30.5297 8.39248 30.9916 8.56574 31.5304 8.56574C31.9153 8.56574 32.281 8.46949 32.6082 8.29623C32.9353 8.12297 33.1855 7.94971 33.3203 7.77645L33.532 7.52619L34.4365 8.43099C34.4173 8.46949 34.3595 8.50799 34.321 8.58499C34.2633 8.64275 34.1478 8.75825 33.9554 8.91226C33.7629 9.06627 33.5704 9.20102 33.378 9.31653C33.1663 9.43203 32.8969 9.54754 32.5697 9.64379C32.2425 9.74005 31.8961 9.7978 31.5497 9.7978C30.6066 9.7978 29.7983 9.45129 29.1247 8.75825C28.4512 8.06522 28.1047 7.23743 28.1047 6.27488C28.1047 5.35084 28.4319 4.5423 29.1055 3.88777C29.7598 3.23324 30.5682 2.88672 31.4919 2.88672C32.4157 2.88672 33.1855 3.19473 33.8014 3.81076C34.4173 4.42679 34.7252 5.19683 34.7252 6.14013L34.629 6.83316ZM31.4534 4.08028C30.9531 4.08028 30.5297 4.23428 30.2025 4.52305C29.8561 4.81181 29.6444 5.19683 29.5097 5.65885H33.3395C33.2625 5.19683 33.0508 4.81181 32.7044 4.52305C32.3965 4.21503 31.9731 4.08028 31.4534 4.08028Z" fill="white" fill-opacity="0.5"/>
<path d="M40.3265 0.384778C40.4805 0.538785 40.5574 0.731294 40.5574 0.981556C40.5574 1.23182 40.4805 1.42433 40.3265 1.57833C40.1725 1.73234 39.9801 1.80935 39.7299 1.80935C39.499 1.80935 39.2873 1.73234 39.1333 1.57833C38.9793 1.42433 38.9023 1.23182 38.9023 0.981556C38.9023 0.731294 38.9793 0.538785 39.1333 0.384778C39.2873 0.23077 39.4797 0.153767 39.7299 0.153767C39.9801 0.134516 40.1725 0.211519 40.3265 0.384778ZM40.4227 3.0414V9.66372H39.0371V3.0414H40.4227Z" fill="white" fill-opacity="0.5"/>
<path d="M43.8081 3.04073V3.73376L43.9043 3.6375C43.9428 3.599 44.039 3.522 44.1545 3.44499C44.2892 3.34874 44.4239 3.27174 44.5779 3.19473C44.7319 3.11773 44.9051 3.05998 45.136 2.98297C45.367 2.92522 45.5979 2.88672 45.8289 2.88672C46.6372 2.88672 47.2723 3.15623 47.7726 3.67601C48.273 4.19578 48.5232 4.90806 48.5232 5.79361V9.66304H47.1375V5.79361C47.1375 5.31233 46.9836 4.92731 46.6757 4.60005C46.3677 4.27278 46.0021 4.11878 45.5402 4.11878C45.0205 4.11878 44.5971 4.29203 44.2892 4.6193C43.9813 4.94657 43.8273 5.42784 43.8273 6.04387V9.62454H42.4417V3.04073H43.8081Z" fill="white" fill-opacity="0.5"/>
</svg>
