<svg width="174" height="33" viewBox="0 0 174 33" fill="none" xmlns="http://www.w3.org/2000/svg">
<path d="M51.4132 15.6035V32.505H47.4271L39.8708 23.4987V32.505H35.126V15.6035H39.1121L46.6684 24.6085V15.6035H51.4132Z" fill="white"/>
<path d="M71.025 28.8106V32.505H57.2822V15.6035H70.7021V19.2966H62.0656V22.1461H69.6711V25.7197H62.0749V28.8106H71.025Z" fill="white"/>
<path d="M79.8065 19.3937H74.5461V15.6035H89.8793V19.3937H84.6456V32.505H79.8065V19.3937Z" fill="white"/>
<path d="M120.569 15.6035L115.016 32.505H109.834L106.556 22.2222L103.132 32.5089H97.9501L92.3975 15.6035H97.3854L100.84 26.3954L104.459 15.6035H108.904L112.359 26.4925L115.946 15.6035H120.569Z" fill="white"/>
<path d="M138.494 28.8106V32.505H124.75V15.6035H138.17V19.2966H129.533V22.1461H137.139V25.7197H129.543V28.8106H138.494Z" fill="white"/>
<path d="M143.628 15.6035H148.47V28.7135H156.637V32.505H143.628V15.6035Z" fill="white"/>
<path d="M160.989 15.6035H165.831V28.7135H173.998V32.505H160.989V15.6035Z" fill="white"/>
<path d="M20.6015 0.558113C19.3349 0.122945 17.9937 -0.060745 16.6549 0.0176057C15.3162 0.0959565 14.0064 0.434804 12.8007 1.01466C12.4842 1.16703 12.1759 1.33562 11.8773 1.51975V1.51319L0 8.77993V14.0276L7.04211 9.71533C6.99853 10.9564 7.18773 12.1946 7.60017 13.3677L0 18.0329V23.2806L9.98253 17.1605C10.8504 18.0341 11.8737 18.7426 13.0013 19.2504L0 27.1652V32.405L22.0976 18.9552C24.3499 17.7614 26.065 15.7748 26.9022 13.39C27.785 10.8633 27.6176 8.09403 26.4366 5.6889C25.2556 3.28377 23.1574 1.4388 20.6015 0.558113ZM22.6331 11.9272C22.2056 13.1468 21.3638 14.1828 20.2507 14.8594L20.2414 14.8436L19.8813 15.0614C19.1953 15.4183 18.4425 15.6324 17.6694 15.6906C16.8962 15.7488 16.1192 15.6499 15.3864 15.3999C13.9607 14.9095 12.7902 13.8808 12.1318 12.5393C11.4735 11.1979 11.381 9.65337 11.8746 8.24467C12.3701 6.83635 13.4115 5.67978 14.7699 5.02892C16.1284 4.37807 17.6929 4.28614 19.12 4.77332C20.5454 5.2637 21.7157 6.29219 22.3743 7.63325C23.0328 8.97432 23.1259 10.5185 22.6331 11.9272Z" fill="white"/>
</svg>
