<svg width="182" height="34" viewBox="0 0 182 34" fill="none" xmlns="http://www.w3.org/2000/svg">
<g clip-path="url(#clip0_2_5)">
<path d="M53.777 16.3213V33.9999H49.6076L41.7039 24.5794V33.9999H36.741V16.3213H40.9103L48.8141 25.7403V16.3213H53.777Z" fill="#3E4451"/>
<path d="M74.2904 30.1356V33.9999H59.9158V16.3213H73.9527V20.1841H64.919V23.1647H72.8742V26.9026H64.9288V30.1356H74.2904Z" fill="#3E4451"/>
<path d="M83.4758 20.2857H77.9736V16.3213H94.0118V20.2857H88.5374V33.9999H83.4758V20.2857Z" fill="#3E4451"/>
<path d="M126.112 16.3213L120.304 33.9999H114.884L111.455 23.2442L107.874 34.004H102.454L96.6458 16.3213H101.863L105.476 27.6093L109.262 16.3213H113.911L117.525 27.7109L121.277 16.3213H126.112Z" fill="#3E4451"/>
<path d="M144.862 30.1356V33.9999H130.486V16.3213H144.522V20.1841H135.489V23.1647H143.444V26.9026H135.499V30.1356H144.862Z" fill="#3E4451"/>
<path d="M150.231 16.3213H155.296V30.0341H163.839V33.9999H150.231V16.3213Z" fill="#3E4451"/>
<path d="M168.39 16.3213H173.455V30.0341H181.998V33.9999H168.39V16.3213Z" fill="#3E4451"/>
<path d="M21.5487 0.584262C20.2239 0.129086 18.821 -0.0630496 17.4207 0.0189035C16.0204 0.100857 14.6503 0.455284 13.3892 1.0618C13.0582 1.22117 12.7358 1.39752 12.4233 1.59012V1.58325L0 9.1841V14.6731L7.36589 10.1625C7.32031 11.4606 7.5182 12.7558 7.9496 13.9828L0 18.8625V24.3515L10.4415 17.95C11.3492 18.8638 12.4196 19.6048 13.5991 20.1359L0 28.4147V33.8954L23.1136 19.8272C25.4694 18.5785 27.2634 16.5006 28.1391 14.0061C29.0625 11.3632 28.8873 8.46665 27.6521 5.95095C26.4168 3.43524 24.2221 1.50544 21.5487 0.584262ZM23.6737 12.4761C23.2265 13.7518 22.3461 14.8354 21.1818 15.5431L21.1721 15.5266L20.7954 15.7544C20.0779 16.1276 19.2904 16.3516 18.4818 16.4125C17.6731 16.4734 16.8603 16.3699 16.0938 16.1084C14.6025 15.5955 13.3783 14.5195 12.6896 13.1164C12.001 11.7132 11.9042 10.0977 12.4206 8.62422C12.9389 7.15115 14.0281 5.94141 15.449 5.26062C16.8699 4.57984 18.5064 4.48369 19.9991 4.99327C21.49 5.5062 22.7141 6.58197 23.403 7.98469C24.0918 9.38742 24.1892 11.0026 23.6737 12.4761Z" fill="#BA0C2E"/>
</g>
<defs>
<clipPath id="clip0_2_5">
<rect width="182" height="34" fill="white"/>
</clipPath>
</defs>
</svg>
