<svg width="70" height="90" viewBox="0 0 70 90" fill="none" xmlns="http://www.w3.org/2000/svg">
<path d="M54.2646 30.2577H15.73C13.8161 30.2577 12.2646 31.8292 12.2646 33.7678V65.1485C12.2646 67.0871 13.8161 68.6586 15.73 68.6586H54.2646C56.1785 68.6586 57.73 67.0871 57.73 65.1485V33.7678C57.73 31.8292 56.1785 30.2577 54.2646 30.2577Z" stroke="#BA0C2F" stroke-width="2.5" stroke-miterlimit="10"/>
<path d="M53.9211 72.5898L35.0004 84.8051L16.0796 72.5898C12.4772 70.2677 9.51188 67.0621 7.45832 63.2701C5.40476 59.478 4.32945 55.2222 4.33204 50.8971V14.9884C4.33044 14.0928 4.66686 13.2305 5.27243 12.578C5.87799 11.9254 6.7069 11.532 7.58946 11.4783H62.4112C63.2938 11.532 64.1227 11.9254 64.7283 12.578C65.3338 13.2305 65.6703 14.0928 65.6687 14.9884V50.8269C65.683 55.1639 64.6132 59.434 62.5591 63.2393C60.505 67.0446 57.5334 70.2614 53.9211 72.5898V72.5898Z" stroke="#3E4451" stroke-width="2.5" stroke-miterlimit="10"/>
<path d="M18.0176 30.2925V21.5874C18.045 17.0408 19.845 12.6893 23.0254 9.48091C26.2059 6.2725 30.5091 4.46706 34.9978 4.45789C39.4984 4.46716 43.8121 6.28224 46.9945 9.5058C50.1769 12.7294 51.9688 17.0988 51.978 21.6576V30.3627" stroke="#BA0C2F" stroke-width="2.5" stroke-miterlimit="10"/>
<path d="M39.3309 45.4913C39.3309 44.3276 38.8746 43.2116 38.0622 42.3888C37.2499 41.5659 36.1481 41.1036 34.9992 41.1036C33.8504 41.1036 32.7486 41.5659 31.9363 42.3888C31.1239 43.2116 30.6676 44.3276 30.6676 45.4913C30.6568 46.167 30.8014 46.836 31.0902 47.4453C31.3789 48.0545 31.8037 48.5873 32.3309 49.0014V55.1442H37.6676V49.0014C38.1948 48.5873 38.6196 48.0545 38.9083 47.4453C39.197 46.836 39.3417 46.167 39.3309 45.4913V45.4913Z" stroke="#3E4451" stroke-width="2.5" stroke-miterlimit="10"/>
</svg>
