<svg width="83" height="82" viewBox="0 0 83 82" fill="none" xmlns="http://www.w3.org/2000/svg">
<path d="M54.087 34.0271L41.0126 46.944L30.8652 36.9189" stroke="#BA0C2F" stroke-width="2.5" stroke-miterlimit="10"/>
<path d="M58.3457 13.6557L64.8504 12.4669L63.7121 6.04053" stroke="#3E4451" stroke-width="2.5" stroke-miterlimit="10"/>
<path d="M64.2687 11.9211C58.6779 7.55428 51.9335 4.86882 44.8403 4.18513C37.747 3.50145 30.6044 4.84839 24.2648 8.06526C20.8105 9.85073 17.6608 12.1601 14.9305 14.9093C8.56542 21.2716 4.77691 29.7151 4.27963 38.6472C3.78234 47.5793 6.61066 56.3824 12.2311 63.396" stroke="#3E4451" stroke-width="2.5" stroke-miterlimit="10"/>
<path d="M24.6531 68.3757L18.1484 69.5325L19.2868 75.9909" stroke="#3E4451" stroke-width="2.5" stroke-miterlimit="10"/>
<path d="M18.7334 70.0788C24.3205 74.4529 31.0656 77.143 38.1606 77.8268C45.2556 78.5107 52.3998 77.1593 58.7373 73.9346C62.1345 72.1868 65.2389 69.9326 67.9415 67.2512C74.372 60.9057 78.2169 52.4462 78.7446 43.4821C79.2723 34.5181 76.4461 25.6752 70.8035 18.636" stroke="#3E4451" stroke-width="2.5" stroke-miterlimit="10"/>
<path d="M64.6886 41.0003C64.6886 47.0764 62.2454 52.9036 57.8966 57.2C53.5478 61.4965 47.6495 63.9102 41.4993 63.9102C10.7971 62.7856 10.7971 19.215 41.4993 18.1226C47.6495 18.1226 53.5478 20.5363 57.8966 24.8327C62.2454 29.1291 64.6886 34.9564 64.6886 41.0324V41.0003Z" stroke="#BA0C2F" stroke-width="2.5" stroke-miterlimit="10" stroke-dasharray="1.02 1.02"/>
</svg>
