<svg width="84" height="86" viewBox="0 0 84 86" fill="none" xmlns="http://www.w3.org/2000/svg">
<path d="M34.161 62.9143C50.3859 62.9143 63.5388 49.7847 63.5388 33.5884C63.5388 17.3921 50.3859 4.26245 34.161 4.26245C17.9361 4.26245 4.7832 17.3921 4.7832 33.5884C4.7832 49.7847 17.9361 62.9143 34.161 62.9143Z" stroke="#3E4451" stroke-width="2.5" stroke-miterlimit="10"/>
<path d="M56.6018 50.5703L78.7035 72.5989C79.2796 73.2275 79.5991 74.0486 79.5991 74.9006C79.5991 75.7526 79.2796 76.5737 78.7035 77.2023L75.2875 80.7828C74.6577 81.3579 73.8351 81.6769 72.9816 81.6769C72.1281 81.6769 71.3056 81.3579 70.6758 80.7828L48.4717 58.7543" stroke="#3E4451" stroke-width="2.5" stroke-miterlimit="10"/>
<path d="M66.9199 77.1677L75.2892 69.1542" stroke="#3E4451" stroke-width="2.5" stroke-miterlimit="10"/>
<path d="M62.378 34.1679C62.378 34.1679 49.7387 47.3305 34.1275 47.3305C18.5163 47.3305 5.91113 34.1679 5.91113 34.1679C5.91113 34.1679 18.5504 21.0394 34.1275 21.0394C49.7045 21.0394 62.378 34.1679 62.378 34.1679Z" stroke="#BA0C2F" stroke-width="2.5" stroke-miterlimit="10"/>
<path d="M34.435 46.9556C41.5664 46.9556 47.3476 41.1846 47.3476 34.0658C47.3476 26.947 41.5664 21.176 34.435 21.176C27.3036 21.176 21.5225 26.947 21.5225 34.0658C21.5225 41.1846 27.3036 46.9556 34.435 46.9556Z" stroke="#BA0C2F" stroke-width="2.5" stroke-miterlimit="10"/>
</svg>
