<svg width="86" height="80" viewBox="0 0 86 80" fill="none" xmlns="http://www.w3.org/2000/svg">
<g clip-path="url(#clip0_51_463)">
<path d="M38.3428 59.8977C54.4297 59.8977 67.4707 46.7779 67.4707 30.5938C67.4707 14.4097 54.4297 1.28992 38.3428 1.28992C22.2559 1.28992 9.21484 14.4097 9.21484 30.5938C9.21484 46.7779 22.2559 59.8977 38.3428 59.8977Z" stroke="#3E4451" stroke-width="2.5" stroke-miterlimit="10"/>
<path d="M62.1514 46.8821L83.131 69.9105C83.6711 70.562 83.9492 71.3934 83.9105 72.2409C83.8719 73.0884 83.5193 73.8907 82.9222 74.4897L79.218 77.9219C78.5704 78.4653 77.744 78.7451 76.9016 78.7063C76.0592 78.6674 75.2618 78.3127 74.6663 77.7119L53.7542 54.6866" stroke="#3E4451" stroke-width="2.5" stroke-miterlimit="10"/>
<path d="M70.8467 74.1258L79.1497 66.1461" stroke="#3E4451" stroke-width="2.5" stroke-miterlimit="10"/>
<path d="M42.4923 20.6116C44.0208 20.6116 45.2599 19.365 45.2599 17.8272C45.2599 16.2895 44.0208 15.0428 42.4923 15.0428C40.9637 15.0428 39.7246 16.2895 39.7246 17.8272C39.7246 19.365 40.9637 20.6116 42.4923 20.6116Z" stroke="#BA0C2F" stroke-width="2.5" stroke-miterlimit="10"/>
<path d="M78.2021 31.0356L84.885 16.9099" stroke="#BA0C2F" stroke-width="2.5" stroke-miterlimit="10"/>
<path d="M44.6221 18.1666L73.8175 32.8016" stroke="#BA0C2F" stroke-width="2.5" stroke-miterlimit="10"/>
<path d="M32.5713 42.9886L41.1443 19.4232" stroke="#BA0C2F" stroke-width="2.5" stroke-miterlimit="10"/>
<path d="M0.40332 35.3137L28.6875 45.2967" stroke="#BA0C2F" stroke-width="2.5" stroke-miterlimit="10"/>
<path d="M31.4903 48.7611C33.0189 48.7611 34.258 47.5145 34.258 45.9768C34.258 44.439 33.0189 43.1924 31.4903 43.1924C29.9618 43.1924 28.7227 44.439 28.7227 45.9768C28.7227 47.5145 29.9618 48.7611 31.4903 48.7611Z" stroke="#BA0C2F" stroke-width="2.5" stroke-miterlimit="10"/>
<path d="M76.3819 36.2985C77.9105 36.2985 79.1496 35.0519 79.1496 33.5141C79.1496 31.9763 77.9105 30.7297 76.3819 30.7297C74.8534 30.7297 73.6143 31.9763 73.6143 33.5141C73.6143 35.0519 74.8534 36.2985 76.3819 36.2985Z" stroke="#BA0C2F" stroke-width="2.5" stroke-miterlimit="10"/>
</g>
<defs>
<clipPath id="clip0_51_463">
<rect width="86" height="80" fill="white"/>
</clipPath>
</defs>
</svg>
