<svg viewBox="0 0 149 27" fill="none" xmlns="http://www.w3.org/2000/svg">
<g clip-path="url(#clip0_2_20)">
<path d="M63.3032 4.95312C61.3789 4.95312 59.3798 5.47403 56.9056 6.78611L58.2801 10.1546C60.4299 8.96564 62.2036 8.44582 63.5034 8.44582C64.978 8.44582 65.6279 8.9907 65.6279 9.70886V9.7579C65.6279 10.2537 65.2276 10.5207 64.2533 10.6297L62.5533 10.803C58.3054 11.2487 56.5559 13.0817 56.5559 15.6077V15.781C56.5559 18.1785 58.555 20.066 61.3789 20.066C63.2384 20.066 64.8537 19.2879 65.8357 17.9148L66.1524 19.8186H70.0011V11.1702C70.0011 7.08361 67.627 4.95857 63.3032 4.95857V4.95312ZM62.9283 16.7727C61.5042 16.7727 60.8291 16.2278 60.8291 15.3865V15.3364C60.8291 14.5932 61.2546 14.0483 62.8084 13.826L63.4825 13.7268C64.4722 13.5906 65.0758 13.4108 65.6323 13.073V14.1671C65.6323 15.8268 64.5821 16.7673 62.9327 16.7673" fill="black"/>
<path d="M27.1148 5.05221L22.1918 0.17334L17.2687 5.05221L19.7176 7.48021L7.37207 19.715L12.2951 24.5939L17.2182 19.715L14.7693 17.2881L27.1148 5.05221Z" fill="#FA582D"/>
<path d="M12.3455 0.173431L-0.000488281 12.4087L4.923 17.288L17.269 5.05274L12.3455 0.173431Z" fill="#FA582D"/>
<path d="M29.5648 7.48057L17.2188 19.7158L22.1422 24.5951L34.4883 12.3599L29.5648 7.48057Z" fill="#FA582D"/>
<path d="M76.874 0H72.5007V19.8141H76.874V0Z" fill="black"/>
<path d="M49.2093 4.95312C47.2211 4.95312 45.6245 5.82494 44.7459 7.19041L44.4105 5.20159H40.5618V24.7672H44.9361V17.9813C45.7674 19.253 47.3432 20.0573 49.2093 20.0573C52.7083 20.0573 55.5574 16.9863 55.5574 12.7558V12.26C55.5574 8.02517 52.7083 4.95857 49.2093 4.95857V4.95312ZM51.0588 12.6371C51.0588 14.8656 49.8844 16.4763 47.9348 16.4763C45.9851 16.4763 44.8107 14.8656 44.8107 12.6371V12.3897C44.8107 10.16 45.9851 8.55044 47.9348 8.55044C49.8844 8.55044 51.0588 10.16 51.0588 12.3897V12.6371Z" fill="black"/>
<path d="M135.88 4.95312C131.406 4.95312 128.257 8.02517 128.257 12.26V12.7504C128.257 16.9863 131.406 20.0573 135.88 20.0573C140.353 20.0573 143.502 16.9907 143.502 12.7504V12.26C143.502 8.02517 140.353 4.95857 135.88 4.95857V4.95312ZM139.004 12.6371C139.004 14.8656 137.829 16.4763 135.88 16.4763C133.93 16.4763 132.756 14.8656 132.756 12.6371V12.3897C132.756 10.16 133.93 8.55044 135.88 8.55044C137.829 8.55044 139.004 10.16 139.004 12.3897V12.6371Z" fill="black"/>
<path d="M147.625 5.84552V5.77577C147.625 5.35512 147.295 5.05762 146.726 5.05762H145.726V7.33087H146.2V6.56803H146.729L147.125 7.33087H147.65L147.162 6.42963C147.295 6.39856 147.413 6.32387 147.497 6.21777C147.581 6.11166 147.626 5.98043 147.625 5.84552ZM146.196 5.47391H146.721C147.02 5.47391 147.146 5.57308 147.146 5.80084V5.8259C147.146 6.02424 147.02 6.15283 146.721 6.15283H146.196V5.47391Z" fill="black"/>
<path d="M146.625 3.83935C146.311 3.83297 146 3.88947 145.709 4.00545C145.418 4.12143 145.154 4.2945 144.932 4.51426C144.71 4.73402 144.535 4.99594 144.418 5.28428C144.301 5.57262 144.244 5.88143 144.251 6.19215C144.251 6.81616 144.501 7.4146 144.946 7.85584C145.391 8.29707 145.995 8.54496 146.625 8.54496C147.255 8.54496 147.858 8.29707 148.304 7.85584C148.749 7.4146 148.999 6.81616 148.999 6.19215C149.005 5.88143 148.948 5.57262 148.831 5.28428C148.714 4.99594 148.54 4.73402 148.318 4.51426C148.096 4.2945 147.832 4.12143 147.541 4.00545C147.25 3.88947 146.938 3.83297 146.625 3.83935ZM146.625 8.22239C145.45 8.22239 144.6 7.38109 144.6 6.19215C144.6 5.00322 145.45 4.16083 146.625 4.16083C147.799 4.16083 148.649 5.00322 148.649 6.19215C148.649 7.38109 147.799 8.22239 146.625 8.22239Z" fill="black"/>
<path d="M115.387 0H111.013V19.8141H115.387V0Z" fill="black"/>
<path d="M124.009 16.4706C122.734 16.4706 122.259 15.8506 122.259 14.5091V8.54478H127.408V5.20138H122.259V1.85254L117.88 2.5064V14.9297C117.88 18.3232 119.63 20.0571 123.129 20.0571C124.678 20.0571 126.503 19.5863 128.002 18.7439L126.753 15.6729C125.874 16.1437 124.654 16.4663 124.004 16.4663" fill="black"/>
<path d="M101.817 4.95312C99.8924 4.95312 97.8933 5.47403 95.4191 6.78611L96.7937 10.1546C98.9424 8.96564 100.717 8.44582 102.017 8.44582C103.492 8.44582 104.14 8.9907 104.14 9.70886V9.7579C104.14 10.2537 103.741 10.5207 102.766 10.6297L101.067 10.803C96.8179 11.2487 95.0684 13.0817 95.0684 15.6077V15.781C95.0684 18.1785 97.0686 20.066 99.8924 20.066C101.751 20.066 103.367 19.2879 104.349 17.9148L104.666 19.8186H108.515V11.1702C108.515 7.08361 106.141 4.95857 101.817 4.95857V4.95312ZM101.442 16.7673C100.012 16.7673 99.3426 16.2224 99.3426 15.3811V15.3309C99.3426 14.5877 99.7671 14.0428 101.322 13.8205L101.997 13.7214C102.987 13.5851 103.589 13.4053 104.146 13.0675V14.1671C104.146 15.8268 103.097 16.7673 101.447 16.7673" fill="black"/>
<path d="M86.4461 4.95312C81.9717 4.95312 78.8235 8.02517 78.8235 12.26V12.7504C78.8235 16.9863 81.9717 20.0573 86.4461 20.0573C90.9205 20.0573 94.0677 16.9863 94.0677 12.7558V12.26C94.0677 8.02517 90.9194 4.95857 86.4461 4.95857V4.95312ZM89.5691 12.6371C89.5691 14.8656 88.3947 16.4763 86.4461 16.4763C84.4976 16.4763 83.3221 14.8656 83.3221 12.6371V12.3897C83.3221 10.16 84.4965 8.55044 86.4461 8.55044C88.3958 8.55044 89.5691 10.16 89.5691 12.3897V12.6371Z" fill="black"/>
<path d="M104.348 23.3276H105.468L107.015 25.3492H107.031V23.3276H108.059V26.8923H106.975L105.391 24.8195H105.376V26.8923H104.348V23.3276Z" fill="black"/>
<path d="M109.426 23.3276H112.571L112.613 24.1929H110.501V24.6822H112.16V25.4712H110.501V26.027H112.675L112.633 26.8923H109.426V23.3276Z" fill="black"/>
<path d="M114.864 24.2441H113.604L113.645 23.3276H117.165L117.207 24.2441H115.948V26.8923H114.864V24.2441Z" fill="black"/>
<path d="M118.076 23.3276H119.226L119.812 25.8025H119.869L120.629 23.3276H121.684L122.428 25.8025H122.485L123.06 23.3276H124.16L123.214 26.8923H121.801L121.144 24.7432H121.113L120.444 26.8923H119.026L118.076 23.3276Z" fill="black"/>
<path d="M124.95 25.1103C124.95 23.9487 125.746 23.2207 127.005 23.2207C128.264 23.2207 129.061 23.9487 129.061 25.1103C129.061 26.272 128.264 27 127.005 27C125.746 27 124.95 26.2709 124.95 25.1103ZM127.987 25.1103C127.987 24.4935 127.628 24.1296 127.005 24.1296C126.383 24.1296 126.023 24.4968 126.023 25.1103C126.023 25.7239 126.384 26.0911 127 26.0911C127.615 26.0911 127.989 25.7239 127.989 25.1103" fill="black"/>
<path d="M130.229 23.3276H132.326C133.281 23.3276 133.748 23.7755 133.748 24.6059C133.748 25.1759 133.512 25.5638 133.05 25.7469L133.902 26.8923H132.68L132.02 25.9551H131.311V26.8923H130.232L130.229 23.3276ZM132.186 25.1203C132.545 25.1203 132.674 24.922 132.674 24.6517C132.674 24.3814 132.545 24.1886 132.186 24.1886H131.306V25.1203H132.186Z" fill="black"/>
<path d="M135.152 23.3276H136.231V24.6419H136.673L137.726 23.3276H138.939L138.944 23.332L137.568 25.0386L139.021 26.8879L139.016 26.8923H137.757L136.668 25.5224H136.231V26.8923H135.152V23.3276Z" fill="black"/>
<path d="M139.848 26.6581V25.6773C140.371 25.9542 140.952 26.1075 141.545 26.1252C141.93 26.1252 142.125 26.0337 142.125 25.8561C142.125 25.6784 141.997 25.6316 141.226 25.5095C140.382 25.3766 139.823 25.127 139.823 24.4088C139.823 23.7419 140.413 23.2275 141.57 23.2275C142.049 23.2298 142.522 23.3269 142.962 23.5131V24.4808C142.514 24.2325 142.011 24.0963 141.497 24.0841C141.086 24.0841 140.921 24.1811 140.921 24.3435C140.921 24.5527 141.173 24.5734 141.801 24.6802C142.644 24.823 143.204 25.0562 143.204 25.8103C143.204 26.3966 142.764 26.9818 141.493 26.9818C140.927 26.9815 140.366 26.8704 139.844 26.6548" fill="black"/>
</g>
<defs>
<clipPath id="clip0_2_20">
<rect width="149" height="27" fill="white"/>
</clipPath>
</defs>
</svg>
