<svg width="77" height="80" viewBox="0 0 77 80" fill="none" xmlns="http://www.w3.org/2000/svg">
<path d="M55.0569 52.9031L53.874 52.7956C43.5508 51.7203 32.69 51.7203 22.3668 52.7956L21.1839 52.9031L20.8613 21.7203L22.0442 21.8279C32.3674 22.9031 43.2282 22.9031 53.5514 21.8279L54.7343 21.7203L55.0569 52.9031ZM37.9591 49.7848C42.9056 49.7848 47.9597 49.9999 52.9062 50.5375L52.6911 24.1935C43.0131 25.1612 32.905 25.1612 23.1195 24.1935L23.3346 50.5375C28.1736 50.1074 33.0126 49.7848 37.9591 49.7848Z" fill="#BA0C2F"/>
<path d="M75.9179 56.4517L74.52 56.1291C69.681 54.8388 64.5194 53.8711 59.1427 53.2259L58.1749 53.1184L58.0674 21.7205L59.0352 21.613C64.4118 20.8603 69.681 19.8926 74.6275 18.6022L76.0254 18.2797V56.4517H75.9179ZM60.5406 51.1829C65.1646 51.828 69.5734 52.6883 73.8748 53.7635V20.9678C69.5734 22.0431 65.057 22.9033 60.3256 23.5485L60.5406 51.1829Z" fill="#BA0C2F"/>
<path d="M0 56.4517V18.2797L1.39793 18.6022C6.23692 19.8926 11.3985 20.8603 16.7752 21.5055L17.743 21.613L18.0656 53.0108L17.0978 53.1184C11.6136 53.8711 6.45199 54.8388 1.50546 56.1291L0 56.4517ZM2.15066 20.9678V53.7635C6.45199 52.6883 10.9684 51.828 15.6998 51.1829L15.4848 23.5485C10.8608 22.9033 6.34445 22.0431 2.15066 20.9678Z" fill="#BA0C2F"/>
<path d="M60.4336 80.0001H15.5923C13.2266 80.0001 11.291 78.0647 11.291 75.6991V57.4195H13.4417V75.6991C13.4417 76.8819 14.4095 77.8496 15.5923 77.8496H60.4336C61.6165 77.8496 62.5843 76.8819 62.5843 75.6991V57.4195H64.735V75.6991C64.735 78.0647 62.7994 80.0001 60.4336 80.0001Z" fill="#3E4451"/>
<path d="M64.735 17.6344H62.5843V4.30107C62.5843 3.11828 61.6165 2.15054 60.4336 2.15054H15.5923C14.4095 2.15054 13.4417 3.11828 13.4417 4.30107V17.6344H11.291V4.30107C11.291 1.93548 13.2266 0 15.5923 0H60.4336C62.7994 0 64.735 1.93548 64.735 4.30107V17.6344Z" fill="#3E4451"/>
<path d="M63.6595 10.8602H12.3662V13.0107H63.6595V10.8602Z" fill="#3E4451"/>
<path d="M63.6595 62.3657H12.3662V64.5162H63.6595V62.3657Z" fill="#3E4451"/>
<path d="M44.5192 70.3224H31.6152V72.473H44.5192V70.3224Z" fill="#BA0C2F"/>
<path d="M69.1444 37.8494H68.069C67.7464 37.8494 67.5314 37.6344 67.5314 37.3118C67.5314 36.9892 67.7464 36.7742 68.069 36.7742H69.1444C69.467 36.7742 69.682 36.9892 69.682 37.3118C69.682 37.6344 69.467 37.8494 69.1444 37.8494ZM64.843 37.8494H63.7677C63.4451 37.8494 63.23 37.6344 63.23 37.3118C63.23 36.9892 63.4451 36.7742 63.7677 36.7742H64.843C65.1656 36.7742 65.3807 36.9892 65.3807 37.3118C65.3807 37.6344 65.1656 37.8494 64.843 37.8494ZM60.5417 37.8494H59.4664C59.1438 37.8494 58.9287 37.6344 58.9287 37.3118C58.9287 36.9892 59.1438 36.7742 59.4664 36.7742H60.5417C60.8643 36.7742 61.0794 36.9892 61.0794 37.3118C61.0794 37.6344 60.8643 37.8494 60.5417 37.8494Z" fill="#BA0C2F"/>
<path d="M67.1004 41.7203L66.3477 40.9676L70.2189 37.3117L66.3477 33.7633L67.1004 33.0106L71.8319 37.3117L67.1004 41.7203Z" fill="#BA0C2F"/>
<path d="M16.9901 37.8494H15.9147C15.5921 37.8494 15.3771 37.6344 15.3771 37.3118C15.3771 36.9892 15.5921 36.7742 15.9147 36.7742H16.9901C17.3127 36.7742 17.5277 36.9892 17.5277 37.3118C17.5277 37.6344 17.3127 37.8494 16.9901 37.8494ZM12.6887 37.8494H11.6134C11.2908 37.8494 11.0757 37.6344 11.0757 37.3118C11.0757 36.9892 11.2908 36.7742 11.6134 36.7742H12.6887C13.0113 36.7742 13.2264 36.9892 13.2264 37.3118C13.2264 37.6344 13.0113 37.8494 12.6887 37.8494ZM8.38741 37.8494H7.31208C6.98948 37.8494 6.77441 37.6344 6.77441 37.3118C6.77441 36.9892 6.98948 36.7742 7.31208 36.7742H8.38741C8.71001 36.7742 8.92508 36.9892 8.92508 37.3118C8.92508 37.6344 8.71001 37.8494 8.38741 37.8494Z" fill="#BA0C2F"/>
<path d="M9.35548 33.0106L10.1082 33.7633L6.23702 37.3117L10.1082 40.9676L9.35548 41.7203L4.62402 37.3117L9.35548 33.0106Z" fill="#BA0C2F"/>
<path d="M53.3355 37.8494H52.2602C51.9376 37.8494 51.7225 37.6344 51.7225 37.3118C51.7225 36.9892 51.9376 36.7742 52.2602 36.7742H53.3355C53.6581 36.7742 53.8732 36.9892 53.8732 37.3118C53.8732 37.6344 53.6581 37.8494 53.3355 37.8494ZM49.0342 37.8494H47.9589C47.6363 37.8494 47.4212 37.6344 47.4212 37.3118C47.4212 36.9892 47.6363 36.7742 47.9589 36.7742H49.0342C49.3568 36.7742 49.5719 36.9892 49.5719 37.3118C49.5719 37.6344 49.3568 37.8494 49.0342 37.8494ZM44.7329 37.8494H43.6576C43.335 37.8494 43.1199 37.6344 43.1199 37.3118C43.1199 36.9892 43.335 36.7742 43.6576 36.7742H44.7329C45.0555 36.7742 45.2706 36.9892 45.2706 37.3118C45.2706 37.6344 45.0555 37.8494 44.7329 37.8494ZM40.4316 37.8494H39.3562C39.0336 37.8494 38.8186 37.6344 38.8186 37.3118C38.8186 36.9892 39.0336 36.7742 39.3562 36.7742H40.4316C40.7542 36.7742 40.9692 36.9892 40.9692 37.3118C40.9692 37.6344 40.7542 37.8494 40.4316 37.8494ZM36.1302 37.8494H35.0549C34.7323 37.8494 34.5173 37.6344 34.5173 37.3118C34.5173 36.9892 34.7323 36.7742 35.0549 36.7742H36.1302C36.4528 36.7742 36.6679 36.9892 36.6679 37.3118C36.6679 37.6344 36.4528 37.8494 36.1302 37.8494ZM31.8289 37.8494H30.7536C30.431 37.8494 30.2159 37.6344 30.2159 37.3118C30.2159 36.9892 30.431 36.7742 30.7536 36.7742H31.8289C32.1515 36.7742 32.3666 36.9892 32.3666 37.3118C32.3666 37.6344 32.1515 37.8494 31.8289 37.8494ZM27.5276 37.8494H26.4523C26.1297 37.8494 25.9146 37.6344 25.9146 37.3118C25.9146 36.9892 26.1297 36.7742 26.4523 36.7742H27.5276C27.8502 36.7742 28.0653 36.9892 28.0653 37.3118C28.0653 37.6344 27.8502 37.8494 27.5276 37.8494ZM23.2263 37.8494H22.1509C21.8283 37.8494 21.6133 37.6344 21.6133 37.3118C21.6133 36.9892 21.8283 36.7742 22.1509 36.7742H23.2263C23.5489 36.7742 23.7639 36.9892 23.7639 37.3118C23.7639 37.6344 23.5489 37.8494 23.2263 37.8494Z" fill="#BA0C2F"/>
</svg>
