<svg width="82" height="89" viewBox="0 0 82 89" fill="none" xmlns="http://www.w3.org/2000/svg">
<path d="M29.4449 8.29675C32.6108 7.71902 35.8237 7.43196 39.0429 7.43922C54.4748 7.43922 66.971 13.703 66.971 21.4208C66.971 29.1386 54.4748 35.4396 39.0429 35.4396C23.6109 35.4396 11.1523 29.1759 11.1523 21.4208" stroke="#3E4451" stroke-width="2.5" stroke-miterlimit="10"/>
<path d="M66.971 36.8945C66.971 44.6123 54.4748 50.9134 39.0429 50.9134C23.6109 50.9134 11.1523 44.6123 11.1523 36.8945" stroke="#3E4451" stroke-width="2.5" stroke-miterlimit="10"/>
<path d="M66.971 54.3806C66.971 62.1357 54.4748 68.3994 39.0429 68.3994C23.6109 68.3994 11.1523 62.1357 11.1523 54.3806" stroke="#3E4451" stroke-width="2.5" stroke-miterlimit="10"/>
<path d="M46.9847 84.4688C44.3549 84.8484 41.7004 85.0353 39.0428 85.0281C23.6485 85.0281 11.1523 78.7644 11.1523 71.0093" stroke="#3E4451" stroke-width="2.5" stroke-miterlimit="10"/>
<path d="M11.1523 21.4585V71.4938" stroke="#3E4451" stroke-width="2.5" stroke-miterlimit="10"/>
<path d="M66.9707 21.4585V69.6669" stroke="#3E4451" stroke-width="2.5" stroke-miterlimit="10"/>
<path d="M45.5905 80.1812C45.5601 79.251 45.7947 78.3311 46.2672 77.5267C46.7398 76.7223 47.4314 76.0659 48.2629 75.6325C48.9355 75.327 49.6684 75.1741 50.4083 75.1851C51.3673 75.1933 52.3053 75.4643 53.1183 75.9681C53.206 73.6733 54.1883 71.5015 55.8589 69.9093C57.5294 68.317 59.7581 67.4284 62.0764 67.43C63.7917 67.4478 65.4651 67.9573 66.8945 68.8968C68.3238 69.8363 69.448 71.1657 70.1311 72.7243C70.9639 72.254 71.8893 71.9672 72.8442 71.8836C73.799 71.7999 74.7609 71.9214 75.6641 72.2397C77.0559 72.7814 78.2463 73.7334 79.0743 74.967C79.9022 76.2006 80.3279 77.6562 80.2937 79.1372V79.1372C80.2937 80.2322 80.0753 81.3164 79.6512 82.3276C79.227 83.3388 78.6054 84.257 77.822 85.0296C77.0386 85.8021 76.1088 86.4138 75.0861 86.8294C74.0634 87.2451 72.9679 87.4565 71.8625 87.4516H52.7043C51.7508 87.4521 50.8069 87.2626 49.9288 86.8946C49.0506 86.5266 48.2561 85.9874 47.5925 85.3092C46.9289 84.631 46.4097 83.8275 46.0658 82.9466C45.7219 82.0656 45.5602 81.1252 45.5905 80.1812V80.1812Z" stroke="#BA0C2F" stroke-width="2.5" stroke-miterlimit="10"/>
<path d="M36.4092 14.449C36.4422 13.5134 36.2092 12.5873 35.7367 11.7765C35.2642 10.9657 34.5713 10.3027 33.7368 9.86306C33.0702 9.53178 32.337 9.35338 31.5914 9.34109C30.6261 9.34374 29.6832 9.62913 28.8813 10.1613C28.8032 7.85999 27.825 5.67884 26.1535 4.07869C24.4819 2.47853 22.2478 1.58468 19.9233 1.58598C18.2368 1.58099 16.5837 2.05168 15.1574 2.94301C13.731 3.83434 12.5903 5.10948 11.8685 6.61934C11.0358 6.149 10.1104 5.8622 9.15548 5.77855C8.2006 5.6949 7.23874 5.81637 6.33558 6.13465C4.93757 6.67858 3.7429 7.63632 2.91442 8.87734C2.08594 10.1184 1.66395 11.5823 1.70599 13.0695C1.701 14.1676 1.91568 15.2559 2.33762 16.2714C2.75956 17.2869 3.3804 18.2095 4.1643 18.986C4.9482 19.7625 5.87962 20.3775 6.90478 20.7955C7.92994 21.2134 9.02854 21.4261 10.1371 21.4212H29.2954C30.2246 21.4261 31.1458 21.2496 32.0062 20.9019C32.8666 20.5542 33.6494 20.0419 34.31 19.3945C34.9706 18.7471 35.496 17.9771 35.8561 17.1286C36.2163 16.28 36.4042 15.3695 36.4092 14.449V14.449Z" stroke="#BA0C2F" stroke-width="2.5" stroke-miterlimit="10"/>
</svg>
