<svg width="71" height="95" viewBox="0 0 71 95" fill="none" xmlns="http://www.w3.org/2000/svg">
<path d="M11.5498 69.7377C11.5498 69.7377 20.2682 64.4791 22.9679 63.3359C23.5165 63.1081 24.1025 62.9916 24.6938 62.9929H46.0252C47.248 62.9929 48.4209 63.4932 49.2876 64.3844C50.1543 65.2756 50.6441 66.4852 50.65 67.7485C50.6441 69.0119 50.1543 70.2215 49.2876 71.1127C48.4209 72.0039 47.248 72.5042 46.0252 72.5042H32.7484" stroke="#3E4451" stroke-width="2" stroke-miterlimit="10"/>
<path d="M24.583 82.0154H53.2645C53.708 82.0083 54.1449 81.9025 54.546 81.7052C54.9472 81.5078 55.3033 81.2234 55.5906 80.8709L68.4062 66.3128C72.1807 62.0095 66.2118 55.5316 62.1959 59.4458L50.1703 70.7077" stroke="#3E4451" stroke-width="2" stroke-miterlimit="10"/>
<path d="M20.3947 93.9045L28.1374 86.2851L8.65017 65.3708L0.885742 72.9902" stroke="#3E4451" stroke-width="2" stroke-miterlimit="10"/>
<path d="M49.1425 19.17H22.2453C20.919 19.17 19.8438 20.2571 19.8438 21.5981V43.4797C19.8438 44.8207 20.919 45.9078 22.2453 45.9078H49.1425C50.4688 45.9078 51.544 44.8207 51.544 43.4797V21.5981C51.544 20.2571 50.4688 19.17 49.1425 19.17Z" stroke="#BA0C2F" stroke-width="2" stroke-miterlimit="10"/>
<path d="M48.5011 48.6215L35.3068 57.1913L22.1124 48.6215C19.6037 46.9986 17.5386 44.7642 16.1069 42.1237C14.6753 39.4832 13.9229 36.5213 13.9189 33.51V8.57191C13.9189 7.95824 14.1601 7.3697 14.5892 6.93577C15.0184 6.50184 15.6005 6.25806 16.2075 6.25806H54.3213C54.9282 6.25806 55.5103 6.50184 55.9395 6.93577C56.3687 7.3697 56.6098 7.95824 56.6098 8.57191V33.51C56.615 36.5134 55.8755 39.4701 54.459 42.1099C53.0425 44.7498 50.9941 46.9885 48.5011 48.6215Z" stroke="#3E4451" stroke-width="2" stroke-miterlimit="10"/>
<path d="M23.3975 19.1705V13.1145C23.4049 9.94501 24.6555 6.90794 26.8748 4.66946C29.094 2.43098 32.1008 1.17388 35.2356 1.17389V1.17389C38.3704 1.17388 41.3772 2.43098 43.5965 4.66946C45.8158 6.90794 47.0663 9.94501 47.0738 13.1145V19.1705" stroke="#BA0C2F" stroke-width="2" stroke-miterlimit="10"/>
<path d="M38.4758 30.2587C38.4805 29.7378 38.3535 29.2242 38.1068 28.7668C37.8601 28.3095 37.5018 27.9235 37.066 27.6454C36.6302 27.3674 36.1314 27.2067 35.6168 27.1784C35.1023 27.1501 34.5892 27.2553 34.1261 27.4839C33.6631 27.7126 33.2656 28.057 32.9713 28.4847C32.677 28.9123 32.4957 29.409 32.4446 29.9274C32.3935 30.4458 32.4743 30.9688 32.6794 31.4468C32.8844 31.9247 33.2069 32.3418 33.6162 32.6583V36.9146H37.2891V32.744C37.6642 32.4513 37.9667 32.0744 38.1726 31.643C38.3786 31.2116 38.4824 30.7377 38.4758 30.2587V30.2587Z" stroke="#3E4451" stroke-width="2" stroke-miterlimit="10"/>
</svg>
