<svg width="90" height="91" viewBox="0 0 90 91" fill="none" xmlns="http://www.w3.org/2000/svg">
<path d="M28.6836 44.0688C36.5774 44.0688 42.9766 37.6767 42.9766 29.7917C42.9766 21.9067 36.5774 15.5146 28.6836 15.5146C20.7898 15.5146 14.3906 21.9067 14.3906 29.7917C14.3906 37.6767 20.7898 44.0688 28.6836 44.0688Z" stroke="#BA0C2F" stroke-width="2.5" stroke-miterlimit="10"/>
<path d="M32.9244 4.93975C33.1287 5.62933 33.498 6.25885 34.0005 6.77387C34.5029 7.2889 35.1234 7.67394 35.8083 7.8957C36.4931 8.11747 37.2217 8.16928 37.9311 8.04667C38.6405 7.92406 39.3094 7.63073 39.8798 7.19201V7.19201C40.6388 6.608 41.5668 6.28531 42.5247 6.27226C43.4827 6.25922 44.4191 6.55652 45.1938 7.11965C45.9684 7.68279 46.5396 8.48144 46.8217 9.396C47.1038 10.3106 47.0818 11.2918 46.7588 12.1928C46.5149 12.8674 46.4402 13.5913 46.5412 14.3014C46.6421 15.0115 46.9157 15.6861 47.3381 16.2661C47.7604 16.8461 48.3185 17.314 48.9637 17.6287C49.6089 17.9435 50.3214 18.0955 51.0391 18.0716C52.0113 18.0247 52.972 18.2988 53.7728 18.8516C54.5736 19.4043 55.1701 20.205 55.47 21.13C55.77 22.0549 55.7569 23.0529 55.4326 23.9696C55.1084 24.8864 54.4911 25.6711 53.676 26.2026V26.2026C53.077 26.6041 52.586 27.1466 52.2466 27.7824C51.9071 28.4182 51.7296 29.1277 51.7296 29.8483C51.7296 30.5688 51.9071 31.2783 52.2466 31.9141C52.586 32.5499 53.077 33.0924 53.676 33.4939V33.4939C54.422 34.0494 54.974 34.8252 55.254 35.7116C55.534 36.5979 55.5277 37.5497 55.236 38.4323C54.9443 39.3148 54.382 40.0833 53.6288 40.6289C52.8755 41.1745 51.9695 41.4696 51.0391 41.4722V41.4722C50.3199 41.4551 49.6073 41.6131 48.9629 41.9325C48.3184 42.2519 47.7615 42.7232 47.3402 43.3056C46.9188 43.8881 46.6457 44.5642 46.5445 45.2757C46.4432 45.9871 46.5167 46.7125 46.7588 47.3892C47.0683 48.2878 47.0802 49.262 46.7927 50.1679C46.5052 51.0737 45.9336 51.8632 45.1624 52.4196C44.3911 52.976 43.4612 53.2698 42.5099 53.2575C41.5586 53.2453 40.6365 52.9278 39.8798 52.3518C39.3094 51.9131 38.6405 51.6197 37.9311 51.4971C37.2217 51.3745 36.4931 51.4263 35.8083 51.6481C35.1234 51.8699 34.5029 52.2549 34.0005 52.7699C33.498 53.285 33.1287 53.9145 32.9244 54.6041V54.6041C32.6482 55.513 32.0868 56.3091 31.3229 56.8749C30.5591 57.4407 29.6333 57.7462 28.6824 57.7462C27.7314 57.7462 26.8057 57.4407 26.0418 56.8749C25.278 56.3091 24.7165 55.513 24.4403 54.6041V54.6041C24.2361 53.9145 23.8667 53.285 23.3643 52.7699C22.8618 52.2549 22.2413 51.8699 21.5565 51.6481C20.8716 51.4263 20.143 51.3745 19.4336 51.4971C18.7242 51.6197 18.0554 51.9131 17.4849 52.3518V52.3518C16.7306 52.9202 15.8142 53.2329 14.8694 53.2445C13.9246 53.256 13.0009 52.9657 12.2329 52.4159C11.4649 51.8661 10.8928 51.0856 10.6001 50.1882C10.3075 49.2908 10.3095 48.3235 10.6059 47.4273V47.4273C10.8559 46.7486 10.9356 46.019 10.838 45.3023C10.7405 44.5856 10.4687 43.9037 10.0464 43.3162C9.62416 42.7287 9.06425 42.2535 8.41564 41.932C7.76703 41.6106 7.04947 41.4527 6.32568 41.4722V41.4722C5.375 41.4925 4.443 41.2068 3.66728 40.6575C2.89155 40.1081 2.31322 39.3242 2.01767 38.4214C1.72211 37.5186 1.725 36.5448 2.0259 35.6438C2.3268 34.7428 2.90977 33.9623 3.68874 33.4175V33.4175C4.28778 33.0161 4.7787 32.4735 5.11815 31.8377C5.45761 31.2019 5.63517 30.4925 5.63517 29.7719C5.63517 29.0513 5.45761 28.3419 5.11815 27.7061C4.7787 27.0703 4.28778 26.5277 3.68874 26.1263V26.1263C2.89215 25.5878 2.29251 24.8051 1.98029 23.8964C1.66807 22.9876 1.66021 22.0021 1.95789 21.0885C2.25558 20.1749 2.84266 19.3828 3.63055 18.8317C4.41844 18.2806 5.3644 18.0004 6.32568 18.0334V18.0334C7.03873 18.055 7.74632 17.9028 8.38733 17.5901C9.02834 17.2774 9.58351 16.8135 10.0049 16.2385C10.4263 15.6635 10.7012 14.9947 10.8059 14.2898C10.9106 13.585 10.842 12.8652 10.6059 12.1928C10.2545 11.2873 10.2109 10.2915 10.4818 9.35874C10.7527 8.42601 11.323 7.60809 12.105 7.03096C12.8869 6.45382 13.8371 6.14948 14.8093 6.16478C15.7814 6.18009 16.7216 6.5142 17.4849 7.11566C18.0554 7.55438 18.7242 7.84773 19.4336 7.97033C20.143 8.09294 20.8716 8.04112 21.5565 7.81935C22.2413 7.59759 22.8618 7.21255 23.3643 6.69753C23.8667 6.1825 24.2361 5.55298 24.4403 4.8634C24.7246 3.95685 25.2932 3.16564 26.0622 2.60664C26.8311 2.04763 27.7597 1.75047 28.7107 1.75903C29.6617 1.76759 30.5848 2.08142 31.3435 2.65417C32.1023 3.22692 32.6565 4.02823 32.9244 4.93975Z" stroke="#3E4451" stroke-width="2.5" stroke-miterlimit="10"/>
<path d="M68.3524 77.8907C73.5446 77.8907 77.7537 73.6863 77.7537 68.4999C77.7537 63.3135 73.5446 59.1091 68.3524 59.1091C63.1603 59.1091 58.9512 63.3135 58.9512 68.4999C58.9512 73.6863 63.1603 77.8907 68.3524 77.8907Z" stroke="#BA0C2F" stroke-width="2.5" stroke-miterlimit="10"/>
<path d="M71.4846 50.1003C71.6292 50.6121 71.8975 51.0806 72.266 51.4645C72.6344 51.8484 73.0917 52.1359 73.5975 52.3018C74.1033 52.4677 74.6422 52.5069 75.1668 52.4159C75.6913 52.3249 76.1854 52.1065 76.6056 51.78V51.78C77.1752 51.329 77.8784 51.0793 78.6052 51.0701C79.332 51.0608 80.0413 51.2925 80.6223 51.7288C81.2032 52.1651 81.623 52.7814 81.8159 53.4814C82.0088 54.1814 81.964 54.9255 81.6884 55.5974V55.5974C81.5161 56.097 81.467 56.6308 81.5454 57.1534C81.6238 57.676 81.8274 58.172 82.1388 58.5992C82.4501 59.0264 82.8602 59.3722 83.334 59.6072C83.8078 59.8423 84.3315 59.9596 84.8604 59.9492V59.9492C85.5603 59.9406 86.2446 60.1555 86.8137 60.5625C87.3828 60.9694 87.8069 61.5472 88.0244 62.2118C88.2419 62.8763 88.2413 63.5928 88.0228 64.2569C87.8043 64.9211 87.3792 65.4982 86.8095 65.9043V65.9043C86.3681 66.2013 86.0065 66.602 85.7565 67.0713C85.5065 67.5406 85.3757 68.064 85.3757 68.5956C85.3757 69.1272 85.5065 69.6506 85.7565 70.1199C86.0065 70.5891 86.3681 70.9899 86.8095 71.2868C87.3964 71.6869 87.8378 72.2663 88.0673 72.938C88.2969 73.6098 88.3023 74.3378 88.0828 75.0129C87.8632 75.688 87.4306 76.2738 86.8496 76.6826C86.2686 77.0913 85.5707 77.301 84.8604 77.2801V77.2801C84.3285 77.2606 83.8 77.372 83.3212 77.6043C82.8425 77.8367 82.4283 78.1831 82.115 78.6129C81.8017 79.0427 81.599 79.5428 81.5246 80.0693C81.4502 80.5957 81.5065 81.1323 81.6884 81.632V81.632C81.964 82.3038 82.0088 83.0479 81.8159 83.7479C81.623 84.4479 81.2032 85.0642 80.6223 85.5006C80.0413 85.9369 79.332 86.1685 78.6052 86.1593C77.8784 86.15 77.1752 85.9003 76.6056 85.4494V85.4494C76.188 85.1224 75.6965 84.9027 75.1742 84.8093C74.6519 84.7159 74.1146 84.7518 73.6094 84.9137C73.1041 85.0757 72.6463 85.3588 72.2759 85.7383C71.9055 86.1178 71.6338 86.5822 71.4846 87.0908V87.0908C71.2842 87.7709 70.8688 88.3679 70.3005 88.7926C69.7321 89.2173 69.0415 89.4468 68.3317 89.4468C67.622 89.4468 66.9313 89.2173 66.363 88.7926C65.7947 88.3679 65.3793 87.7709 65.1789 87.0908C65.0297 86.5822 64.758 86.1178 64.3876 85.7383C64.0172 85.3588 63.5594 85.0757 63.0541 84.9137C62.5489 84.7518 62.0116 84.7159 61.4893 84.8093C60.967 84.9027 60.4755 85.1224 60.0579 85.4494V85.4494C59.4883 85.9003 58.7851 86.15 58.0583 86.1593C57.3315 86.1685 56.6222 85.9369 56.0412 85.5006C55.4603 85.0642 55.0405 84.4479 54.8476 83.7479C54.6547 83.0479 54.6995 82.3038 54.9751 81.632V81.632C55.157 81.1323 55.2133 80.5957 55.1389 80.0693C55.0645 79.5428 54.8617 79.0427 54.5485 78.6129C54.2352 78.1831 53.821 77.8367 53.3422 77.6043C52.8635 77.372 52.335 77.2606 51.8031 77.2801C51.0928 77.301 50.3948 77.0913 49.8139 76.6826C49.2329 76.2738 48.8003 75.688 48.5807 75.0129C48.3612 74.3378 48.3666 73.6098 48.5961 72.938C48.8257 72.2663 49.2671 71.6869 49.854 71.2868V71.2868C50.2954 70.9899 50.657 70.5891 50.907 70.1199C51.157 69.6506 51.2878 69.1272 51.2878 68.5956C51.2878 68.064 51.157 67.5406 50.907 67.0713C50.657 66.602 50.2954 66.2013 49.854 65.9043V65.9043C49.2843 65.4982 48.8592 64.9211 48.6407 64.2569C48.4221 63.5928 48.4216 62.8763 48.6391 62.2118C48.8566 61.5472 49.2807 60.9694 49.8498 60.5625C50.4189 60.1555 51.1032 59.9406 51.8031 59.9492V59.9492C52.332 59.9596 52.8556 59.8423 53.3295 59.6072C53.8033 59.3722 54.2133 59.0264 54.5247 58.5992C54.8361 58.172 55.0397 57.676 55.1181 57.1534C55.1965 56.6308 55.1474 56.097 54.9751 55.5974V55.5974C54.6995 54.9255 54.6547 54.1814 54.8476 53.4814C55.0405 52.7814 55.4603 52.1651 56.0412 51.7288C56.6222 51.2925 57.3315 51.0608 58.0583 51.0701C58.7851 51.0793 59.4883 51.329 60.0579 51.78C60.4781 52.1065 60.9722 52.3249 61.4967 52.4159C62.0213 52.5069 62.5602 52.4677 63.066 52.3018C63.5718 52.1359 64.0291 51.8484 64.3975 51.4645C64.7659 51.0806 65.0343 50.6121 65.1789 50.1003C65.3793 49.4202 65.7947 48.8232 66.363 48.3985C66.9313 47.9739 67.622 47.7444 68.3317 47.7444C69.0415 47.7444 69.7321 47.9739 70.3005 48.3985C70.8688 48.8232 71.2842 49.4202 71.4846 50.1003Z" stroke="#3E4451" stroke-width="2.5" stroke-miterlimit="10"/>
</svg>
