<svg width="76" height="76" viewBox="0 0 76 76" fill="none" xmlns="http://www.w3.org/2000/svg">
<path d="M25.463 31.8319V41.7948H24.6413C24.5386 41.7948 24.4359 41.7948 24.3331 41.6921C24.2304 41.5894 24.1277 41.5894 24.1277 41.4867L18.5813 34.3997C18.5813 34.5024 18.5813 34.7078 18.5813 34.8105C18.5813 34.9132 18.5813 35.0159 18.5813 35.2213V41.7948H17.2461V31.7292H18.0678C18.1705 31.7292 18.1705 31.7292 18.2732 31.7292C18.3759 31.7292 18.3759 31.7292 18.3759 31.7292C18.3759 31.7292 18.4786 31.7292 18.4786 31.8319C18.4786 31.9346 18.5813 31.9346 18.5813 31.9346L24.1277 39.0216C24.1277 38.9189 24.1277 38.7135 24.1277 38.6108C24.1277 38.5081 24.1277 38.3027 24.1277 38.2V31.6265H25.463V31.8319Z" fill="#3E4451" stroke="#3E4451" stroke-width="0.5"/>
<path d="M36.1445 36.8645V40.8703C35.1174 41.5892 33.9876 42.0001 32.6523 42.0001C31.8306 42.0001 31.1117 41.8974 30.4954 41.5892C29.8791 41.3838 29.2629 40.973 28.852 40.5621C28.3385 40.1513 28.0303 39.535 27.8249 38.9188C27.6195 38.3025 27.4141 37.5835 27.4141 36.8645C27.4141 36.1456 27.5168 35.4266 27.8249 34.8103C28.0303 34.1941 28.4412 33.6805 28.852 33.167C29.2629 32.7561 29.8791 32.3453 30.4954 32.1398C31.1117 31.9344 31.8306 31.729 32.6523 31.729C33.0632 31.729 33.474 31.729 33.7821 31.8317C34.0903 31.9344 34.3984 31.9344 34.7065 32.1398C35.0147 32.2426 35.3228 32.3453 35.5282 32.5507C35.7336 32.7561 36.0418 32.8588 36.2472 33.0642L35.7336 33.7832C35.6309 33.8859 35.5282 33.9886 35.4255 33.9886C35.3228 33.9886 35.2201 33.9886 35.0147 33.8859C34.912 33.7832 34.7065 33.6805 34.6038 33.6805C34.5011 33.6805 34.2957 33.4751 34.0903 33.4751C33.8848 33.4751 33.6794 33.3724 33.3713 33.2697C33.1659 33.2697 32.8577 33.167 32.4469 33.167C31.9333 33.167 31.4198 33.2697 31.0089 33.4751C30.5981 33.6805 30.1873 33.8859 29.8791 34.1941C29.571 34.5022 29.3656 34.913 29.1601 35.3239C28.9547 35.7347 28.9547 36.2483 28.9547 36.8645C28.9547 37.4808 29.0574 37.9944 29.2629 38.5079C29.4683 39.0215 29.6737 39.3296 29.9818 39.7404C30.29 40.0486 30.7008 40.3567 31.1117 40.4594C31.5225 40.5621 32.036 40.7676 32.6523 40.7676C33.0632 40.7676 33.474 40.7676 33.7821 40.6648C34.0903 40.5621 34.3984 40.4594 34.7065 40.254V38.3025H33.2686C33.1659 38.3025 33.0632 38.3025 33.0632 38.1998C32.9604 38.0971 32.9604 38.0971 32.9604 37.9944V37.07H36.1445V36.8645Z" fill="#3E4451" stroke="#3E4451" stroke-width="0.5"/>
<path d="M39.6356 33.0642V36.2483H43.5386V37.5835H39.6356V41.7947H37.9922V31.729H44.2575V33.0642H39.6356Z" fill="#3E4451" stroke="#3E4451" stroke-width="0.5"/>
<path d="M59.1546 31.8315L56.0732 41.8972H54.6353L52.2729 34.7074C52.2729 34.6047 52.1702 34.502 52.1702 34.3993C52.1702 34.2966 52.1702 34.1939 52.0675 34.0912C52.0675 34.1939 52.0675 34.2966 51.9648 34.3993C51.9648 34.502 51.8621 34.6047 51.8621 34.7074L49.4997 41.8972H48.0618L44.9805 31.8315H46.3157C46.4184 31.8315 46.5211 31.8315 46.6238 31.9343C46.7266 32.037 46.8293 32.1397 46.8293 32.2424L48.6781 38.7132C48.6781 38.8159 48.7808 39.0213 48.7808 39.124C48.7808 39.3294 48.8835 39.4321 48.8835 39.6376C48.8835 39.4321 48.9862 39.3294 48.9862 39.124C48.9862 38.9186 49.0889 38.8159 49.0889 38.7132L51.2458 32.2424C51.2458 32.1397 51.3485 32.037 51.4513 31.9343C51.554 31.8315 51.6567 31.8315 51.7594 31.8315H52.2729C52.3757 31.8315 52.5811 31.8315 52.5811 31.9343C52.6838 32.037 52.7865 32.1397 52.7865 32.2424L54.9434 38.7132C54.9434 38.8159 55.0461 39.0213 55.0461 39.124C55.0461 39.3294 55.1488 39.4321 55.1488 39.6376C55.1488 39.4321 55.2516 39.3294 55.2516 39.124C55.2516 38.9186 55.3543 38.8159 55.3543 38.7132L57.2031 32.2424C57.2031 32.1397 57.3058 32.037 57.4085 31.9343C57.5112 31.8315 57.6139 31.8315 57.7166 31.8315H59.1546Z" fill="#3E4451" stroke="#3E4451" stroke-width="0.5"/>
<path d="M67.0856 75.1319H8.91444C4.5615 75.1319 1 71.5704 1 67.2175V8.91444C1 4.5615 4.5615 1 8.91444 1H67.0856C71.4385 1 75 4.5615 75 8.91444V67.0856C75 71.4385 71.4385 75.1319 67.0856 75.1319ZM8.91444 3.63815C6.01248 3.63815 3.63815 6.01248 3.63815 8.91444V67.0856C3.63815 69.9875 6.01248 72.3619 8.91444 72.3619H67.0856C69.9875 72.3619 72.3619 69.9875 72.3619 67.0856V8.91444C72.3619 6.01248 69.9875 3.63815 67.0856 3.63815H8.91444Z" fill="#3E4451" stroke="#3E4451" stroke-width="1.5"/>
<path d="M61.9399 67.2172H60.4889C60.0932 67.2172 59.8294 66.9534 59.8294 66.5576C59.8294 66.1619 60.0932 65.8981 60.4889 65.8981H61.808C62.2037 65.8981 62.4675 66.1619 62.4675 66.5576C62.4675 66.9534 62.3356 67.2172 61.9399 67.2172ZM56.6636 67.2172H55.3445C54.9488 67.2172 54.685 66.9534 54.685 66.5576C54.685 66.1619 54.9488 65.8981 55.3445 65.8981H56.6636C57.0593 65.8981 57.3231 66.1619 57.3231 66.5576C57.3231 66.9534 56.9274 67.2172 56.6636 67.2172ZM51.3873 67.2172H50.0682C49.6725 67.2172 49.4087 66.9534 49.4087 66.5576C49.4087 66.1619 49.6725 65.8981 50.0682 65.8981H51.3873C51.783 65.8981 52.0468 66.1619 52.0468 66.5576C52.0468 66.9534 51.783 67.2172 51.3873 67.2172ZM46.111 67.2172H44.7919C44.3962 67.2172 44.1324 66.9534 44.1324 66.5576C44.1324 66.1619 44.3962 65.8981 44.7919 65.8981H46.111C46.5067 65.8981 46.7706 66.1619 46.7706 66.5576C46.7706 66.9534 46.5067 67.2172 46.111 67.2172ZM40.8347 67.2172H39.5157C39.1199 67.2172 38.8561 66.9534 38.8561 66.5576C38.8561 66.1619 39.1199 65.8981 39.5157 65.8981H40.8347C41.2304 65.8981 41.4943 66.1619 41.4943 66.5576C41.4943 66.9534 41.2304 67.2172 40.8347 67.2172ZM35.5584 67.2172H34.2394C33.8436 67.2172 33.5798 66.9534 33.5798 66.5576C33.5798 66.1619 33.8436 65.8981 34.2394 65.8981H35.5584C35.9542 65.8981 36.218 66.1619 36.218 66.5576C36.218 66.9534 35.9542 67.2172 35.5584 67.2172ZM30.414 67.2172H29.095C28.6993 67.2172 28.4354 66.9534 28.4354 66.5576C28.4354 66.1619 28.6993 65.8981 29.095 65.8981H30.414C30.8098 65.8981 31.0736 66.1619 31.0736 66.5576C31.0736 66.9534 30.6779 67.2172 30.414 67.2172ZM25.1378 67.2172H23.8187C23.423 67.2172 23.1591 66.9534 23.1591 66.5576C23.1591 66.1619 23.423 65.8981 23.8187 65.8981H25.1378C25.5335 65.8981 25.7973 66.1619 25.7973 66.5576C25.7973 66.9534 25.5335 67.2172 25.1378 67.2172ZM19.8615 67.2172H18.5424C18.1467 67.2172 17.8829 66.9534 17.8829 66.5576C17.8829 66.1619 18.1467 65.8981 18.5424 65.8981H19.8615C20.2572 65.8981 20.521 66.1619 20.521 66.5576C20.521 66.9534 20.2572 67.2172 19.8615 67.2172ZM14.5852 67.2172H14.1894C13.7937 67.2172 13.5299 67.2172 13.1342 67.0853C12.7385 66.9533 12.4747 66.6895 12.6066 66.2938C12.7385 65.8981 13.0023 65.6343 13.398 65.7662C13.6618 65.7662 13.9256 65.8981 14.1894 65.8981H14.5852C14.9809 65.8981 15.2447 66.1619 15.2447 66.5576C15.2447 66.9534 14.9809 67.2172 14.5852 67.2172ZM65.3695 65.6343C65.2376 65.6343 65.1057 65.6343 64.9738 65.5024C64.7099 65.2386 64.7099 64.8428 64.9738 64.579C65.2376 64.3152 65.3695 63.9195 65.6333 63.6557C65.7652 63.3918 66.1609 63.128 66.5566 63.3918C66.8205 63.5238 67.0843 63.9195 66.8205 64.3152C66.5567 64.7109 66.2928 65.2386 66.029 65.5024C65.7652 65.6343 65.6333 65.6343 65.3695 65.6343ZM10.2322 64.9747C9.96842 64.9747 9.83651 64.8428 9.7046 64.7109C9.44079 64.3152 9.17697 63.7876 9.04506 63.3918C8.91316 62.9961 9.17697 62.6004 9.44079 62.6004C9.83651 62.4685 10.2322 62.6004 10.2322 62.9961C10.3641 63.3918 10.496 63.6557 10.628 64.0514C10.7599 64.3152 10.7599 64.7109 10.3641 64.9747H10.2322ZM66.5566 60.7537C66.1609 60.7537 65.8971 60.4899 65.8971 60.0942V58.7751C65.8971 58.3794 66.1609 58.1156 66.5566 58.1156C66.9524 58.1156 67.2162 58.3794 67.2162 58.7751V60.0942C67.2162 60.358 66.9524 60.7537 66.5566 60.7537ZM9.44079 59.9623C9.04506 59.9623 8.78125 59.6984 8.78125 59.3027V57.9837C8.78125 57.5879 9.04506 57.3241 9.44079 57.3241C9.83651 57.3241 10.1003 57.5879 10.1003 57.9837V59.3027C10.1003 59.5665 9.83651 59.9623 9.44079 59.9623ZM66.5566 55.4774C66.1609 55.4774 65.8971 55.2136 65.8971 54.8179V53.4988C65.8971 53.1031 66.1609 52.8393 66.5566 52.8393C66.9524 52.8393 67.2162 53.1031 67.2162 53.4988V54.8179C67.2162 55.2136 66.9524 55.4774 66.5566 55.4774ZM9.44079 54.686C9.04506 54.686 8.78125 54.4222 8.78125 54.0264V52.7074C8.78125 52.3116 9.04506 52.0478 9.44079 52.0478C9.83651 52.0478 10.1003 52.3116 10.1003 52.7074V54.0264C10.1003 54.4222 9.83651 54.686 9.44079 54.686ZM66.5566 50.2011C66.1609 50.2011 65.8971 49.9373 65.8971 49.5416V48.2225C65.8971 47.8268 66.1609 47.563 66.5566 47.563C66.9524 47.563 67.2162 47.8268 67.2162 48.2225V49.5416C67.2162 49.9373 66.9524 50.2011 66.5566 50.2011ZM9.44079 49.4097C9.04506 49.4097 8.78125 49.1459 8.78125 48.7501V47.4311C8.78125 47.0353 9.04506 46.7715 9.44079 46.7715C9.83651 46.7715 10.1003 47.0353 10.1003 47.4311V48.7501C10.1003 49.1459 9.83651 49.4097 9.44079 49.4097ZM66.5566 44.9248C66.1609 44.9248 65.8971 44.661 65.8971 44.2653V42.9462C65.8971 42.5505 66.1609 42.2867 66.5566 42.2867C66.9524 42.2867 67.2162 42.5505 67.2162 42.9462V44.2653C67.2162 44.661 66.9524 44.9248 66.5566 44.9248ZM9.44079 44.1334C9.04506 44.1334 8.78125 43.8696 8.78125 43.4739V42.1548C8.78125 41.7591 9.04506 41.4952 9.44079 41.4952C9.83651 41.4952 10.1003 41.7591 10.1003 42.1548V43.4739C10.1003 43.8696 9.83651 44.1334 9.44079 44.1334ZM66.5566 39.7804C66.1609 39.7804 65.8971 39.5166 65.8971 39.1209V37.8018C65.8971 37.4061 66.1609 37.1423 66.5566 37.1423C66.9524 37.1423 67.2162 37.4061 67.2162 37.8018V39.1209C67.2162 39.3847 66.9524 39.7804 66.5566 39.7804ZM9.44079 38.989C9.04506 38.989 8.78125 38.7252 8.78125 38.3295V37.0104C8.78125 36.6147 9.04506 36.3509 9.44079 36.3509C9.83651 36.3509 10.1003 36.6147 10.1003 37.0104V38.3295C10.1003 38.5933 9.83651 38.989 9.44079 38.989ZM66.5566 34.5042C66.1609 34.5042 65.8971 34.2403 65.8971 33.8446V32.5255C65.8971 32.1298 66.1609 31.866 66.5566 31.866C66.9524 31.866 67.2162 32.1298 67.2162 32.5255V33.8446C67.2162 34.2403 66.9524 34.5042 66.5566 34.5042ZM9.44079 33.7127C9.04506 33.7127 8.78125 33.4489 8.78125 33.0532V31.7341C8.78125 31.3384 9.04506 31.0746 9.44079 31.0746C9.83651 31.0746 10.1003 31.3384 10.1003 31.7341V33.0532C10.1003 33.4489 9.83651 33.7127 9.44079 33.7127ZM66.5566 29.2279C66.1609 29.2279 65.8971 28.964 65.8971 28.5683V27.2493C65.8971 26.8535 66.1609 26.5897 66.5566 26.5897C66.9524 26.5897 67.2162 26.8535 67.2162 27.2493V28.5683C67.2162 28.964 66.9524 29.2279 66.5566 29.2279ZM9.44079 28.4364C9.04506 28.4364 8.78125 28.1726 8.78125 27.7769V26.4578C8.78125 26.0621 9.04506 25.7983 9.44079 25.7983C9.83651 25.7983 10.1003 26.0621 10.1003 26.4578V27.7769C10.1003 28.1726 9.83651 28.4364 9.44079 28.4364ZM66.5566 23.9516C66.1609 23.9516 65.8971 23.6878 65.8971 23.292V21.973C65.8971 21.5772 66.1609 21.3134 66.5566 21.3134C66.9524 21.3134 67.2162 21.5772 67.2162 21.973V23.292C67.2162 23.6878 66.9524 23.9516 66.5566 23.9516ZM9.44079 23.1601C9.04506 23.1601 8.78125 22.8963 8.78125 22.5006V21.1815C8.78125 20.7858 9.04506 20.522 9.44079 20.522C9.83651 20.522 10.1003 20.7858 10.1003 21.1815V22.5006C10.1003 22.8963 9.83651 23.1601 9.44079 23.1601ZM66.5566 18.6753C66.1609 18.6753 65.8971 18.4115 65.8971 18.0157V16.6967C65.8971 16.3009 66.1609 16.0371 66.5566 16.0371C66.9524 16.0371 67.2162 16.3009 67.2162 16.6967V18.0157C67.2162 18.4115 66.9524 18.6753 66.5566 18.6753ZM9.44079 17.8838C9.04506 17.8838 8.78125 17.62 8.78125 17.2243V15.9052C8.78125 15.5095 9.04506 15.2457 9.44079 15.2457C9.83651 15.2457 10.1003 15.5095 10.1003 15.9052V17.2243C10.1003 17.62 9.83651 17.8838 9.44079 17.8838ZM66.4247 13.5309C66.1609 13.5309 65.8971 13.399 65.7652 13.0033C65.6333 12.6075 65.5014 12.3437 65.2376 11.948C65.1057 11.6842 65.1057 11.2885 65.5014 11.0247C65.7652 10.8927 66.1609 10.8927 66.4247 11.2885C66.6886 11.6842 66.9524 12.2118 67.0843 12.6075C67.2162 13.0033 66.9524 13.2671 66.6886 13.399C66.5566 13.5309 66.4247 13.5309 66.4247 13.5309ZM9.96842 12.7394C9.83651 12.7394 9.83651 12.7394 9.7046 12.6075C9.30888 12.6075 9.17697 12.2118 9.30888 11.8161C9.57269 11.4204 9.83651 11.0247 10.2322 10.6289C10.496 10.3651 10.8918 10.3651 11.1556 10.6289C11.4194 10.8927 11.4194 11.2885 11.1556 11.5523C10.8918 11.8161 10.7599 12.0799 10.496 12.3437C10.3641 12.6075 10.2322 12.7394 9.96842 12.7394ZM62.7313 10.2332C62.5994 10.2332 62.5994 10.2332 62.7313 10.2332C62.3356 10.2332 62.2037 10.1013 61.9399 10.1013H61.4123C61.0165 10.1013 60.7527 9.83749 60.7527 9.44176C60.7527 9.04604 61.0165 8.78223 61.4123 8.78223H61.9399C62.2037 8.78223 62.5994 8.78223 62.8632 8.91413C63.259 8.91413 63.5228 9.30986 63.3909 9.70558C63.259 9.96939 62.9952 10.2332 62.7313 10.2332ZM57.455 10.1013H56.136C55.7402 10.1013 55.4764 9.83749 55.4764 9.44176C55.4764 9.04604 55.7402 8.78223 56.136 8.78223H57.455C57.8508 8.78223 58.1146 9.04604 58.1146 9.44176C58.1146 9.83749 57.8508 10.1013 57.455 10.1013ZM52.1788 10.1013H50.8597C50.464 10.1013 50.2001 9.83749 50.2001 9.44176C50.2001 9.04604 50.464 8.78223 50.8597 8.78223H52.1788C52.5745 8.78223 52.8383 9.04604 52.8383 9.44176C52.8383 9.83749 52.5745 10.1013 52.1788 10.1013ZM46.9025 10.1013H45.5834C45.1877 10.1013 44.9239 9.83749 44.9239 9.44176C44.9239 9.04604 45.1877 8.78223 45.5834 8.78223H46.9025C47.2982 8.78223 47.562 9.04604 47.562 9.44176C47.562 9.83749 47.2982 10.1013 46.9025 10.1013ZM41.7581 10.1013H40.439C40.0433 10.1013 39.7795 9.83749 39.7795 9.44176C39.7795 9.04604 40.0433 8.78223 40.439 8.78223H41.7581C42.1538 8.78223 42.4176 9.04604 42.4176 9.44176C42.4176 9.83749 42.0219 10.1013 41.7581 10.1013ZM36.4818 10.1013H35.1627C34.767 10.1013 34.5032 9.83749 34.5032 9.44176C34.5032 9.04604 34.767 8.78223 35.1627 8.78223H36.4818C36.8775 8.78223 37.1413 9.04604 37.1413 9.44176C37.1413 9.83749 36.8775 10.1013 36.4818 10.1013ZM31.2055 10.1013H29.8864C29.4907 10.1013 29.2269 9.83749 29.2269 9.44176C29.2269 9.04604 29.4907 8.78223 29.8864 8.78223H31.2055C31.6012 8.78223 31.865 9.04604 31.865 9.44176C31.865 9.83749 31.6012 10.1013 31.2055 10.1013ZM25.9292 10.1013H24.6101C24.2144 10.1013 23.9506 9.83749 23.9506 9.44176C23.9506 9.04604 24.2144 8.78223 24.6101 8.78223H25.9292C26.3249 8.78223 26.5887 9.04604 26.5887 9.44176C26.5887 9.83749 26.3249 10.1013 25.9292 10.1013ZM20.6529 10.1013H19.3338C18.9381 10.1013 18.6743 9.83749 18.6743 9.44176C18.6743 9.04604 18.9381 8.78223 19.3338 8.78223H20.6529C21.0486 8.78223 21.3124 9.04604 21.3124 9.44176C21.3124 9.83749 21.0486 10.1013 20.6529 10.1013ZM15.5085 10.1013H14.1894C13.7937 10.1013 13.5299 9.83749 13.5299 9.44176C13.5299 9.04604 13.7937 8.78223 14.1894 8.78223H15.5085C15.9042 8.78223 16.1681 9.04604 16.1681 9.44176C16.1681 9.83749 15.7723 10.1013 15.5085 10.1013Z" fill="#3E4451" stroke="#3E4451"/>
</svg>
