<svg width="91" height="88" viewBox="0 0 91 88" fill="none" xmlns="http://www.w3.org/2000/svg">
<path d="M42.3029 26.5827C44.4937 26.5827 46.2698 24.7897 46.2698 22.578C46.2698 20.3662 44.4937 18.5732 42.3029 18.5732C40.112 18.5732 38.3359 20.3662 38.3359 22.578C38.3359 24.7897 40.112 26.5827 42.3029 26.5827Z" stroke="#BA0C2F" stroke-width="2.5" stroke-miterlimit="10"/>
<path d="M27.3187 45.5358C31.7382 45.5358 35.3209 41.919 35.3209 37.4574C35.3209 32.9958 31.7382 29.3789 27.3187 29.3789C22.8991 29.3789 19.3164 32.9958 19.3164 37.4574C19.3164 41.919 22.8991 45.5358 27.3187 45.5358Z" stroke="#BA0C2F" stroke-width="2.5" stroke-miterlimit="10"/>
<path d="M60.493 49.8522C66.4801 49.8522 71.3337 44.9524 71.3337 38.9083C71.3337 32.8641 66.4801 27.9644 60.493 27.9644C54.5059 27.9644 49.6523 32.8641 49.6523 38.9083C49.6523 44.9524 54.5059 49.8522 60.493 49.8522Z" stroke="#BA0C2F" stroke-width="2.5" stroke-miterlimit="10"/>
<path d="M83.3043 4.31543H7.6932C5.80452 4.31543 4.27344 5.86109 4.27344 7.76776V59.104C4.27344 61.0107 5.80452 62.5563 7.6932 62.5563H83.3043C85.1929 62.5563 86.724 61.0107 86.724 59.104V7.76776C86.724 5.86109 85.1929 4.31543 83.3043 4.31543Z" stroke="#3E4451" stroke-width="2.5" stroke-miterlimit="10"/>
<path d="M53.2469 62.5566H38.7812V76.5731H53.2469V62.5566Z" stroke="#3E4451" stroke-width="2.5" stroke-miterlimit="10"/>
<path d="M23.9393 76.7803H67.0626C67.9695 76.7803 68.8394 77.144 69.4807 77.7914C70.122 78.4389 70.4823 79.317 70.4823 80.2326V83.6849H20.5195V80.2326C20.5195 79.317 20.8798 78.4389 21.5212 77.7914C22.1625 77.144 23.0323 76.7803 23.9393 76.7803Z" stroke="#3E4451" stroke-width="2.5" stroke-miterlimit="10"/>
</svg>
