<svg width="81" height="80" viewBox="0 0 81 80" fill="none" xmlns="http://www.w3.org/2000/svg">
<path d="M22.9094 80.0004C10.3032 80.0004 0 69.6972 0 57.091C0 44.4848 10.3032 34.1816 22.9094 34.1816C35.5156 34.1816 45.8188 44.4848 45.8188 57.091C45.8188 69.6972 35.6368 80.0004 22.9094 80.0004ZM22.9094 36.6059C11.6365 36.6059 2.42427 45.8181 2.42427 57.091C2.42427 68.3639 11.6365 77.5761 22.9094 77.5761C34.1823 77.5761 43.3945 68.3639 43.3945 57.091C43.3945 45.8181 34.1823 36.6059 22.9094 36.6059Z" fill="#3E4451"/>
<path d="M14.4247 58.5463C11.6368 58.5463 9.09128 56.6069 7.63672 54.425C11.2731 55.2735 15.152 56.0008 19.3944 56.2433C18.9096 57.819 16.2429 58.5463 14.4247 58.5463Z" fill="#BA0C2F"/>
<path d="M31.5205 58.5478C29.5811 58.5478 26.9144 57.9417 26.5508 56.2447C30.7933 55.8811 34.6721 55.275 38.3085 54.4265C36.7327 56.6084 34.3085 58.5478 31.5205 58.5478Z" fill="#BA0C2F"/>
<path d="M62.7855 59.8791C62.0582 59.8791 61.5734 59.3943 61.5734 58.667C61.5734 36.9697 43.8762 19.3938 22.1789 19.3938C21.4517 19.3938 20.9668 18.9089 20.9668 18.1816C20.9668 17.4543 21.4517 16.9695 22.1789 16.9695C45.2095 16.9695 63.9977 35.7576 63.9977 58.7882C63.9977 59.3943 63.3916 59.8791 62.7855 59.8791Z" fill="#BA0C2F"/>
<path d="M79.6342 59.8796C78.9069 59.8796 78.4221 59.3947 78.4221 58.6674C78.4221 27.6367 53.2096 2.42427 22.1789 2.42427C21.4517 2.42427 20.9668 1.93942 20.9668 1.21214C20.9668 0.484855 21.4517 0 22.1789 0C54.543 0 80.8463 26.3034 80.8463 58.6674C80.8463 59.3947 80.3615 59.8796 79.6342 59.8796Z" fill="#3E4451"/>
</svg>
