<svg width="82" height="85" viewBox="0 0 82 85" fill="none" xmlns="http://www.w3.org/2000/svg">
<path d="M45.3753 64.6977V49.9723C45.3747 49.8194 45.419 49.6697 45.5026 49.5417C45.5863 49.4136 45.7056 49.3128 45.846 49.2517C47.6855 48.4518 49.2556 47.1402 50.3686 45.4735C51.4815 43.8068 52.0903 41.8554 52.1223 39.8525C52.1198 37.7369 51.4732 35.6721 50.2682 33.9319C49.0632 32.1917 47.3568 30.8583 45.3753 30.1086C45.3382 30.0936 45.298 30.0876 45.2581 30.0912C45.2182 30.0949 45.1798 30.1079 45.146 30.1294C45.1122 30.1509 45.0841 30.1801 45.0639 30.2146C45.0438 30.2492 45.0321 30.288 45.0301 30.328V37.91H36.7453V30.328C36.7492 30.2892 36.7427 30.2501 36.7264 30.2148C36.7101 30.1794 36.6847 30.1489 36.6527 30.1266C36.6208 30.1043 36.5834 30.0909 36.5446 30.0877C36.5057 30.0845 36.4667 30.0918 36.4315 30.1086C34.5168 30.89 32.8775 32.2211 31.7211 33.9334C30.5647 35.6457 29.9433 37.662 29.9355 39.7271C29.9614 41.7111 30.55 43.6471 31.6331 45.3107C32.7161 46.9743 34.2494 48.2973 36.0549 49.1263C36.212 49.1889 36.3467 49.2969 36.4418 49.4364C36.5369 49.576 36.5879 49.7408 36.5884 49.9096V64.4783" stroke="#BA0C2F" stroke-width="2.5" stroke-miterlimit="10"/>
<path d="M40.9857 63.7579C52.7365 63.7579 62.2624 54.2475 62.2624 42.5157C62.2624 30.784 52.7365 21.2736 40.9857 21.2736C29.2349 21.2736 19.709 30.784 19.709 42.5157C19.709 54.2475 29.2349 63.7579 40.9857 63.7579Z" stroke="#3E4451" stroke-width="2.5" stroke-miterlimit="10"/>
<path d="M46.8531 8.303C47.1367 9.23051 47.6385 10.0768 48.3165 10.7712C48.9946 11.4656 49.8292 11.988 50.7507 12.2946C51.6722 12.6013 52.6538 12.6834 53.6136 12.534C54.5733 12.3846 55.4833 12.0082 56.2676 11.4361V11.4361C57.3108 10.6493 58.58 10.2188 59.8873 10.2081C61.1946 10.1975 62.4707 10.6072 63.5267 11.3768C64.5826 12.1464 65.3624 13.2349 65.7506 14.4813C66.1387 15.7277 66.1147 17.0658 65.6821 18.2975V18.2975C65.3504 19.2277 65.2506 20.2246 65.3915 21.2019C65.5323 22.1792 65.9095 23.1076 66.4905 23.9067C67.0715 24.7057 67.8387 25.3515 68.7258 25.788C69.6129 26.2246 70.5932 26.4388 71.5818 26.4121C72.8498 26.476 74.0686 26.9223 75.0773 27.6922C76.086 28.462 76.837 29.5191 77.2314 30.724C77.6257 31.9289 77.6448 33.2249 77.2861 34.4408C76.9273 35.6567 76.2076 36.7354 75.2221 37.5345V37.5345C74.4001 38.0881 73.7268 38.8346 73.2613 39.7087C72.7959 40.5827 72.5524 41.5575 72.5524 42.5474C72.5524 43.5373 72.7959 44.512 73.2613 45.3861C73.7268 46.2601 74.4001 47.0067 75.2221 47.5603V47.5603C76.2076 48.3594 76.9273 49.4381 77.2861 50.654C77.6448 51.8699 77.6257 53.1659 77.2314 54.3708C76.837 55.5756 76.086 56.6328 75.0773 57.4026C74.0686 58.1725 72.8498 58.6188 71.5818 58.6827V58.6827C70.5932 58.656 69.6129 58.8702 68.7258 59.3068C67.8387 59.7433 67.0715 60.389 66.4905 61.1881C65.9095 61.9872 65.5323 62.9156 65.3915 63.8929C65.2506 64.8702 65.3504 65.8671 65.6821 66.7973C66.1147 68.029 66.1387 69.367 65.7506 70.6134C65.3624 71.8598 64.5826 72.9483 63.5267 73.7179C62.4707 74.4875 61.1946 74.8973 59.8873 74.8866C58.58 74.876 57.3108 74.4454 56.2676 73.6587V73.6587C55.4833 73.0866 54.5733 72.7101 53.6136 72.5608C52.6538 72.4114 51.6722 72.4935 50.7507 72.8001C49.8292 73.1068 48.9946 73.6292 48.3165 74.3236C47.6385 75.018 47.1367 75.8643 46.8531 76.7918V76.7918C46.489 78.0609 45.7209 79.1771 44.665 79.9718C43.6091 80.7664 42.3228 81.1962 41.0005 81.1962C39.6782 81.1962 38.3918 80.7664 37.3359 79.9718C36.28 79.1771 35.512 78.0609 35.1478 76.7918V76.7918C34.8376 75.8651 34.3145 75.0237 33.6205 74.3347C32.9264 73.6458 32.0807 73.1285 31.1507 72.8241C30.2207 72.5197 29.2323 72.4366 28.2645 72.5815C27.2966 72.7264 26.3761 73.0953 25.5765 73.6587V73.6587C24.5333 74.4454 23.2641 74.876 21.9567 74.8866C20.6494 74.8973 19.3734 74.4875 18.3174 73.7179C17.2615 72.9483 16.4817 71.8598 16.0935 70.6134C15.7053 69.367 15.7294 68.029 16.162 66.7973V66.7973C16.4937 65.8671 16.5935 64.8702 16.4526 63.8929C16.3117 62.9156 15.9345 61.9872 15.3535 61.1881C14.7725 60.389 14.0054 59.7433 13.1183 59.3068C12.2312 58.8702 11.2509 58.656 10.2622 58.6827V58.6827C8.92459 58.7566 7.59987 58.3879 6.4934 57.6338C5.38694 56.8796 4.56051 55.7822 4.14223 54.5115C3.72394 53.2409 3.73717 51.8679 4.17982 50.6055C4.62247 49.3431 5.46984 48.2617 6.59061 47.529V47.529C7.40613 46.9707 8.07316 46.2225 8.53405 45.349C8.99493 44.4756 9.23579 43.5033 9.23579 42.5161C9.23579 41.5288 8.99493 40.5565 8.53405 39.6831C8.07316 38.8096 7.40613 38.0614 6.59061 37.5031V37.5031C5.49108 36.767 4.66186 35.6931 4.22861 34.4441C3.79536 33.1952 3.78169 31.8393 4.18968 30.5819C4.59767 29.3245 5.4051 28.2341 6.48957 27.476C7.57405 26.7179 8.87644 26.3334 10.1995 26.3808V26.3808C11.1881 26.4074 12.1684 26.1932 13.0555 25.7567C13.9426 25.3201 14.7098 24.6744 15.2908 23.8753C15.8718 23.0762 16.249 22.1479 16.3898 21.1706C16.5307 20.1932 16.4309 19.1963 16.0992 18.2661V18.2661C15.6666 17.0344 15.6426 15.6964 16.0308 14.45C16.419 13.2036 17.1987 12.1151 18.2546 11.3455C19.3106 10.5759 20.5867 10.1661 21.894 10.1768C23.2013 10.1875 24.4705 10.618 25.5137 11.4047V11.4047C26.3133 11.9681 27.2338 12.337 28.2017 12.4819C29.1695 12.6268 30.1579 12.5438 31.0879 12.2393C32.0179 11.9349 32.8637 11.4176 33.5577 10.7287C34.2517 10.0398 34.7748 9.19837 35.0851 8.27168C35.4331 6.97718 36.2 5.83384 37.2663 5.01956C38.3326 4.20528 39.6387 3.76573 40.9812 3.76931C42.3237 3.77288 43.6273 4.21937 44.6893 5.03932C45.7513 5.85926 46.512 7.00667 46.8531 8.303V8.303Z" stroke="#3E4451" stroke-width="2.5" stroke-miterlimit="10"/>
</svg>
