<svg width="91" height="97" viewBox="0 0 91 97" fill="none" xmlns="http://www.w3.org/2000/svg">
<path d="M45.2076 38.1883C52.1245 38.1883 57.7317 32.5931 57.7317 25.6911C57.7317 18.789 52.1245 13.1938 45.2076 13.1938C38.2908 13.1938 32.6836 18.789 32.6836 25.6911C32.6836 32.5931 38.2908 38.1883 45.2076 38.1883Z" stroke="#3E4451" stroke-width="2.5" stroke-miterlimit="10"/>
<path d="M48.9245 3.88248C49.1415 4.45757 49.4858 4.97638 49.9317 5.40024C50.3776 5.82411 50.9136 6.14209 51.4997 6.33052C52.0859 6.51895 52.7071 6.57296 53.3171 6.48851C53.9271 6.40407 54.5101 6.18336 55.0228 5.84282V5.84282C55.706 5.45976 56.4851 5.28049 57.2675 5.32633C58.0499 5.37217 58.8026 5.64119 59.4362 6.10141C60.0698 6.56164 60.5577 7.19373 60.8419 7.92254C61.1261 8.65135 61.1946 9.44625 61.0392 10.2128C60.872 10.8058 60.8413 11.4289 60.9496 12.0354C61.0579 12.642 61.3023 13.2162 61.6645 13.7151C62.0267 14.214 62.4973 14.6247 63.0411 14.9164C63.5849 15.2081 64.1878 15.3733 64.8046 15.3995C65.5866 15.4837 66.3277 15.7909 66.9392 16.2843C67.5508 16.7778 68.0069 17.4366 68.253 18.182C68.4991 18.9274 68.5248 19.7277 68.327 20.4873C68.1292 21.2469 67.7162 21.9335 67.1375 22.4649C66.6521 22.8472 66.2598 23.3343 65.9901 23.8896C65.7203 24.4448 65.5802 25.0539 65.5802 25.6709C65.5802 26.288 65.7203 26.897 65.9901 27.4523C66.2598 28.0076 66.6521 28.4947 67.1375 28.8769C67.7162 29.4084 68.1292 30.095 68.327 30.8546C68.5248 31.6141 68.4991 32.4145 68.253 33.1599C68.0069 33.9052 67.5508 34.5641 66.9392 35.0575C66.3277 35.551 65.5866 35.8582 64.8046 35.9423C64.1878 35.9686 63.5849 36.1338 63.0411 36.4255C62.4973 36.7172 62.0267 37.1279 61.6645 37.6268C61.3023 38.1257 61.0579 38.6999 60.9496 39.3064C60.8413 39.913 60.872 40.5361 61.0392 41.1291V41.1291C61.1946 41.8956 61.1261 42.6905 60.8419 43.4193C60.5577 44.1482 60.0698 44.7802 59.4362 45.2405C58.8026 45.7007 58.0499 45.9697 57.2675 46.0156C56.4851 46.0614 55.706 45.8821 55.0228 45.499C54.5101 45.1585 53.9271 44.9378 53.3171 44.8534C52.7071 44.7689 52.0859 44.8229 51.4997 45.0113C50.9136 45.1998 50.3776 45.5178 49.9317 45.9416C49.4858 46.3655 49.1415 46.8843 48.9245 47.4594C48.5989 48.1724 48.0746 48.777 47.4143 49.2009C46.7539 49.6248 45.9852 49.8502 45.2 49.8502C44.4148 49.8502 43.6461 49.6248 42.9857 49.2009C42.3253 48.777 41.8011 48.1724 41.4755 47.4594V47.4594C41.2585 46.8843 40.9142 46.3655 40.4683 45.9416C40.0224 45.5178 39.4864 45.1998 38.9002 45.0113C38.3141 44.8229 37.6928 44.7689 37.0829 44.8534C36.4729 44.9378 35.8898 45.1585 35.3772 45.499V45.499C34.6939 45.8821 33.9148 46.0614 33.1325 46.0156C32.3501 45.9697 31.5974 45.7007 30.9638 45.2405C30.3301 44.7802 29.8422 44.1482 29.5581 43.4193C29.2739 42.6905 29.2054 41.8956 29.3607 41.1291V41.1291C29.528 40.5361 29.5586 39.913 29.4504 39.3064C29.3421 38.6999 29.0977 38.1257 28.7355 37.6268C28.3733 37.1279 27.9027 36.7172 27.3589 36.4255C26.8151 36.1338 26.2122 35.9686 25.5953 35.9423V35.9423C24.8134 35.8582 24.0723 35.551 23.4608 35.0575C22.8492 34.5641 22.3931 33.9052 22.147 33.1599C21.9009 32.4145 21.8752 31.6141 22.073 30.8546C22.2708 30.095 22.6838 29.4084 23.2624 28.8769V28.8769C23.7479 28.4947 24.1402 28.0076 24.4099 27.4523C24.6796 26.897 24.8198 26.288 24.8198 25.6709C24.8198 25.0539 24.6796 24.4448 24.4099 23.8896C24.1402 23.3343 23.7479 22.8472 23.2624 22.4649V22.4649C22.6838 21.9335 22.2708 21.2469 22.073 20.4873C21.8752 19.7277 21.9009 18.9274 22.147 18.182C22.3931 17.4366 22.8492 16.7778 23.4608 16.2843C24.0723 15.7909 24.8134 15.4837 25.5953 15.3995V15.3995C26.2122 15.3733 26.8151 15.2081 27.3589 14.9164C27.9027 14.6247 28.3733 14.214 28.7355 13.7151C29.0977 13.2162 29.3421 12.642 29.4504 12.0354C29.5586 11.4289 29.528 10.8058 29.3607 10.2128C29.2054 9.44625 29.2739 8.65135 29.5581 7.92254C29.8422 7.19373 30.3301 6.56164 30.9638 6.10141C31.5974 5.64119 32.3501 5.37217 33.1325 5.32633C33.9148 5.28049 34.6939 5.45976 35.3772 5.84282V5.84282C35.8898 6.18336 36.4729 6.40407 37.0829 6.48851C37.6928 6.57296 38.3141 6.51895 38.9002 6.33052C39.4864 6.14209 40.0224 5.82411 40.4683 5.40024C40.9142 4.97638 41.2585 4.45757 41.4755 3.88248V3.88248C41.8011 3.16945 42.3253 2.56491 42.9857 2.141C43.6461 1.71709 44.4148 1.4917 45.2 1.4917C45.9852 1.4917 46.7539 1.71709 47.4143 2.141C48.0746 2.56491 48.5989 3.16945 48.9245 3.88248Z" stroke="#3E4451" stroke-width="2.5" stroke-miterlimit="10"/>
<path d="M15.1992 63.836C15.1992 63.836 26.4545 57.3015 29.8925 55.9129C30.5889 55.6085 31.3423 55.4553 32.1026 55.4637H59.6064C60.396 55.4474 61.1809 55.5885 61.9152 55.8788C62.6494 56.1691 63.3182 56.6027 63.8824 57.1542C64.4465 57.7058 64.8947 58.3641 65.2006 59.0907C65.5065 59.8173 65.6639 60.5975 65.6638 61.3856C65.6638 62.9561 65.0385 64.4624 63.9256 65.573C62.8126 66.6835 61.3031 67.3074 59.7292 67.3074H42.5393" stroke="#BA0C2F" stroke-width="2.5" stroke-miterlimit="10"/>
<path d="M30.957 78.9462H68.1608C68.732 78.9449 69.2965 78.8243 69.8181 78.5922C70.3397 78.3601 70.8069 78.0216 71.1895 77.5985L87.8064 59.5061C92.7178 54.156 85.0233 46.1512 79.6207 51.338L64.0271 65.1421" stroke="#BA0C2F" stroke-width="2.5" stroke-miterlimit="10"/>
<path d="M26.5392 95.3234L36.6895 85.6442L11.1911 59.0161L1 68.6953" stroke="#3E4451" stroke-width="2.5" stroke-miterlimit="10"/>
</svg>
