<svg width="82" height="82" viewBox="0 0 82 82" fill="none" xmlns="http://www.w3.org/2000/svg">
<g clip-path="url(#clip0_82_1143)">
<path d="M4.19922 36.2476H77.7974" stroke="#3E4451" stroke-width="2.5" stroke-miterlimit="10"/>
<path d="M77.8653 81.9999V4.18359H4.13477V81.9999" stroke="#3E4451" stroke-width="2.5" stroke-miterlimit="10"/>
<path d="M4.19922 67.9766H77.7974" stroke="#3E4451" stroke-width="2.5" stroke-miterlimit="10"/>
<path d="M19.5812 14.1909H30.4308C31.308 14.1909 32.1494 14.5435 32.7697 15.1712C33.39 15.7989 33.7385 16.6502 33.7385 17.5379V21.4872H16.2734V17.5379C16.2734 16.6502 16.6219 15.7989 17.2423 15.1712C17.8626 14.5435 18.7039 14.1909 19.5812 14.1909V14.1909Z" stroke="#BA0C2F" stroke-width="2.5" stroke-miterlimit="10"/>
<path d="M33.7385 21.6211H16.2734V28.9174H33.7385V21.6211Z" stroke="#BA0C2F" stroke-width="2.5" stroke-miterlimit="10"/>
<path d="M33.7385 28.9507H16.2734V36.247H33.7385V28.9507Z" stroke="#BA0C2F" stroke-width="2.5" stroke-miterlimit="10"/>
<path d="M49.9133 46H60.7628C61.6401 46 62.4814 46.3526 63.1017 46.9803C63.7221 47.608 64.0706 48.4593 64.0706 49.3469V53.2963H46.6055V49.3469C46.6055 48.4593 46.954 47.608 47.5743 46.9803C48.1946 46.3526 49.036 46 49.9133 46V46Z" stroke="#BA0C2F" stroke-width="2.5" stroke-miterlimit="10"/>
<path d="M64.0706 53.4636H46.6055V60.7599H64.0706V53.4636Z" stroke="#BA0C2F" stroke-width="2.5" stroke-miterlimit="10"/>
<path d="M64.0706 60.7598H46.6055V68.0561H64.0706V60.7598Z" stroke="#BA0C2F" stroke-width="2.5" stroke-miterlimit="10"/>
</g>
<defs>
<clipPath id="clip0_82_1143">
<rect width="82" height="82" fill="white"/>
</clipPath>
</defs>
</svg>
