<svg width="75" height="74" viewBox="0 0 75 74" fill="none" xmlns="http://www.w3.org/2000/svg">
<path d="M24.3205 30.2222V41H23.4085C23.2945 41 23.1805 41 23.0665 40.8889C22.9525 40.7778 22.8385 40.7778 22.8385 40.6667L16.6822 33C16.6822 33.1111 16.6822 33.3333 16.6822 33.4444C16.6822 33.5556 16.6822 33.6667 16.6822 33.8889V41H15.2002V30.1111H16.1122C16.2262 30.1111 16.2262 30.1111 16.3402 30.1111C16.4542 30.1111 16.4542 30.1111 16.4542 30.1111C16.4542 30.1111 16.5682 30.1111 16.5682 30.2222C16.5682 30.3333 16.6822 30.3333 16.6822 30.3333L22.8385 38C22.8385 37.8889 22.8385 37.6667 22.8385 37.5556C22.8385 37.4444 22.8385 37.2222 22.8385 37.1111V30H24.3205V30.2222Z" fill="#BA0C2F"/>
<path d="M35.361 35.5V39.79C34.3004 40.56 33.1339 41 31.7552 41C30.9068 41 30.1645 40.89 29.5282 40.56C28.8919 40.34 28.2556 39.9 27.8314 39.46C27.3011 39.02 26.983 38.36 26.7709 37.7C26.5588 37.04 26.3467 36.27 26.3467 35.5C26.3467 34.73 26.4527 33.96 26.7709 33.3C26.983 32.64 27.4072 32.09 27.8314 31.54C28.2556 31.1 28.8919 30.66 29.5282 30.44C30.1645 30.22 30.9068 30 31.7552 30C32.1794 30 32.6036 30 32.9218 30.11C33.2399 30.22 33.5581 30.22 33.8762 30.44C34.1944 30.55 34.5125 30.66 34.7247 30.88C34.9368 31.1 35.2549 31.21 35.467 31.43L34.9367 32.2C34.8307 32.31 34.7246 32.42 34.6186 32.42C34.5125 32.42 34.4065 32.42 34.1944 32.31C34.0883 32.2 33.8762 32.09 33.7702 32.09C33.6641 32.09 33.452 31.87 33.2399 31.87C33.0278 31.87 32.8157 31.76 32.4976 31.65C32.2855 31.65 31.9673 31.54 31.5431 31.54C31.0129 31.54 30.4826 31.65 30.0584 31.87C29.6342 32.09 29.21 32.31 28.8919 32.64C28.5737 32.97 28.3616 33.41 28.1495 33.85C27.9374 34.29 27.9374 34.84 27.9374 35.5C27.9374 36.16 28.0435 36.71 28.2556 37.26C28.4677 37.81 28.6798 38.14 28.9979 38.58C29.3161 38.91 29.7403 39.24 30.1645 39.35C30.5887 39.46 31.1189 39.68 31.7552 39.68C32.1794 39.68 32.6036 39.68 32.9218 39.57C33.2399 39.46 33.5581 39.35 33.8762 39.13V37.04H32.3915C32.2855 37.04 32.1794 37.04 32.1794 36.93C32.0734 36.82 32.0734 36.82 32.0734 36.71V35.72H35.361V35.5Z" fill="#BA0C2F"/>
<path d="M39.3538 31.4592V34.9388H43.7727V36.398H39.3538V41H37.4932V30H44.5867V31.4592H39.3538Z" fill="#BA0C2F"/>
<path d="M60.8008 30L57.2761 41H55.6312L52.9289 33.1429C52.9289 33.0306 52.8114 32.9184 52.8114 32.8061C52.8114 32.6939 52.8114 32.5816 52.6939 32.4694C52.6939 32.5816 52.6939 32.6939 52.5764 32.8061C52.5764 32.9184 52.4589 33.0306 52.4589 33.1429L49.7566 41H48.1117L44.5869 30H46.1143C46.2318 30 46.3493 30 46.4668 30.1122C46.5843 30.2245 46.7018 30.3367 46.7018 30.449L48.8166 37.5204C48.8166 37.6327 48.9341 37.8571 48.9341 37.9694C48.9341 38.1939 49.0516 38.3061 49.0516 38.5306C49.0516 38.3061 49.1691 38.1939 49.1691 37.9694C49.1691 37.7449 49.2866 37.6327 49.2866 37.5204L51.7539 30.449C51.7539 30.3367 51.8714 30.2245 51.9889 30.1122C52.1064 30 52.2239 30 52.3414 30H52.9289C53.0463 30 53.2813 30 53.2813 30.1122C53.3988 30.2245 53.5163 30.3367 53.5163 30.449L55.9836 37.5204C55.9836 37.6327 56.1011 37.8571 56.1011 37.9694C56.1011 38.1939 56.2186 38.3061 56.2186 38.5306C56.2186 38.3061 56.3361 38.1939 56.3361 37.9694C56.3361 37.7449 56.4536 37.6327 56.4536 37.5204L58.5685 30.449C58.5685 30.3367 58.686 30.2245 58.8035 30.1122C58.9209 30 59.0384 30 59.1559 30H60.8008Z" fill="#BA0C2F"/>
<path d="M66.9691 74H8.02025C3.60911 74 0 70.4448 0 66.0996V7.90036C0 3.55516 3.60911 0 8.02025 0H66.9691C71.3802 0 74.9893 3.55516 74.9893 7.90036V65.968C74.9893 70.3132 71.3802 74 66.9691 74ZM8.02025 2.63345C5.07949 2.63345 2.67342 5.00356 2.67342 7.90036V65.968C2.67342 68.8648 5.07949 71.2349 8.02025 71.2349H66.9691C69.9098 71.2349 72.3159 68.8648 72.3159 65.968V7.90036C72.3159 5.00356 69.9098 2.63345 66.9691 2.63345H8.02025Z" fill="#3E4451"/>
<path d="M61.7562 66.1H60.2858C59.8848 66.1 59.6174 65.8367 59.6174 65.4416C59.6174 65.0466 59.8848 64.7833 60.2858 64.7833H61.6225C62.0235 64.7833 62.2909 65.0466 62.2909 65.4416C62.2909 65.8367 62.1572 66.1 61.7562 66.1ZM56.4093 66.1H55.0726C54.6716 66.1 54.4043 65.8367 54.4043 65.4416C54.4043 65.0466 54.6716 64.7833 55.0726 64.7833H56.4093C56.8104 64.7833 57.0777 65.0466 57.0777 65.4416C57.0777 65.8367 56.6767 66.1 56.4093 66.1ZM51.0625 66.1H49.7258C49.3248 66.1 49.0574 65.8367 49.0574 65.4416C49.0574 65.0466 49.3248 64.7833 49.7258 64.7833H51.0625C51.4635 64.7833 51.7309 65.0466 51.7309 65.4416C51.7309 65.8367 51.4635 66.1 51.0625 66.1ZM45.7157 66.1H44.3789C43.9779 66.1 43.7106 65.8367 43.7106 65.4416C43.7106 65.0466 43.9779 64.7833 44.3789 64.7833H45.7157C46.1167 64.7833 46.384 65.0466 46.384 65.4416C46.384 65.8367 46.1167 66.1 45.7157 66.1ZM40.3688 66.1H39.0321C38.6311 66.1 38.3637 65.8367 38.3637 65.4416C38.3637 65.0466 38.6311 64.7833 39.0321 64.7833H40.3688C40.7698 64.7833 41.0372 65.0466 41.0372 65.4416C41.0372 65.8367 40.7698 66.1 40.3688 66.1ZM35.022 66.1H33.6853C33.2842 66.1 33.0169 65.8367 33.0169 65.4416C33.0169 65.0466 33.2842 64.7833 33.6853 64.7833H35.022C35.423 64.7833 35.6903 65.0466 35.6903 65.4416C35.6903 65.8367 35.423 66.1 35.022 66.1ZM29.8088 66.1H28.4721C28.0711 66.1 27.8037 65.8367 27.8037 65.4416C27.8037 65.0466 28.0711 64.7833 28.4721 64.7833H29.8088C30.2098 64.7833 30.4771 65.0466 30.4771 65.4416C30.4771 65.8367 30.0761 66.1 29.8088 66.1ZM24.4619 66.1H23.1252C22.7242 66.1 22.4569 65.8367 22.4569 65.4416C22.4569 65.0466 22.7242 64.7833 23.1252 64.7833H24.4619C24.863 64.7833 25.1303 65.0466 25.1303 65.4416C25.1303 65.8367 24.863 66.1 24.4619 66.1ZM19.1151 66.1H17.7784C17.3774 66.1 17.11 65.8367 17.11 65.4416C17.11 65.0466 17.3774 64.7833 17.7784 64.7833H19.1151C19.5161 64.7833 19.7835 65.0466 19.7835 65.4416C19.7835 65.8367 19.5161 66.1 19.1151 66.1ZM13.7682 66.1H13.3672C12.9662 66.1 12.6989 66.1 12.2979 65.9683C11.8969 65.8367 11.6295 65.5733 11.7632 65.1783C11.8969 64.7833 12.1642 64.5199 12.5652 64.6516C12.8326 64.6516 13.0999 64.7833 13.3672 64.7833H13.7682C14.1693 64.7833 14.4366 65.0466 14.4366 65.4416C14.4366 65.8367 14.1693 66.1 13.7682 66.1ZM65.2316 64.5199C65.098 64.5199 64.9643 64.5199 64.8306 64.3883C64.5633 64.1249 64.5633 63.7299 64.8306 63.4665C65.098 63.2032 65.2316 62.8082 65.499 62.5448C65.6326 62.2815 66.0337 62.0182 66.4347 62.2815C66.702 62.4132 66.9694 62.8082 66.702 63.2032C66.4347 63.5982 66.1673 64.1249 65.9 64.3883C65.6326 64.5199 65.499 64.5199 65.2316 64.5199ZM9.3571 63.8616C9.08976 63.8616 8.95609 63.7299 8.82242 63.5982C8.55507 63.2032 8.28773 62.6765 8.15406 62.2815C8.02039 61.8865 8.28773 61.4915 8.55507 61.4915C8.95609 61.3598 9.3571 61.4915 9.3571 61.8865C9.49077 62.2815 9.62444 62.5448 9.75811 62.9399C9.89179 63.2032 9.89179 63.5982 9.49077 63.8616H9.3571ZM66.4347 59.648C66.0337 59.648 65.7663 59.3847 65.7663 58.9897V57.673C65.7663 57.2779 66.0337 57.0146 66.4347 57.0146C66.8357 57.0146 67.103 57.2779 67.103 57.673V58.9897C67.103 59.253 66.8357 59.648 66.4347 59.648ZM8.55507 58.858C8.15406 58.858 7.88672 58.5947 7.88672 58.1996V56.8829C7.88672 56.4879 8.15406 56.2246 8.55507 56.2246C8.95609 56.2246 9.22343 56.4879 9.22343 56.8829V58.1996C9.22343 58.463 8.95609 58.858 8.55507 58.858ZM66.4347 54.3811C66.0337 54.3811 65.7663 54.1178 65.7663 53.7228V52.4061C65.7663 52.011 66.0337 51.7477 66.4347 51.7477C66.8357 51.7477 67.103 52.011 67.103 52.4061V53.7228C67.103 54.1178 66.8357 54.3811 66.4347 54.3811ZM8.55507 53.5911C8.15406 53.5911 7.88672 53.3278 7.88672 52.9327V51.616C7.88672 51.221 8.15406 50.9577 8.55507 50.9577C8.95609 50.9577 9.22343 51.221 9.22343 51.616V52.9327C9.22343 53.3278 8.95609 53.5911 8.55507 53.5911ZM66.4347 49.1142C66.0337 49.1142 65.7663 48.8509 65.7663 48.4559V47.1391C65.7663 46.7441 66.0337 46.4808 66.4347 46.4808C66.8357 46.4808 67.103 46.7441 67.103 47.1391V48.4559C67.103 48.8509 66.8357 49.1142 66.4347 49.1142ZM8.55507 48.3242C8.15406 48.3242 7.88672 48.0609 7.88672 47.6658V46.3491C7.88672 45.9541 8.15406 45.6908 8.55507 45.6908C8.95609 45.6908 9.22343 45.9541 9.22343 46.3491V47.6658C9.22343 48.0609 8.95609 48.3242 8.55507 48.3242ZM66.4347 43.8473C66.0337 43.8473 65.7663 43.584 65.7663 43.189V41.8722C65.7663 41.4772 66.0337 41.2139 66.4347 41.2139C66.8357 41.2139 67.103 41.4772 67.103 41.8722V43.189C67.103 43.584 66.8357 43.8473 66.4347 43.8473ZM8.55507 43.0573C8.15406 43.0573 7.88672 42.794 7.88672 42.3989V41.0822C7.88672 40.6872 8.15406 40.4238 8.55507 40.4238C8.95609 40.4238 9.22343 40.6872 9.22343 41.0822V42.3989C9.22343 42.794 8.95609 43.0573 8.55507 43.0573ZM66.4347 38.7121C66.0337 38.7121 65.7663 38.4488 65.7663 38.0537V36.737C65.7663 36.342 66.0337 36.0787 66.4347 36.0787C66.8357 36.0787 67.103 36.342 67.103 36.737V38.0537C67.103 38.3171 66.8357 38.7121 66.4347 38.7121ZM8.55507 37.9221C8.15406 37.9221 7.88672 37.6587 7.88672 37.2637V35.947C7.88672 35.552 8.15406 35.2886 8.55507 35.2886C8.95609 35.2886 9.22343 35.552 9.22343 35.947V37.2637C9.22343 37.5271 8.95609 37.9221 8.55507 37.9221ZM66.4347 33.4452C66.0337 33.4452 65.7663 33.1819 65.7663 32.7868V31.4701C65.7663 31.0751 66.0337 30.8117 66.4347 30.8117C66.8357 30.8117 67.103 31.0751 67.103 31.4701V32.7868C67.103 33.1819 66.8357 33.4452 66.4347 33.4452ZM8.55507 32.6552C8.15406 32.6552 7.88672 32.3918 7.88672 31.9968V30.6801C7.88672 30.2851 8.15406 30.0217 8.55507 30.0217C8.95609 30.0217 9.22343 30.2851 9.22343 30.6801V31.9968C9.22343 32.3918 8.95609 32.6552 8.55507 32.6552ZM66.4347 28.1783C66.0337 28.1783 65.7663 27.9149 65.7663 27.5199V26.2032C65.7663 25.8082 66.0337 25.5448 66.4347 25.5448C66.8357 25.5448 67.103 25.8082 67.103 26.2032V27.5199C67.103 27.9149 66.8357 28.1783 66.4347 28.1783ZM8.55507 27.3883C8.15406 27.3883 7.88672 27.1249 7.88672 26.7299V25.4132C7.88672 25.0182 8.15406 24.7548 8.55507 24.7548C8.95609 24.7548 9.22343 25.0182 9.22343 25.4132V26.7299C9.22343 27.1249 8.95609 27.3883 8.55507 27.3883ZM66.4347 22.9114C66.0337 22.9114 65.7663 22.648 65.7663 22.253V20.9363C65.7663 20.5413 66.0337 20.2779 66.4347 20.2779C66.8357 20.2779 67.103 20.5413 67.103 20.9363V22.253C67.103 22.648 66.8357 22.9114 66.4347 22.9114ZM8.55507 22.1214C8.15406 22.1214 7.88672 21.858 7.88672 21.463V20.1463C7.88672 19.7512 8.15406 19.4879 8.55507 19.4879C8.95609 19.4879 9.22343 19.7512 9.22343 20.1463V21.463C9.22343 21.858 8.95609 22.1214 8.55507 22.1214ZM66.4347 17.6445C66.0337 17.6445 65.7663 17.3811 65.7663 16.9861V15.6694C65.7663 15.2744 66.0337 15.011 66.4347 15.011C66.8357 15.011 67.103 15.2744 67.103 15.6694V16.9861C67.103 17.3811 66.8357 17.6445 66.4347 17.6445ZM8.55507 16.8545C8.15406 16.8545 7.88672 16.5911 7.88672 16.1961V14.8794C7.88672 14.4843 8.15406 14.221 8.55507 14.221C8.95609 14.221 9.22343 14.4843 9.22343 14.8794V16.1961C9.22343 16.5911 8.95609 16.8545 8.55507 16.8545ZM66.301 12.5093C66.0337 12.5093 65.7663 12.3776 65.6326 11.9826C65.499 11.5875 65.3653 11.3242 65.098 10.9292C64.9643 10.6658 64.9643 10.2708 65.3653 10.0075C65.6327 9.8758 66.0337 9.8758 66.301 10.2708C66.5683 10.6658 66.8357 11.1925 66.9694 11.5875C67.103 11.9826 66.8357 12.2459 66.5683 12.3776C66.4347 12.5093 66.301 12.5093 66.301 12.5093ZM9.08976 11.7192C8.95609 11.7192 8.95609 11.7192 8.82242 11.5875C8.4214 11.5875 8.28773 11.1925 8.4214 10.7975C8.68875 10.4025 8.95609 10.0075 9.3571 9.61246C9.62444 9.34911 10.0255 9.34911 10.2928 9.61246C10.5601 9.8758 10.5601 10.2708 10.2928 10.5342C10.0255 10.7975 9.89179 11.0609 9.62444 11.3242C9.49077 11.5875 9.3571 11.7192 9.08976 11.7192ZM62.5582 9.21744C62.4245 9.21744 62.4245 9.21744 62.5582 9.21744C62.1572 9.21744 62.0235 9.08577 61.7562 9.08577H61.2215C60.8205 9.08577 60.5531 8.82242 60.5531 8.42741C60.5531 8.03239 60.8205 7.76904 61.2215 7.76904H61.7562C62.0235 7.76904 62.4245 7.76904 62.6919 7.90072C63.0929 7.90072 63.3602 8.29573 63.2266 8.69075C63.0929 8.9541 62.8256 9.21744 62.5582 9.21744ZM57.2114 9.08577H55.8747C55.4736 9.08577 55.2063 8.82242 55.2063 8.42741C55.2063 8.03239 55.4736 7.76904 55.8747 7.76904H57.2114C57.6124 7.76904 57.8797 8.03239 57.8797 8.42741C57.8797 8.82242 57.6124 9.08577 57.2114 9.08577ZM51.8645 9.08577H50.5278C50.1268 9.08577 49.8595 8.82242 49.8595 8.42741C49.8595 8.03239 50.1268 7.76904 50.5278 7.76904H51.8645C52.2655 7.76904 52.5329 8.03239 52.5329 8.42741C52.5329 8.82242 52.2655 9.08577 51.8645 9.08577ZM46.5177 9.08577H45.181C44.78 9.08577 44.5126 8.82242 44.5126 8.42741C44.5126 8.03239 44.78 7.76904 45.181 7.76904H46.5177C46.9187 7.76904 47.186 8.03239 47.186 8.42741C47.186 8.82242 46.9187 9.08577 46.5177 9.08577ZM41.3045 9.08577H39.9678C39.5668 9.08577 39.2994 8.82242 39.2994 8.42741C39.2994 8.03239 39.5668 7.76904 39.9678 7.76904H41.3045C41.7055 7.76904 41.9729 8.03239 41.9729 8.42741C41.9729 8.82242 41.5718 9.08577 41.3045 9.08577ZM35.9577 9.08577H34.6209C34.2199 9.08577 33.9526 8.82242 33.9526 8.42741C33.9526 8.03239 34.2199 7.76904 34.6209 7.76904H35.9577C36.3587 7.76904 36.626 8.03239 36.626 8.42741C36.626 8.82242 36.3587 9.08577 35.9577 9.08577ZM30.6108 9.08577H29.2741C28.8731 9.08577 28.6057 8.82242 28.6057 8.42741C28.6057 8.03239 28.8731 7.76904 29.2741 7.76904H30.6108C31.0118 7.76904 31.2792 8.03239 31.2792 8.42741C31.2792 8.82242 31.0118 9.08577 30.6108 9.08577ZM25.264 9.08577H23.9273C23.5262 9.08577 23.2589 8.82242 23.2589 8.42741C23.2589 8.03239 23.5262 7.76904 23.9273 7.76904H25.264C25.665 7.76904 25.9323 8.03239 25.9323 8.42741C25.9323 8.82242 25.665 9.08577 25.264 9.08577ZM19.9171 9.08577H18.5804C18.1794 9.08577 17.9121 8.82242 17.9121 8.42741C17.9121 8.03239 18.1794 7.76904 18.5804 7.76904H19.9171C20.3181 7.76904 20.5855 8.03239 20.5855 8.42741C20.5855 8.82242 20.3181 9.08577 19.9171 9.08577ZM14.7039 9.08577H13.3672C12.9662 9.08577 12.6989 8.82242 12.6989 8.42741C12.6989 8.03239 12.9662 7.76904 13.3672 7.76904H14.7039C15.105 7.76904 15.3723 8.03239 15.3723 8.42741C15.3723 8.82242 14.9713 9.08577 14.7039 9.08577Z" fill="#3E4451"/>
</svg>
