<svg width="74" height="74" viewBox="0 0 74 74" fill="none" xmlns="http://www.w3.org/2000/svg">
<path d="M27.4054 26C28.5405 26 29.5135 26.1121 30.3784 26.3925C31.1892 26.6729 31.8919 27.0654 32.4324 27.5701C32.973 28.0748 33.4054 28.6355 33.6216 29.3645C33.8919 30.0374 34 30.8224 34 31.6636C34 32.5047 33.8378 33.2897 33.5676 34.0187C33.2973 34.7477 32.8649 35.3645 32.3243 35.8692C31.7838 36.3738 31.0811 36.7664 30.2703 37.0467C29.4595 37.3271 28.4865 37.4953 27.4054 37.4953H24.8108V44H22V26H27.4054ZM27.4054 35.1963C28.0541 35.1963 28.5946 35.1402 29.0811 34.972C29.5676 34.8037 29.9459 34.5794 30.2703 34.243C30.5946 33.9626 30.8108 33.5701 30.973 33.1215C31.1351 32.6729 31.1892 32.2243 31.1892 31.6636C31.1892 31.1589 31.1351 30.6542 30.973 30.2617C30.8108 29.8692 30.5946 29.4766 30.2703 29.1963C29.9459 28.9159 29.5676 28.6916 29.0811 28.5234C28.5946 28.3551 28.0541 28.2991 27.4054 28.2991H24.8108V35.1963H27.4054Z" fill="#BA0C2F"/>
<path d="M52 26V43.9441H50.4831C50.2584 43.9441 50.0899 43.8882 49.9213 43.8323C49.7528 43.7764 49.5843 43.6087 49.4719 43.441L39.5281 30.8075C39.5281 31.0311 39.5843 31.3106 39.5843 31.5342C39.5843 31.7578 39.5843 31.9814 39.5843 32.205V44H37V26H38.5169C38.6292 26 38.7416 26 38.8539 26C38.9663 26 39.0225 26.0559 39.0787 26.0559C39.1348 26.1118 39.2472 26.1118 39.3034 26.2236C39.3595 26.3354 39.4157 26.3913 39.5281 26.4472L49.4719 39.1366C49.4719 38.8571 49.4157 38.6335 49.4157 38.354C49.4157 38.1304 49.4157 37.8509 49.4157 37.6832V26H52Z" fill="#BA0C2F"/>
<path d="M66.0267 74H7.97329C3.55833 74 0 70.4417 0 66.0267V7.97329C0 3.55833 3.55833 0 7.97329 0H66.0267C70.4417 0 74 3.55833 74 7.97329V66.0267C74 70.4417 70.4417 74 66.0267 74ZM7.97329 2.6358C5.00801 2.6358 2.6358 5.00801 2.6358 7.97329V66.0267C2.6358 68.992 5.00801 71.3642 7.97329 71.3642H66.0267C68.992 71.3642 71.3642 68.992 71.3642 66.0267V7.97329C71.3642 5.00801 68.992 2.6358 66.0267 2.6358H7.97329Z" fill="#3E4451"/>
<path d="M60.8877 66.2242H59.5039C59.1085 66.2242 58.8449 65.9606 58.8449 65.5652C58.8449 65.1699 59.1085 64.9063 59.5039 64.9063H60.8218C61.2171 64.9063 61.4807 65.1699 61.4807 65.5652C61.4807 65.9606 61.2171 66.2242 60.8877 66.2242ZM55.5502 66.2242H54.2323C53.8369 66.2242 53.5733 65.9606 53.5733 65.5652C53.5733 65.1699 53.8369 64.9063 54.2323 64.9063H55.5502C55.9456 64.9063 56.2091 65.1699 56.2091 65.5652C56.2091 65.9606 55.9456 66.2242 55.5502 66.2242ZM50.3445 66.2242H49.0266C48.6312 66.2242 48.3676 65.9606 48.3676 65.5652C48.3676 65.1699 48.6312 64.9063 49.0266 64.9063H50.3445C50.7399 64.9063 51.0034 65.1699 51.0034 65.5652C51.0034 65.9606 50.674 66.2242 50.3445 66.2242ZM45.0729 66.2242H43.755C43.3596 66.2242 43.096 65.9606 43.096 65.5652C43.096 65.1699 43.3596 64.9063 43.755 64.9063H45.0729C45.4683 64.9063 45.7318 65.1699 45.7318 65.5652C45.7318 65.9606 45.4683 66.2242 45.0729 66.2242ZM39.8013 66.2242H38.4834C38.088 66.2242 37.8245 65.9606 37.8245 65.5652C37.8245 65.1699 38.088 64.9063 38.4834 64.9063H39.8013C40.1967 64.9063 40.4602 65.1699 40.4602 65.5652C40.4602 65.9606 40.1967 66.2242 39.8013 66.2242ZM34.5956 66.2242H33.2777C32.8823 66.2242 32.6188 65.9606 32.6188 65.5652C32.6188 65.1699 32.8823 64.9063 33.2777 64.9063H34.5956C34.991 64.9063 35.2545 65.1699 35.2545 65.5652C35.2545 65.9606 34.9251 66.2242 34.5956 66.2242ZM29.324 66.2242H28.0061C27.6107 66.2242 27.3472 65.9606 27.3472 65.5652C27.3472 65.1699 27.6107 64.9063 28.0061 64.9063H29.324C29.7194 64.9063 29.983 65.1699 29.983 65.5652C29.983 65.9606 29.7194 66.2242 29.324 66.2242ZM24.1183 66.2242H22.8004C22.405 66.2242 22.1415 65.9606 22.1415 65.5652C22.1415 65.1699 22.405 64.9063 22.8004 64.9063H24.1183C24.5137 64.9063 24.7773 65.1699 24.7773 65.5652C24.7773 65.9606 24.4478 66.2242 24.1183 66.2242ZM18.8467 66.2242H17.5288C17.1334 66.2242 16.8699 65.9606 16.8699 65.5652C16.8699 65.1699 17.1334 64.9063 17.5288 64.9063H18.8467C19.2421 64.9063 19.5057 65.1699 19.5057 65.5652C19.5057 65.9606 19.2421 66.2242 18.8467 66.2242ZM13.641 66.2242H13.1798C12.8503 66.2242 12.5208 66.2242 12.1913 66.1583C11.8619 66.0924 11.5983 65.7629 11.6642 65.3675C11.7301 64.9722 12.0595 64.7745 12.4549 64.8404C12.7185 64.9063 12.9821 64.9063 13.2456 64.9063H13.641C14.0364 64.9063 14.3 65.1699 14.3 65.5652C14.3 65.9606 13.9705 66.2242 13.641 66.2242ZM64.3142 64.6427C64.1824 64.6427 63.9847 64.5768 63.8529 64.445C63.5894 64.1814 63.5894 63.7861 63.787 63.5225C64.0506 63.2589 64.2483 62.9294 64.446 62.6C64.5778 62.2705 64.9732 62.1387 65.3026 62.2705C65.6321 62.4023 65.7639 62.7976 65.6321 63.1271C65.4344 63.5884 65.1049 63.9837 64.7755 64.3791C64.7096 64.5768 64.5119 64.6427 64.3142 64.6427ZM9.16016 63.9837C8.96248 63.9837 8.6989 63.852 8.56711 63.6543C8.30353 63.2589 8.10584 62.7976 7.97405 62.2705C7.84226 61.941 8.10584 61.5456 8.43532 61.4797C8.76479 61.348 9.16016 61.6115 9.22606 61.941C9.35785 62.2705 9.48963 62.6659 9.68732 62.9953C9.885 63.3248 9.75321 63.7202 9.48963 63.9179C9.42374 63.9179 9.29195 63.9837 9.16016 63.9837ZM65.5662 59.7006C65.1708 59.7006 64.9073 59.437 64.9073 59.0416V57.7237C64.9073 57.3284 65.1708 57.0648 65.5662 57.0648C65.9616 57.0648 66.2252 57.3284 66.2252 57.7237V59.0416C66.2252 59.3711 65.8957 59.7006 65.5662 59.7006ZM8.43532 58.8439C8.03995 58.8439 7.77637 58.5804 7.77637 58.185V56.8671C7.77637 56.4717 8.03995 56.2082 8.43532 56.2082C8.83069 56.2082 9.09427 56.4717 9.09427 56.8671V58.185C9.09427 58.5804 8.83069 58.8439 8.43532 58.8439ZM65.5662 54.429C65.1708 54.429 64.9073 54.1654 64.9073 53.77V52.4521C64.9073 52.0568 65.1708 51.7932 65.5662 51.7932C65.9616 51.7932 66.2252 52.0568 66.2252 52.4521V53.77C66.2252 54.1654 65.8957 54.429 65.5662 54.429ZM8.43532 53.6382C8.03995 53.6382 7.77637 53.3747 7.77637 52.9793V51.6614C7.77637 51.266 8.03995 51.0025 8.43532 51.0025C8.83069 51.0025 9.09427 51.266 9.09427 51.6614V52.9793C9.09427 53.3088 8.83069 53.6382 8.43532 53.6382ZM65.5662 49.2233C65.1708 49.2233 64.9073 48.9597 64.9073 48.5643V47.2464C64.9073 46.8511 65.1708 46.5875 65.5662 46.5875C65.9616 46.5875 66.2252 46.8511 66.2252 47.2464V48.5643C66.2252 48.8938 65.8957 49.2233 65.5662 49.2233ZM8.43532 48.3667C8.03995 48.3667 7.77637 48.1031 7.77637 47.7077V46.3898C7.77637 45.9944 8.03995 45.7309 8.43532 45.7309C8.83069 45.7309 9.09427 45.9944 9.09427 46.3898V47.7077C9.09427 48.1031 8.83069 48.3667 8.43532 48.3667ZM65.5662 43.9517C65.1708 43.9517 64.9073 43.6881 64.9073 43.2927V41.9749C64.9073 41.5795 65.1708 41.3159 65.5662 41.3159C65.9616 41.3159 66.2252 41.5795 66.2252 41.9749V43.2927C66.2252 43.6881 65.8957 43.9517 65.5662 43.9517ZM8.43532 43.0951C8.03995 43.0951 7.77637 42.8315 7.77637 42.4361V41.1182C7.77637 40.7229 8.03995 40.4593 8.43532 40.4593C8.83069 40.4593 9.09427 40.7229 9.09427 41.1182V42.4361C9.09427 42.8315 8.83069 43.0951 8.43532 43.0951ZM65.5662 38.746C65.1708 38.746 64.9073 38.4824 64.9073 38.0871V36.7692C64.9073 36.3738 65.1708 36.1102 65.5662 36.1102C65.9616 36.1102 66.2252 36.3738 66.2252 36.7692V38.0871C66.2252 38.4165 65.8957 38.746 65.5662 38.746ZM8.43532 37.8894C8.03995 37.8894 7.77637 37.6258 7.77637 37.2304V35.9125C7.77637 35.5171 8.03995 35.2536 8.43532 35.2536C8.83069 35.2536 9.09427 35.5171 9.09427 35.9125V37.2304C9.09427 37.5599 8.83069 37.8894 8.43532 37.8894ZM65.5662 33.4744C65.1708 33.4744 64.9073 33.2108 64.9073 32.8155V31.4976C64.9073 31.1022 65.1708 30.8386 65.5662 30.8386C65.9616 30.8386 66.2252 31.1022 66.2252 31.4976V32.8155C66.2252 33.2108 65.8957 33.4744 65.5662 33.4744ZM8.43532 32.6178C8.03995 32.6178 7.77637 32.3542 7.77637 31.9588V30.6409C7.77637 30.2456 8.03995 29.982 8.43532 29.982C8.83069 29.982 9.09427 30.2456 9.09427 30.6409V31.9588C9.09427 32.3542 8.83069 32.6178 8.43532 32.6178ZM65.5662 28.2028C65.1708 28.2028 64.9073 27.9392 64.9073 27.5439V26.226C64.9073 25.8306 65.1708 25.567 65.5662 25.567C65.9616 25.567 66.2252 25.8306 66.2252 26.226V27.5439C66.2252 27.9392 65.8957 28.2028 65.5662 28.2028ZM8.43532 27.4121C8.03995 27.4121 7.77637 27.1485 7.77637 26.7531V25.4352C7.77637 25.0399 8.03995 24.7763 8.43532 24.7763C8.83069 24.7763 9.09427 25.0399 9.09427 25.4352V26.7531C9.09427 27.0826 8.83069 27.4121 8.43532 27.4121ZM65.5662 22.9971C65.1708 22.9971 64.9073 22.7335 64.9073 22.3382V21.0203C64.9073 20.6249 65.1708 20.3613 65.5662 20.3613C65.9616 20.3613 66.2252 20.6249 66.2252 21.0203V22.3382C66.2252 22.6676 65.8957 22.9971 65.5662 22.9971ZM8.43532 22.1405C8.03995 22.1405 7.77637 21.8769 7.77637 21.4815V20.1636C7.77637 19.7683 8.03995 19.5047 8.43532 19.5047C8.83069 19.5047 9.09427 19.7683 9.09427 20.1636V21.4815C9.09427 21.8769 8.83069 22.1405 8.43532 22.1405ZM65.5662 17.7255C65.1708 17.7255 64.9073 17.4619 64.9073 17.0666V15.7487C64.9073 15.3533 65.1708 15.0897 65.5662 15.0897C65.9616 15.0897 66.2252 15.3533 66.2252 15.7487V17.0666C66.2252 17.4619 65.8957 17.7255 65.5662 17.7255ZM8.43532 16.9348C8.03995 16.9348 7.77637 16.6712 7.77637 16.2758V14.9579C7.77637 14.5626 8.03995 14.299 8.43532 14.299C8.83069 14.299 9.09427 14.5626 9.09427 14.9579V16.2758C9.09427 16.6053 8.83069 16.9348 8.43532 16.9348ZM65.3685 12.5198C65.1049 12.5198 64.8414 12.3221 64.7096 12.0586C64.5778 11.7291 64.446 11.3337 64.2483 11.0042C64.0506 10.6748 64.1165 10.2794 64.446 10.0817C64.7755 9.88403 65.1708 9.94992 65.3685 10.2794C65.6321 10.6748 65.8298 11.136 65.9616 11.6632C66.0934 11.9927 65.8957 12.388 65.5003 12.4539C65.5003 12.5198 65.4344 12.5198 65.3685 12.5198ZM8.96248 11.7291C8.89658 11.7291 8.76479 11.7291 8.6989 11.6632C8.36942 11.5314 8.23763 11.136 8.36942 10.8066C8.56711 10.3453 8.89658 9.94992 9.22606 9.55455C9.48963 9.29097 9.885 9.29097 10.1486 9.48866C10.4122 9.75224 10.4122 10.1476 10.2145 10.4112C9.9509 10.6748 9.75321 11.0042 9.55553 11.3337C9.42374 11.5973 9.16016 11.7291 8.96248 11.7291ZM61.6784 9.15918C61.6125 9.15918 61.6125 9.15918 61.5466 9.15918C61.283 9.09329 61.0854 9.09329 60.8218 9.09329H60.3605C59.9651 9.09329 59.7016 8.82971 59.7016 8.43434C59.7016 8.03897 59.9651 7.77539 60.3605 7.77539H60.8218C61.1513 7.77539 61.4807 7.77539 61.8102 7.84129C62.1397 7.90718 62.4033 8.23666 62.3374 8.63202C62.2715 8.9615 61.942 9.15918 61.6784 9.15918ZM56.4068 9.09329H55.0889C54.6935 9.09329 54.43 8.82971 54.43 8.43434C54.43 8.03897 54.6935 7.77539 55.0889 7.77539H56.4068C56.8022 7.77539 57.0658 8.03897 57.0658 8.43434C57.0658 8.82971 56.8022 9.09329 56.4068 9.09329ZM51.2011 9.09329H49.8832C49.4879 9.09329 49.2243 8.82971 49.2243 8.43434C49.2243 8.03897 49.4879 7.77539 49.8832 7.77539H51.2011C51.5965 7.77539 51.8601 8.03897 51.8601 8.43434C51.8601 8.82971 51.5306 9.09329 51.2011 9.09329ZM45.9295 9.09329H44.6116C44.2163 9.09329 43.9527 8.82971 43.9527 8.43434C43.9527 8.03897 44.2163 7.77539 44.6116 7.77539H45.9295C46.3249 7.77539 46.5885 8.03897 46.5885 8.43434C46.5885 8.82971 46.3249 9.09329 45.9295 9.09329ZM40.7238 9.09329H39.4059C39.0106 9.09329 38.747 8.82971 38.747 8.43434C38.747 8.03897 39.0106 7.77539 39.4059 7.77539H40.7238C41.1192 7.77539 41.3828 8.03897 41.3828 8.43434C41.3828 8.82971 41.0533 9.09329 40.7238 9.09329ZM35.4522 9.09329H34.1343C33.739 9.09329 33.4754 8.82971 33.4754 8.43434C33.4754 8.03897 33.739 7.77539 34.1343 7.77539H35.4522C35.8476 7.77539 36.1112 8.03897 36.1112 8.43434C36.1112 8.82971 35.8476 9.09329 35.4522 9.09329ZM30.1806 9.09329H28.8627C28.4674 9.09329 28.2038 8.82971 28.2038 8.43434C28.2038 8.03897 28.4674 7.77539 28.8627 7.77539H30.1806C30.576 7.77539 30.8396 8.03897 30.8396 8.43434C30.8396 8.82971 30.576 9.09329 30.1806 9.09329ZM24.9749 9.09329H23.657C23.2617 9.09329 22.9981 8.82971 22.9981 8.43434C22.9981 8.03897 23.2617 7.77539 23.657 7.77539H24.9749C25.3703 7.77539 25.6339 8.03897 25.6339 8.43434C25.6339 8.82971 25.3044 9.09329 24.9749 9.09329ZM19.7033 9.09329H18.3854C17.9901 9.09329 17.7265 8.82971 17.7265 8.43434C17.7265 8.03897 17.9901 7.77539 18.3854 7.77539H19.7033C20.0987 7.77539 20.3623 8.03897 20.3623 8.43434C20.3623 8.82971 20.0987 9.09329 19.7033 9.09329ZM14.4976 9.09329H13.1798C12.7844 9.09329 12.5208 8.82971 12.5208 8.43434C12.5208 8.03897 12.7844 7.77539 13.1798 7.77539H14.4976C14.893 7.77539 15.1566 8.03897 15.1566 8.43434C15.1566 8.82971 14.8271 9.09329 14.4976 9.09329Z" fill="#3E4451"/>
</svg>
