<svg width="69" height="80" viewBox="0 0 69 80" fill="none" xmlns="http://www.w3.org/2000/svg">
<path d="M34.1635 47.2298C33.9195 47.2298 33.5534 47.1093 33.3094 46.8683C32.8213 46.3864 32.8213 45.6635 33.3094 45.1816L52.0995 25.5429C52.5875 25.061 53.3196 25.061 53.8076 25.5429C54.2957 26.0248 54.2957 26.7477 53.8076 27.2297L35.0176 46.8683C34.8956 47.1093 34.5295 47.2298 34.1635 47.2298Z" fill="#BA0C2F"/>
<path d="M34.2869 65.0601C33.9209 65.0601 33.4329 65.0601 33.0668 65.0601C32.7008 65.0601 32.4567 64.6987 32.4567 64.4577C32.4567 64.0963 32.7008 63.8553 33.0668 63.8553C33.4329 63.8553 33.7989 63.8553 34.2869 63.8553C34.653 63.8553 34.897 64.0963 34.897 64.4577C34.897 64.6987 34.653 65.0601 34.2869 65.0601ZM37.9473 64.6987C37.7033 64.6987 37.4593 64.4577 37.3373 64.2168C37.2153 63.8553 37.4593 63.6144 37.8253 63.4939C38.1914 63.3734 38.5574 63.3734 38.9235 63.2529C39.2895 63.1324 39.5335 63.3734 39.6555 63.7348C39.7775 64.0963 39.5335 64.3372 39.1675 64.4577C38.9235 64.4577 38.4354 64.5782 37.9473 64.6987ZM29.5284 64.3372H29.4064C29.0404 64.2168 28.5523 64.0963 28.1863 63.9758C27.8202 63.8553 27.6982 63.4939 27.8202 63.2529C27.9423 62.8915 28.3083 62.771 28.5523 62.8915C28.9184 63.0119 29.2844 63.1324 29.6504 63.2529C30.0165 63.3734 30.1385 63.6144 30.1385 63.9758C30.0165 64.2168 29.7725 64.3372 29.5284 64.3372ZM42.5839 63.1324C42.3398 63.1324 42.0958 63.0119 42.0958 62.771C41.9738 62.53 42.0958 62.1686 42.3398 61.9276C42.7059 61.8071 43.0719 61.5662 43.4379 61.3252C43.682 61.2047 44.048 61.2047 44.292 61.5661C44.414 61.8071 44.414 62.1686 44.048 62.4095C43.682 62.6505 43.3159 62.771 42.9499 63.0119C42.7059 63.1324 42.5839 63.1324 42.5839 63.1324ZM25.0139 62.53C24.8919 62.53 24.7699 62.53 24.6479 62.4095C24.2819 62.1686 23.9158 61.9276 23.5498 61.8071C23.3057 61.5661 23.1837 61.2047 23.4278 60.9637C23.6718 60.7228 24.0378 60.6023 24.2819 60.8433C24.6479 61.0842 24.8919 61.3252 25.258 61.4457C25.502 61.5661 25.624 61.9276 25.502 62.289C25.38 62.4095 25.258 62.53 25.0139 62.53ZM46.6103 60.4818C46.4883 60.4818 46.2442 60.3613 46.1222 60.2408C45.8782 59.9999 45.8782 59.6384 46.1222 59.3975C46.3663 59.1565 46.7323 58.9155 46.9763 58.5541C47.2204 58.3131 47.5864 58.3131 47.8304 58.5541C48.0745 58.795 48.0745 59.1565 47.8304 59.3975C47.5864 59.6384 47.2204 59.9999 46.8543 60.2408C46.8543 60.4818 46.7323 60.4818 46.6103 60.4818ZM21.1095 59.6384C20.9875 59.6384 20.7435 59.6384 20.6215 59.5179C20.3774 59.277 20.0114 58.9155 19.7674 58.5541C19.5233 58.3131 19.5233 57.9517 19.7674 57.7107C20.0114 57.4697 20.3774 57.4697 20.6215 57.7107C20.8655 57.9517 21.1095 58.3131 21.4756 58.5541C21.7196 58.795 21.7196 59.1565 21.4756 59.3975C21.4756 59.5179 21.3535 59.6384 21.1095 59.6384ZM49.7826 56.8673C49.6606 56.8673 49.5386 56.8673 49.4166 56.7468C49.1726 56.5059 49.0506 56.1444 49.2946 55.9035C49.5386 55.542 49.7826 55.301 49.9047 54.9396C50.0267 54.6986 50.3927 54.5782 50.7587 54.6986C51.0028 54.8191 51.1248 55.1806 51.0028 55.542C50.7587 55.9035 50.5147 56.2649 50.3927 56.6264C50.1487 56.7468 50.0267 56.8673 49.7826 56.8673ZM18.1812 55.783C17.9372 55.783 17.8152 55.6625 17.6931 55.4215C17.4491 55.0601 17.3271 54.6986 17.0831 54.3372C16.9611 54.0962 17.0831 53.7348 17.3271 53.4938C17.5711 53.3733 17.9372 53.4938 18.1812 53.7348C18.3032 54.0962 18.5472 54.4577 18.7913 54.8191C18.9133 55.0601 18.9133 55.4215 18.5472 55.6625C18.4252 55.783 18.3032 55.783 18.1812 55.783ZM51.9789 52.6504C51.8569 52.6504 51.8569 52.6504 51.7349 52.6504C51.3688 52.5299 51.2468 52.1685 51.3688 51.9275C51.4908 51.5661 51.6128 51.2046 51.7349 50.8432C51.8569 50.4817 52.1009 50.3613 52.4669 50.3613C52.833 50.4817 52.955 50.7227 52.955 51.0842C52.833 51.4456 52.711 51.9275 52.5889 52.289C52.4669 52.4095 52.2229 52.6504 51.9789 52.6504ZM16.351 51.3251C16.107 51.3251 15.8629 51.2046 15.7409 50.8432C15.6189 50.4817 15.4969 49.9998 15.4969 49.6384C15.3749 49.2769 15.6189 49.0359 15.985 48.9155C16.351 48.795 16.595 49.0359 16.717 49.3974C16.839 49.7588 16.839 50.1203 16.9611 50.4817C17.0831 50.8432 16.839 51.0842 16.473 51.2046C16.473 51.3251 16.473 51.3251 16.351 51.3251ZM52.833 47.8311C52.4669 47.8311 52.2229 47.4697 52.2229 47.2287C52.2229 46.8673 52.2229 46.5058 52.2229 46.0239C52.2229 45.6624 52.4669 45.4215 52.833 45.4215C53.199 45.4215 53.443 45.6624 53.443 46.0239C53.443 46.3853 53.443 46.8673 53.443 47.2287C53.443 47.5902 53.199 47.8311 52.833 47.8311ZM15.7409 46.6263C15.3749 46.6263 15.1309 46.3853 15.1309 46.0239C15.1309 45.6624 15.1309 45.1805 15.1309 44.8191C15.1309 44.4576 15.4969 44.2166 15.7409 44.2166C16.107 44.2166 16.351 44.5781 16.351 44.8191C16.351 45.1805 16.351 45.5419 16.351 46.0239C16.351 46.3853 16.107 46.6263 15.7409 46.6263ZM52.5889 43.1323C52.3449 43.1323 52.1009 42.8913 51.9789 42.6504C51.8569 42.2889 51.8569 41.9275 51.7349 41.566C51.6128 41.2046 51.8569 40.9636 52.2229 40.8431C52.5889 40.7226 52.833 40.9636 52.955 41.3251C53.077 41.6865 53.199 42.1684 53.199 42.5299C53.199 42.7708 53.077 43.0118 52.5889 43.1323C52.711 43.1323 52.5889 43.1323 52.5889 43.1323ZM16.351 41.9275H16.229C15.8629 41.807 15.7409 41.566 15.7409 41.2046C15.8629 40.8431 15.985 40.3612 16.107 39.9997C16.229 39.6383 16.595 39.5178 16.839 39.6383C17.2051 39.7588 17.3271 40.1202 17.2051 40.3612C17.0831 40.7226 16.9611 41.0841 16.839 41.4455C16.9611 41.6865 16.717 41.9275 16.351 41.9275ZM51.0028 38.554C50.7587 38.554 50.5147 38.4335 50.5147 38.1925C50.3927 37.8311 50.1487 37.4696 49.9047 37.1082C49.7826 36.8672 49.7826 36.5057 50.1487 36.2648C50.3927 36.1443 50.7587 36.1443 51.0028 36.5057C51.2468 36.8672 51.3688 37.2286 51.6128 37.5901C51.7348 37.8311 51.6128 38.1925 51.3688 38.4335C51.2468 38.554 51.1248 38.554 51.0028 38.554ZM18.3032 37.4696C18.1812 37.4696 18.0592 37.4696 17.9372 37.3491C17.6931 37.2286 17.5711 36.8672 17.6931 36.5057C17.9372 36.1443 18.1812 35.7828 18.3032 35.4214C18.5472 35.1804 18.9133 35.06 19.1573 35.3009C19.4013 35.5419 19.5233 35.9033 19.2793 36.1443C19.0353 36.5057 18.7913 36.7467 18.6692 37.1082C18.6692 37.3491 18.4252 37.4696 18.3032 37.4696ZM48.3185 34.578C48.1965 34.578 47.9524 34.4575 47.8304 34.3371C47.5864 34.0961 47.3424 33.7346 46.9763 33.4937C46.7323 33.2527 46.7323 32.8913 46.9763 32.6503C47.2204 32.4093 47.5864 32.4093 47.8304 32.6503C48.0745 32.8913 48.4405 33.2527 48.6845 33.6142C48.9285 33.8551 48.9285 34.2166 48.6845 34.4575C48.6845 34.578 48.4405 34.578 48.3185 34.578ZM21.2315 33.6142C21.1095 33.6142 20.8655 33.6142 20.7435 33.4937C20.4994 33.2527 20.4994 32.8913 20.7435 32.6503C20.9875 32.4093 21.3535 32.0479 21.7196 31.8069C21.9636 31.566 22.3296 31.566 22.5737 31.8069C22.8177 32.0479 22.8177 32.4093 22.5737 32.6503C22.3296 32.8913 21.9636 33.1322 21.7196 33.4937C21.5976 33.6142 21.3535 33.6142 21.2315 33.6142ZM44.6581 31.4455C44.5361 31.4455 44.414 31.4455 44.292 31.325C43.926 31.084 43.682 30.8431 43.3159 30.7226C43.0719 30.6021 42.9499 30.2406 43.0719 29.8792C43.1939 29.6382 43.56 29.5177 43.926 29.6382C44.292 29.8792 44.6581 30.1202 45.0241 30.2406C45.2681 30.4816 45.3902 30.8431 45.1461 31.084C45.1461 31.325 44.9021 31.4455 44.6581 31.4455ZM25.136 30.7226C24.8919 30.7226 24.7699 30.6021 24.6479 30.3611C24.5259 30.1202 24.5259 29.7587 24.8919 29.5177C25.258 29.2768 25.624 29.1563 25.99 28.9153C26.2341 28.7949 26.6001 28.9153 26.8441 29.1563C26.9661 29.3973 26.8441 29.7587 26.6001 29.9997C26.2341 30.1202 25.868 30.3611 25.502 30.6021C25.258 30.7226 25.136 30.7226 25.136 30.7226ZM40.3876 29.2768C40.2656 29.2768 40.2656 29.2768 40.1436 29.2768C39.7775 29.1563 39.4115 29.0358 39.0455 28.9153C38.6794 28.7949 38.5574 28.5539 38.5574 28.1924C38.6794 27.831 38.9235 27.7105 39.2895 27.7105C39.6555 27.831 40.1436 27.9515 40.5096 28.072C40.8757 28.1924 40.9977 28.5539 40.8757 28.7949C40.8757 29.1563 40.6316 29.2768 40.3876 29.2768ZM29.5284 28.9153C29.2844 28.9153 29.0404 28.7949 28.9184 28.4334C28.7963 28.072 29.0404 27.831 29.4064 27.7105C29.7725 27.59 30.2605 27.4695 30.6265 27.4695C30.9926 27.3491 31.2366 27.59 31.3586 27.9515C31.4806 28.3129 31.2366 28.5539 30.8706 28.6744C30.5045 28.7949 30.1385 28.7949 29.7725 28.9153C29.6504 28.9153 29.6504 28.9153 29.5284 28.9153ZM35.6291 28.3129C35.141 28.3129 34.775 28.3129 34.409 28.3129C34.0429 28.3129 33.7989 28.072 33.7989 27.7105C33.7989 27.3491 34.0429 27.1081 34.409 27.1081C34.775 27.1081 35.2631 27.1081 35.6291 27.1081C35.9951 27.1081 36.2392 27.4695 36.2392 27.7105C36.2392 28.072 35.8731 28.3129 35.6291 28.3129Z" fill="#BA0C2F"/>
<path d="M34.2857 80.0001C15.3737 80.0001 0 64.8193 0 46.024C0 27.2287 15.3737 12.1683 34.2857 12.1683C53.1978 12.1683 68.5715 27.3492 68.5715 46.024C68.5715 64.6988 53.3198 80.0001 34.2857 80.0001ZM34.2857 14.578C16.7158 14.578 2.44027 28.6745 2.44027 46.024C2.44027 63.3735 16.7158 77.47 34.2857 77.47C51.8557 77.47 66.1312 63.3735 66.1312 46.024C66.2532 28.6745 51.9777 14.578 34.2857 14.578Z" fill="#3E4451"/>
<path d="M46.8526 0H21.8398V2.40965H46.8526V0Z" fill="#3E4451"/>
</svg>
