<svg width="77" height="73" viewBox="0 0 77 73" fill="none" xmlns="http://www.w3.org/2000/svg">
<path d="M38.8903 31.7314C42.6299 31.7314 45.6614 28.7311 45.6614 25.03C45.6614 21.3289 42.6299 18.3286 38.8903 18.3286C35.1507 18.3286 32.1191 21.3289 32.1191 25.03C32.1191 28.7311 35.1507 31.7314 38.8903 31.7314Z" stroke="#BA0C2F" stroke-width="2.5" stroke-miterlimit="10"/>
<path d="M26.1895 43.0441C26.1998 41.4716 26.5544 39.92 27.2288 38.4961C27.9032 37.0723 28.8813 35.81 30.0959 34.7961C32.4427 32.838 35.4179 31.7718 38.4875 31.7891V31.7891C41.6249 31.6728 44.681 32.7921 46.9861 34.9017C49.2913 37.0114 50.6575 39.9393 50.7855 43.0441" stroke="#BA0C2F" stroke-width="2.5" stroke-miterlimit="10"/>
<path d="M70.4894 3.57983H6.51084C4.91272 3.57983 3.61719 4.86203 3.61719 6.4437V49.0294C3.61719 50.6111 4.91272 51.8933 6.51084 51.8933H70.4894C72.0875 51.8933 73.3831 50.6111 73.3831 49.0294V6.4437C73.3831 4.86203 72.0875 3.57983 70.4894 3.57983Z" stroke="#3E4451" stroke-width="2.5" stroke-miterlimit="10"/>
<path d="M45.0536 51.8935H32.8135V63.5208H45.0536V51.8935Z" stroke="#3E4451" stroke-width="2.5" stroke-miterlimit="10"/>
<path d="M20.256 63.6929H56.7449C57.5123 63.6929 58.2483 63.9946 58.791 64.5317C59.3337 65.0688 59.6385 65.7972 59.6385 66.5567V69.4206H17.3623V66.5567C17.3623 65.7972 17.6672 65.0688 18.2098 64.5317C18.7525 63.9946 19.4885 63.6929 20.256 63.6929Z" stroke="#3E4451" stroke-width="2.5" stroke-miterlimit="10"/>
<path d="M62.0101 12.8874H14.9883V42.2707H62.0101V12.8874Z" stroke="#3E4451" stroke-width="2.5" stroke-miterlimit="10"/>
</svg>
